<?xml version="1.0" standalone="no"?>
<!DOCTYPE svg PUBLIC "-//W3C//DTD SVG 1.1//EN" "http://www.w3.org/Graphics/SVG/1.1/DTD/svg11.dtd" >
<svg xmlns="http://www.w3.org/2000/svg" xmlns:xlink="http://www.w3.org/1999/xlink" version="1.1">
<metadata>
Created by FontForge 20170731 at Wed Dec 21 18:53:27 2022
 By Aleksey,,,
Copyright (c) 2019 by Fontastica. All rights reserved.
</metadata>
<defs>
<font id="Brooklyn-Normal" horiz-adv-x="1169" >
  <font-face 
    font-family="Brooklyn Normal"
    font-weight="400"
    font-stretch="normal"
    units-per-em="2048"
    panose-1="0 0 5 0 0 0 0 0 0 0"
    ascent="1638"
    descent="-410"
    x-height="973"
    cap-height="1362"
    bbox="-119 -512 2316 1671"
    underline-thickness="102"
    underline-position="-307"
    unicode-range="U+0020-2212"
  />
<missing-glyph horiz-adv-x="1075" 
 />
    <glyph glyph-name=".notdef" horiz-adv-x="1075" 
 />
    <glyph glyph-name=".null" horiz-adv-x="0" 
 />
    <glyph glyph-name="nonmarkingreturn" horiz-adv-x="682" 
 />
    <glyph glyph-name="space" unicode=" " horiz-adv-x="565" 
 />
    <glyph glyph-name="exclam" unicode="!" horiz-adv-x="600" 
d="M205 1362h192l-16 -942h-162zM301 -20q-47 0 -81 29t-34 71t34.5 72t80.5 30t79.5 -30t33.5 -72t-33.5 -71t-79.5 -29z" />
    <glyph glyph-name="quotedbl" unicode="&#x22;" horiz-adv-x="753" 
d="M113 1411h178l-17 -498h-147zM463 1411h178l-14 -498h-150z" />
    <glyph glyph-name="numbersign" unicode="#" horiz-adv-x="1486" 
d="M1126 870l-86 -368h258l-28 -131h-262l-86 -371h-172l86 371h-340l-86 -371h-172l86 371h-254l28 131h256l86 368h-254l31 134h256l84 358h172l-84 -358h340l84 358h174l-84 -358h258l-31 -134h-260zM954 870h-342l-86 -368h342z" />
    <glyph glyph-name="dollar" unicode="$" horiz-adv-x="1421" 
d="M1309 371q0 -166 -131.5 -270.5t-356.5 -123.5v-219h-176v219q-153 11 -296 59.5t-232 106.5l90 142q103 -71 243.5 -114.5t282.5 -43.5q112 0 198 24.5t139.5 80t53.5 135.5q0 27 -6.5 49.5t-15.5 40t-28.5 33.5t-34.5 26.5t-44 21.5t-47 17t-55 14t-56 11.5t-60.5 11
t-59.5 10.5q-316 56 -437.5 135.5t-121.5 235.5q0 80 27 145t71.5 109.5t108.5 77.5t132.5 51t147.5 26v222h176v-220q235 -6 451 -124l-82 -130q-195 105 -422 105q-213 0 -320.5 -65.5t-107.5 -186.5q0 -65 35.5 -105t123 -70t251.5 -56q187 -30 268 -56q273 -85 290 -296
q1 -14 1 -29z" />
    <glyph glyph-name="percent" unicode="%" horiz-adv-x="2058" 
d="M1417 1386h187l-975 -1411h-189zM492 643q-172 0 -286 102.5t-114 262.5q0 161 114 263.5t286 102.5q174 0 287.5 -102t113.5 -264q0 -160 -113.5 -262.5t-287.5 -102.5zM492 774q109 0 175 64t66 170t-66 169.5t-175 63.5t-173.5 -62t-64.5 -171q0 -106 65.5 -170
t172.5 -64zM1563 -14q-173 0 -285.5 103t-112.5 263q0 161 113 264t285 103q174 0 287.5 -103t113.5 -264t-113.5 -263.5t-287.5 -102.5zM1563 117q108 0 173.5 64.5t65.5 170.5t-65 170t-174 64q-108 0 -172 -63t-64 -171q0 -106 64.5 -170.5t171.5 -64.5z" />
    <glyph glyph-name="ampersand" unicode="&#x26;" horiz-adv-x="1640" 
d="M1276 0l-232 207l-98 -103q-126 -129 -348 -129q-191 0 -314.5 101t-123.5 262q0 184 157 303l138 96l-113 101q-100 88 -100 225q0 139 109.5 231t275.5 92q161 0 269 -88.5t108 -226.5q0 -75 -34.5 -141t-95.5 -107l-149 -106l309 -279l262 273l78 -162l-215 -221
l365 -328h-248zM629 1235q-91 0 -148 -47t-57 -125t53 -125l123 -111l158 113q61 43 61 127q0 78 -51.5 123t-138.5 45zM918 319l-340 306l-144 -105q-90 -66 -90 -182q0 -96 67.5 -153.5t184.5 -57.5q138 0 213 78z" />
    <glyph glyph-name="quotesingle" unicode="'" horiz-adv-x="401" 
d="M113 1411h178l-17 -498h-147z" />
    <glyph glyph-name="parenleft" unicode="(" horiz-adv-x="925" 
d="M754 -279q-263 102 -419.5 322.5t-156.5 511.5t156.5 511t419.5 320l59 -145q-211 -85 -331 -265.5t-120 -420.5t120 -421.5t331 -266.5z" />
    <glyph glyph-name="parenright" unicode=")" horiz-adv-x="925" 
d="M113 -133q209 85 328.5 267t119.5 421t-119.5 419.5t-328.5 266.5l57 145q264 -100 419.5 -319.5t155.5 -511.5t-155.5 -512.5t-419.5 -321.5z" />
    <glyph glyph-name="asterisk" unicode="*" horiz-adv-x="991" 
d="M604 1034l176 -203l-125 -81l-159 213l-162 -213l-123 81l176 203l-274 76l47 129l268 -88l-8 260h151l-10 -260l270 88l48 -129z" />
    <glyph glyph-name="plus" unicode="+" 
d="M1075 477h-418v-379h-145v379h-420v131h420v381h145v-381h418v-131z" />
    <glyph glyph-name="comma" unicode="," horiz-adv-x="573" 
d="M203 195h190l-117 -500h-137z" />
    <glyph glyph-name="hyphen" unicode="-" horiz-adv-x="858" 
d="M748 610v-131h-635v131h635z" />
    <glyph glyph-name="period" unicode="." horiz-adv-x="606" 
d="M303 -20q-50 0 -85.5 30.5t-35.5 75.5t34.5 77t86.5 32q51 0 86 -32t35 -77q0 -46 -35 -76t-86 -30z" />
    <glyph glyph-name="slash" unicode="/" horiz-adv-x="1163" 
d="M911 1460h187l-844 -1558h-184z" />
    <glyph glyph-name="zero" unicode="0" horiz-adv-x="1558" 
d="M778 -25q-176 0 -316.5 86t-221 243.5t-80.5 357.5q0 150 47 278.5t129 218t196.5 139.5t245.5 50q270 0 446.5 -192t176.5 -494q0 -200 -81 -357t-223 -243.5t-319 -86.5zM778 127q191 0 315 150t124 385t-124 384.5t-315 149.5q-190 0 -312 -148.5t-122 -385.5
t122 -386t312 -149z" />
    <glyph glyph-name="one" unicode="1" horiz-adv-x="745" 
d="M530 1323v-1323h-176v1112l-284 -108v159l415 160h45z" />
    <glyph glyph-name="two" unicode="2" horiz-adv-x="1245" 
d="M1085 150v-150h-940v121l-2 2l580 532q82 77 116.5 134t34.5 137q0 124 -78 197t-214 73q-106 0 -193 -45.5t-143 -128.5l-131 94q73 111 197 171.5t274 60.5q134 0 240.5 -49.5t169.5 -148t63 -230.5q0 -109 -47.5 -193t-155.5 -184l-428 -393h657z" />
    <glyph glyph-name="three" unicode="3" horiz-adv-x="1314" 
d="M907 676q117 -43 182.5 -125t65.5 -189q0 -171 -155.5 -279t-403.5 -108q-161 0 -285.5 48.5t-195.5 128.5l116 108q116 -133 363 -133q174 0 275.5 65.5t101.5 174.5q0 104 -98.5 166.5t-268.5 62.5h-231v152h225q154 0 244 58.5t90 160.5q0 103 -89.5 166t-252.5 63
q-236 0 -328 -129l-131 96q65 87 185 136t274 49q231 0 377.5 -104.5t146.5 -272.5q0 -99 -54.5 -175.5t-152.5 -119.5z" />
    <glyph glyph-name="four" unicode="4" horiz-adv-x="1292" 
d="M1196 295h-252v-295h-174v295h-682v123l541 905h202l-524 -879h463v439h174v-439h252v-149z" />
    <glyph glyph-name="five" unicode="5" horiz-adv-x="1294" 
d="M612 813q239 0 389 -116t150 -302t-150 -303t-389 -117q-165 0 -290.5 58.5t-188.5 159.5l117 110q109 -176 360 -176q165 0 262 73t97 195q0 121 -96.5 192.5t-260.5 71.5q-160 0 -254 -63l-116 113l34 614h799v-149h-631l-20 -383q86 22 188 22z" />
    <glyph glyph-name="six" unicode="6" horiz-adv-x="1357" 
d="M727 850q219 0 356.5 -117.5t137.5 -294.5q0 -141 -69.5 -247t-189 -161t-272.5 -55q-234 0 -383 125t-149 330q0 112 69 213l461 680h209l-328 -494q82 21 158 21zM690 127q160 0 254 81.5t94 225.5q0 117 -94 189.5t-252 72.5q-160 0 -256 -74.5t-96 -189.5
q0 -141 95 -223t255 -82z" />
    <glyph glyph-name="seven" unicode="7" horiz-adv-x="1114" 
d="M1059 1323v-123l-666 -1200h-196l649 1174h-789v149h1002z" />
    <glyph glyph-name="eight" unicode="8" horiz-adv-x="1437" 
d="M1028 676q124 -43 188 -123t64 -191q0 -170 -155.5 -278.5t-401.5 -108.5q-251 0 -407 109.5t-156 280.5q0 110 65 189t189 122q-213 82 -213 295q0 168 144.5 272.5t373.5 104.5q230 0 375 -105t145 -274q0 -103 -54 -178t-157 -115zM719 1196q-157 0 -246.5 -61
t-89.5 -166q0 -103 87 -161t249 -58q160 0 249 56t89 161q0 103 -87.5 166t-250.5 63zM723 127q172 0 273.5 65.5t101.5 174.5q0 105 -100 167t-275 62q-180 0 -279.5 -62.5t-99.5 -168.5q0 -108 102.5 -173t276.5 -65z" />
    <glyph glyph-name="nine" unicode="9" horiz-adv-x="1357" 
d="M670 1343q232 0 382 -122t150 -314q0 -133 -82 -243l-471 -664h-207l349 489q-82 -20 -158 -20q-222 0 -360 120.5t-138 311.5q0 132 69 233t190.5 155t275.5 54zM1018 905q2 128 -93.5 206.5t-254.5 78.5q-160 0 -256.5 -78t-96.5 -207q0 -130 94 -206t253 -76
q163 0 258.5 77.5t95.5 204.5z" />
    <glyph glyph-name="colon" unicode=":" horiz-adv-x="606" 
d="M303 778q-49 0 -85 32.5t-36 76.5q0 45 35.5 76.5t85.5 31.5q51 0 86 -31t35 -77q0 -45 -35 -77t-86 -32zM303 -20q-50 0 -85.5 30.5t-35.5 75.5q0 44 36 76.5t85 32.5q51 0 86 -32t35 -77q0 -46 -35 -76t-86 -30z" />
    <glyph glyph-name="semicolon" unicode=";" horiz-adv-x="593" 
d="M291 778q-51 0 -86 32t-35 77q0 46 35 77t86 31q48 0 84.5 -31.5t36.5 -76.5q0 -44 -36.5 -76.5t-84.5 -32.5zM203 195h190l-117 -500h-137z" />
    <glyph glyph-name="less" unicode="&#x3c;" horiz-adv-x="1048" 
d="M958 836l-712 -291l712 -291v-162l-870 365v176l870 362v-159z" />
    <glyph glyph-name="equal" unicode="=" 
d="M92 803h983v-131h-983v131zM92 418h983v-131h-983v131z" />
    <glyph glyph-name="greater" unicode="&#x3e;" horiz-adv-x="1038" 
d="M961 633v-176l-871 -365v162l715 291l-715 291v159z" />
    <glyph glyph-name="question" unicode="?" horiz-adv-x="1206" 
d="M506 420q-2 50 0 73.5t22 58t47 62.5t95 93q15 15 44 43t39.5 38t31 31t26.5 29.5t19 25t16.5 26.5t9 25.5t7 30t1.5 31.5q0 116 -74.5 182t-207.5 66q-215 0 -336 -174l-131 94q160 231 473 231q211 0 335 -108t124 -297q0 -98 -45 -165t-197 -212q-95 -92 -116 -120.5
t-21 -63.5h-162zM588 -20q-49 0 -83 29.5t-34 70.5q0 43 34 72.5t83 29.5q46 0 78 -29.5t32 -72.5q0 -42 -32 -71t-78 -29z" />
    <glyph glyph-name="at" unicode="@" horiz-adv-x="2220" 
d="M2038 565q0 -214 -116.5 -339t-330.5 -124h-194v111q-48 -73 -134.5 -102t-215.5 -29q-200 0 -340 128.5t-140 324.5q0 130 65 233.5t176 160t245 56.5q228 0 336 -131v111h141v-740l61 -2q77 1 134.5 27.5t91.5 73.5t50.5 107.5t16.5 133.5q0 144 -58.5 272.5
t-159.5 222t-245 148t-307 54.5q-223 0 -401 -93.5t-278.5 -262.5t-100.5 -384q0 -216 99.5 -385t279 -263.5t409.5 -94.5q271 0 477 149l97 -100q-248 -176 -576 -176q-272 0 -487.5 112.5t-335 311.5t-119.5 448q0 188 72 350t197 273.5t297.5 175t369.5 63.5
q200 0 373.5 -66.5t293.5 -178t188.5 -261.5t68.5 -315zM1057 205q155 0 249.5 91t94.5 239q0 147 -94.5 237t-249.5 90q-151 0 -245.5 -90.5t-94.5 -236.5q0 -147 94.5 -238.5t245.5 -91.5z" />
    <glyph glyph-name="A" unicode="A" horiz-adv-x="1595" 
d="M1174 342h-746l-160 -342h-196l624 1362h203l625 -1362h-195zM1106 489l-307 697l-301 -697h608z" />
    <glyph glyph-name="B" unicode="B" horiz-adv-x="1523" 
d="M1180 709q72 -25 119 -108.5t47 -190.5q0 -79 -32 -153t-89 -131t-144 -91.5t-190 -34.5h-670v1362h670q210 0 332.5 -99.5t122.5 -261.5q0 -105 -47 -186t-119 -106zM397 1212v-428h508q126 0 192 55t66 162q0 100 -70.5 155.5t-201.5 55.5h-494zM397 150h494
q125 0 198.5 77.5t73.5 182.5q0 108 -65.5 163.5t-192.5 55.5h-508v-479z" />
    <glyph glyph-name="C" unicode="C" horiz-adv-x="1757" 
d="M1419 391l199 -2q-31 -63 -55 -96h2q-44 -64 -92 -109q-147 -140 -369 -188q-75 -18 -184 -21h-5h-2h-2h-2h-2h-2h-4h-4h-4h-2h-2h-6q-217 3 -389.5 93t-270.5 250.5t-98 363.5q0 205 100.5 366t277.5 249.5t398 88.5q249 0 439.5 -110.5t277.5 -302.5l-199 -2
q-72 125 -208 194.5t-310 69.5q-263 0 -428.5 -154.5t-165.5 -398.5q0 -161 78 -295h2q71 -118 199.5 -187t292.5 -73h4h6h2h2h2h2h2h2h2h2h2h2h4h2q132 3 243 47t188 121q52 56 73 96z" />
    <glyph glyph-name="D" unicode="D" horiz-adv-x="1675" 
d="M770 1362q224 0 400.5 -82.5t278 -238t101.5 -359.5q0 -205 -101.5 -361t-278 -238.5t-400.5 -82.5h-549v1362h549zM770 152q271 0 434.5 145t163.5 385q0 238 -163.5 383t-434.5 145h-373v-1058h373z" />
    <glyph glyph-name="E" unicode="E" horiz-adv-x="1400" 
d="M1274 150v-150h-1053v1362h1034v-150h-858v-450h740v-148h-740v-464h877z" />
    <glyph glyph-name="F" unicode="F" horiz-adv-x="1368" 
d="M397 0h-176v1362h1034v-150h-858v-450h740v-148h-740v-614z" />
    <glyph glyph-name="G" unicode="G" horiz-adv-x="1759" 
d="M1679 651q-9 -205 -114 -358l-6 -6q-35 -53 -82 -97q0 -2 -4 -6q-87 -84 -216 -139q-91 -40 -206 -59l-39 -6q-13 0 -70 -5h-22h-5h-10h-4h-18q-217 3 -389.5 93t-270.5 250.5t-98 363.5q0 205 100.5 366t277.5 249.5t398 88.5q249 0 439.5 -110.5t277.5 -302.5l-199 -2
q-72 125 -208 194.5t-310 69.5q-263 0 -428.5 -154.5t-165.5 -398.5q0 -161 78 -295h2q71 -118 199.5 -187t292.5 -73h4h6h2h2h6h2q42 0 60 2q232 18 382 164l5 4q51 54 71 94q49 82 70 180l-584 2v148h770q4 -32 4 -70z" />
    <glyph glyph-name="H" unicode="H" horiz-adv-x="1681" 
d="M1460 1362v-1362h-176v614h-887v-614h-176v1362h176v-600h887v600h176z" />
    <glyph glyph-name="I" unicode="I" horiz-adv-x="620" 
d="M397 0h-176v1362h176v-1362z" />
    <glyph glyph-name="J" unicode="J" horiz-adv-x="1417" 
d="M1042 1362h172v-748q0 -115 -16.5 -208t-57.5 -175t-105 -137.5t-163 -87t-229 -31.5q-147 0 -255 39t-174 114t-100 173t-42 225h172q13 -213 107.5 -306t291.5 -93q214 0 306.5 112t92.5 375v748z" />
    <glyph glyph-name="K" unicode="K" horiz-adv-x="1513" 
d="M651 625l-254 -256v-369h-176v1362h176v-756l754 756h227l-608 -617l672 -745h-223z" />
    <glyph glyph-name="L" unicode="L" horiz-adv-x="1271" 
d="M1198 150v-150h-977v1362h176v-1212h801z" />
    <glyph glyph-name="M" unicode="M" horiz-adv-x="2013" 
d="M1792 0h-176v1151l-512 -1004h-195l-512 1006v-1153h-176v1362h262l523 -1026l524 1026h262v-1362z" />
    <glyph glyph-name="N" unicode="N" horiz-adv-x="1642" 
d="M1419 1362v-1362h-159l-863 1077v-1077h-176v1362h162l860 -1075v1075h176z" />
    <glyph glyph-name="O" unicode="O" horiz-adv-x="1804" 
d="M901 -25q-221 0 -398 89t-277.5 250.5t-100.5 367.5q0 205 100.5 366t277.5 249.5t398 88.5q222 0 399.5 -88.5t278 -249.5t100.5 -366q0 -206 -100.5 -367.5t-277.5 -250.5t-400 -89zM901 127q264 0 430 154.5t166 400.5t-166 399.5t-430 153.5q-263 0 -428.5 -154.5
t-165.5 -398.5q0 -247 165.5 -401t428.5 -154z" />
    <glyph glyph-name="P" unicode="P" horiz-adv-x="1462" 
d="M397 633l-2 -635h-174v1362h670q210 0 332.5 -99.5t122.5 -261.5q0 -161 -123 -263.5t-332 -102.5h-494zM397 784h494q130 0 201 58.5t71 158.5t-70.5 155.5t-201.5 55.5h-494v-428z" />
    <glyph glyph-name="Q" unicode="Q" horiz-adv-x="1853" 
d="M1679 682q0 -179 -76 -324.5t-214 -240.5l131 -205l-152 -80l-129 205q-154 -62 -338 -62q-221 0 -398 89t-277.5 250.5t-100.5 367.5q0 205 100.5 366t277.5 249.5t398 88.5q222 0 399.5 -88.5t278 -249.5t100.5 -366zM901 127q142 0 252 45l-211 328l152 80l206 -326
q94 76 145.5 185.5t51.5 242.5q0 246 -166 399.5t-430 153.5q-263 0 -428.5 -154.5t-165.5 -398.5q0 -247 165.5 -401t428.5 -154z" />
    <glyph glyph-name="R" unicode="R" horiz-adv-x="1429" 
d="M1360 0h-225l-465 633h-273l-2 -635h-174v1362h670q210 0 332.5 -99.5t122.5 -261.5q0 -161 -123 -263.5t-332 -102.5h-19zM397 1212v-428h494q130 0 201 58.5t71 158.5t-70.5 155.5t-201.5 55.5h-494z" />
    <glyph glyph-name="S" unicode="S" horiz-adv-x="1447" 
d="M731 -25q-178 0 -347.5 51.5t-266.5 116.5l98 121q99 -67 234.5 -102t283.5 -35q176 0 283.5 62.5t107.5 177.5q0 48 -23.5 85.5t-51 58.5t-87.5 39.5t-94 25t-110 19.5q-28 5 -41 7q-166 27 -274.5 60t-171.5 79t-88 100t-25 130q0 94 36.5 167.5t95 119t138.5 75.5
t161 41.5t169 11.5q139 0 278.5 -39t253.5 -104l-102 -119q-206 111 -434 111q-202 0 -308 -66t-106 -186q0 -97 88 -147t322 -84q194 -31 286 -62q272 -96 273 -319q0 -178 -157 -287t-421 -109z" />
    <glyph glyph-name="T" unicode="T" horiz-adv-x="1351" 
d="M1282 1212h-518v-1212h-176v1212h-516v150h1210v-150z" />
    <glyph glyph-name="U" unicode="U" horiz-adv-x="1632" 
d="M817 -25q-138 0 -244.5 31t-176 85.5t-114 136t-63 175.5t-18.5 211v748h184v-748q0 -262 100 -374.5t332 -112.5q230 0 330 112t100 375v748h185v-748q0 -115 -18 -208t-62 -175t-113 -137.5t-176 -87t-246 -31.5z" />
    <glyph glyph-name="V" unicode="V" horiz-adv-x="1546" 
d="M1473 1362l-601 -1362h-198l-602 1362h196l504 -1178l506 1178h195z" />
    <glyph glyph-name="W" unicode="W" horiz-adv-x="2387" 
d="M2316 1362l-493 -1362h-217l-412 1153l-414 -1153h-217l-491 1362h190l412 -1180l418 1180h204l418 -1176l410 1176h192z" />
    <glyph glyph-name="X" unicode="X" horiz-adv-x="1499" 
d="M1206 0l-456 578l-457 -578h-221l565 698l-539 664h219l431 -547l432 547h221l-541 -664l567 -698h-221z" />
    <glyph glyph-name="Y" unicode="Y" horiz-adv-x="1517" 
d="M848 555v-555h-174v555l-602 807h219l469 -653l469 653h219z" />
    <glyph glyph-name="Z" unicode="Z" horiz-adv-x="1370" 
d="M1253 1239l-897 -1089h881v-150h-1120v123l895 1089h-871v150h1112v-123z" />
    <glyph glyph-name="bracketleft" unicode="[" horiz-adv-x="800" 
d="M397 1212v-1314h334v-152h-510v1616h510v-150h-334z" />
    <glyph glyph-name="backslash" unicode="\" horiz-adv-x="1163" 
d="M70 1460h184l844 -1558h-187z" />
    <glyph glyph-name="bracketright" unicode="]" horiz-adv-x="800" 
d="M578 -254h-508v152h331v1314h-331v150h508v-1616z" />
    <glyph glyph-name="underscore" unicode="_" horiz-adv-x="1198" 
d="M1085 -266h-972v131h972v-131z" />
    <glyph glyph-name="a" unicode="a" horiz-adv-x="1415" 
d="M1235 973v-973h-154v125q-55 -84 -152 -117t-241 -33q-149 0 -272.5 64t-197 182t-73.5 266t73 265.5t198 181t278 63.5q262 0 379 -149v125h162zM700 115q174 0 280.5 102t106.5 270q0 167 -106.5 269t-280.5 102q-172 0 -279.5 -103t-107.5 -268q0 -167 107.5 -269.5
t279.5 -102.5z" />
    <glyph glyph-name="b" unicode="b" horiz-adv-x="1384" 
d="M723 997q153 0 278.5 -63.5t199 -181t73.5 -265.5t-74 -266t-197.5 -182t-271.5 -64q-130 0 -233 51t-162 142v-168h-154v1460h162v-624q61 77 158.5 119t220.5 42zM717 115q172 0 279.5 102.5t107.5 269.5q0 165 -107.5 268t-279.5 103q-174 0 -280.5 -102t-106.5 -269
q0 -168 106.5 -270t280.5 -102z" />
    <glyph glyph-name="c" unicode="c" horiz-adv-x="1196" 
d="M674 -25q-159 0 -286.5 64.5t-200 182t-72.5 265.5q0 147 73 264t200.5 181.5t285.5 64.5q120 0 225 -37t178 -106l-112 -106q-46 52 -122 81t-169 29q-174 0 -282.5 -103t-108.5 -268q0 -166 108 -269t285 -103q184 0 297 116l110 -106q-159 -150 -409 -150z" />
    <glyph glyph-name="d" unicode="d" horiz-adv-x="1386" 
d="M664 997q123 0 220 -42t158 -119v624h162v-1460h-153v168q-58 -90 -161.5 -141.5t-234.5 -51.5q-148 0 -271 64t-196 182t-73 266t73 265.5t198 181t278 63.5zM672 115q173 0 280 102t107 270q0 167 -107.5 269t-279.5 102q-173 0 -280 -102.5t-107 -268.5
q0 -167 107 -269.5t280 -102.5z" />
    <glyph glyph-name="e" unicode="e" horiz-adv-x="1275" 
d="M283 430q19 -147 123.5 -233t265.5 -86q192 0 327 120l99 -106q-79 -71 -189 -110.5t-235 -39.5q-245 0 -402 143.5t-157 373.5q0 225 150.5 365t393.5 140q122 0 220 -37.5t159 -100.5t93 -141.5t32 -164.5q0 -63 -14 -123h-866zM991 563v2q0 127 -88.5 212t-245.5 85
q-153 0 -252.5 -80.5t-121.5 -218.5h708z" />
    <glyph glyph-name="f" unicode="f" horiz-adv-x="913" 
d="M455 973h409v-133h-409v-840h-162v840h-242v133h242v168q0 169 96 256.5t283 87.5q162 0 258 -72l-78 -117q-65 47 -184 47q-112 0 -162.5 -48t-50.5 -154v-168z" />
    <glyph glyph-name="g" unicode="g" horiz-adv-x="1251" 
d="M1118 858h-153q79 -88 79 -215q0 -161 -122.5 -258.5t-321.5 -97.5q-88 0 -162 18h-18q-60 0 -92.5 -24.5t-32.5 -71.5q0 -46 36 -69t99 -23h191q277 0 407.5 -72.5t130.5 -226.5q0 -159 -132 -244.5t-400 -85.5q-265 0 -410 90.5t-145 231.5q0 146 159 221
q-100 67 -100 176q0 67 40 113t110 61q-125 98 -125 262q0 159 122 256.5t322 97.5q100 0 180 -24h379zM600 422q133 0 206 58t73 163q0 101 -73.5 160t-205.5 59q-133 0 -208 -58.5t-75 -160.5q0 -105 74 -163t209 -58zM993 -182q0 89 -83 125.5t-289 36.5h-191h-49
q-141 -53 -141 -164q0 -85 93 -137t294 -52q193 0 279.5 48t86.5 143z" />
    <glyph glyph-name="h" unicode="h" horiz-adv-x="1314" 
d="M713 997q189 0 309.5 -109t120.5 -288v-600h-162v584q0 130 -79.5 202t-219.5 72q-86 0 -161.5 -31.5t-126 -98.5t-50.5 -157v-571h-162v1460h162v-598q54 74 146 104.5t223 30.5z" />
    <glyph glyph-name="i" unicode="i" horiz-adv-x="593" 
d="M297 1143q-47 0 -81 29.5t-34 72.5t34 73t81 30q46 0 80.5 -30.5t34.5 -72.5t-34.5 -72t-80.5 -30zM377 0h-162v973h162v-973z" />
    <glyph glyph-name="j" unicode="j" horiz-adv-x="604" 
d="M309 1145q-45 0 -78.5 29t-33.5 71t33.5 72.5t78.5 30.5q48 0 80.5 -29.5t32.5 -73.5q0 -43 -33 -71.5t-80 -28.5zM72 -512q-116 0 -191 41l82 123q51 -25 107 -25q79 0 115 36t36 114v1196h170v-1196q0 -289 -319 -289z" />
    <glyph glyph-name="k" unicode="k" horiz-adv-x="1183" 
d="M555 449l-211 -199v-250h-162v1460h162v-1007l553 520h223l-452 -424l465 -549h-199z" />
    <glyph glyph-name="l" unicode="l" horiz-adv-x="526" 
d="M182 1460h162v-1460h-162v1460z" />
    <glyph glyph-name="m" unicode="m" horiz-adv-x="2048" 
d="M1458 997q185 0 301.5 -109.5t116.5 -287.5v-600h-162v584q0 128 -75 201t-203 73q-135 0 -229.5 -78.5t-94.5 -208.5v-571h-162v584q0 128 -74.5 201t-201.5 73q-133 -3 -231.5 -80t-98.5 -207v-571h-162v973h162v-111q94 128 330 135h20q124 0 222 -54t149 -148
q54 94 159 148t234 54z" />
    <glyph glyph-name="n" unicode="n" horiz-adv-x="1314" 
d="M713 997q189 0 309.5 -109t120.5 -288v-600h-162v584q0 130 -79.5 202t-219.5 72q-86 0 -161.5 -31.5t-126 -98.5t-50.5 -157v-571h-162v973h162v-111q54 74 146 104.5t223 30.5z" />
    <glyph glyph-name="o" unicode="o" horiz-adv-x="1343" 
d="M672 -25q-243 0 -400 143t-157 369q0 148 72 265t199 181t286 64q243 0 402 -143t159 -367q0 -149 -73 -266t-200.5 -181.5t-287.5 -64.5zM672 115q174 0 282.5 102.5t108.5 269.5q0 166 -108 268.5t-283 102.5q-173 0 -281 -102.5t-108 -268.5q0 -167 107.5 -269.5
t281.5 -102.5z" />
    <glyph glyph-name="p" unicode="p" horiz-adv-x="1384" 
d="M723 -25q-123 0 -220.5 42.5t-158.5 119.5v-649h-162v1485h154v-168q59 90 162 141t233 51q148 0 271.5 -64t197.5 -182t74 -266t-73.5 -265.5t-199 -181t-278.5 -63.5zM717 858q-174 0 -280.5 -102t-106.5 -269q0 -168 106.5 -270t280.5 -102q172 0 279.5 102.5
t107.5 269.5q0 165 -107.5 268t-279.5 103z" />
    <glyph glyph-name="q" unicode="q" horiz-adv-x="1386" 
d="M664 -25q-153 0 -278 63.5t-198 181t-73 265.5t73 266t196 182t271 64q131 0 234.5 -51t161.5 -141v168h153v-1485h-162v649q-61 -77 -158 -119.5t-220 -42.5zM672 858q-173 0 -280 -102.5t-107 -268.5q0 -167 107 -269.5t280 -102.5t280 102t107 270q0 167 -107.5 269
t-279.5 102z" />
    <glyph glyph-name="r" unicode="r" horiz-adv-x="905" 
d="M713 997q85 0 143 -18l-45 -141q-53 20 -129 20q-86 0 -161.5 -31.5t-126 -98.5t-50.5 -157v-571h-162v973h162v-111q54 74 146 104.5t223 30.5z" />
    <glyph glyph-name="s" unicode="s" horiz-adv-x="1114" 
d="M559 -27q-122 0 -253 34t-208 89l78 119q58 -42 168.5 -71t216.5 -29q56 0 104.5 8t91 25t67 48t24.5 74q0 25 -9.5 45t-33 35t-45 25.5t-63.5 20t-68.5 14.5t-79.5 14q-86 15 -144.5 29t-112 35.5t-84.5 49t-49 67.5t-18 93q0 83 40 143.5t107.5 93t142 47.5t157.5 15
q114 0 220.5 -27t182.5 -73l-78 -119q-140 80 -329 80q-133 0 -204 -40.5t-71 -115.5q0 -58 51.5 -85.5t210.5 -53.5q52 -9 80 -14t73 -14.5t70.5 -17.5t61 -21t55.5 -27t43 -33.5t34.5 -42t19.5 -51.5t8 -63q0 -145 -125.5 -225.5t-331.5 -80.5z" />
    <glyph glyph-name="t" unicode="t" horiz-adv-x="991" 
d="M852 20q-85 -45 -221 -45q-184 0 -280.5 87t-96.5 255v523h-225v133h225v299h162v-299h461v-133h-461v-523q0 -202 213 -202q104 0 159 24z" />
    <glyph glyph-name="u" unicode="u" horiz-adv-x="1302" 
d="M602 -25q-190 0 -310 109t-120 289v600h162v-584q0 -130 79 -202t220 -72q63 0 123 19t108 54t77.5 90.5t29.5 122.5v572h159v-973h-159v111q-99 -136 -369 -136z" />
    <glyph glyph-name="v" unicode="v" horiz-adv-x="1208" 
d="M1159 973l-461 -973h-186l-463 973h180l375 -813l373 813h182z" />
    <glyph glyph-name="w" unicode="w" horiz-adv-x="1814" 
d="M1765 973l-374 -973h-195l-289 797l-289 -797h-194l-375 973h176l297 -801l291 801h188l291 -801l297 801h176z" />
    <glyph glyph-name="x" unicode="x" 
d="M913 0l-327 395l-330 -395h-207l430 496l-413 477h204l316 -375l313 375h207l-414 -477l428 -496h-207z" />
    <glyph glyph-name="y" unicode="y" horiz-adv-x="1189" 
d="M1141 973l-684 -1485h-162l229 512l-475 973h180l377 -789l352 789h183z" />
    <glyph glyph-name="z" unicode="z" horiz-adv-x="1064" 
d="M961 133v-133h-879v113l655 727h-637v133h850v-113l-655 -727h666z" />
    <glyph glyph-name="braceleft" unicode="{" horiz-adv-x="931" 
d="M567 809q0 -195 -153 -252q153 -57 153 -254v-221q0 -104 49.5 -154.5t159.5 -50.5q45 0 86 8v-151q-46 -8 -100 -8q-181 0 -276 87t-95 255v223q0 98 -48 145t-148 47h-39v150h39q103 0 149.5 45t46.5 145v221q0 168 95 255t276 87q31 0 100 -6v-153q-41 8 -86 8
q-110 0 -159.5 -50.5t-49.5 -152.5v-223z" />
    <glyph glyph-name="braceright" unicode="}" horiz-adv-x="931" 
d="M776 633v-150h-39q-101 0 -148.5 -47t-47.5 -145v-223q0 -168 -95 -255t-276 -87q-54 0 -100 8v151q41 -8 86 -8q111 0 158.5 50.5t47.5 154.5v221q0 94 39.5 159.5t116.5 94.5q-156 59 -156 252v223q0 103 -47.5 153t-158.5 50q-45 0 -86 -8v153q69 6 100 6
q181 0 276 -87t95 -255v-221q0 -99 47 -144.5t149 -45.5h39z" />
    <glyph glyph-name="asciitilde" unicode="~" horiz-adv-x="1114" 
d="M92 512q26 104 86.5 163t149.5 66q50 3 96 -10.5t133 -48.5l76 -29q63 -25 96.5 -32t58.5 0q34 8 56 36t35 84l141 -45q-50 -211 -229 -227q-84 -6 -232 57l-72 29q-99 45 -157 33q-34 -6 -57 -34.5t-40 -88.5z" />
    <glyph glyph-name="exclamdown" unicode="&#xa1;" horiz-adv-x="600" 
d="M301 791q-46 0 -80.5 30.5t-34.5 71.5q0 42 34 71t81 29q46 0 79.5 -29t33.5 -71q0 -41 -33.5 -71.5t-79.5 -30.5zM219 553h162l16 -942h-192z" />
    <glyph glyph-name="cent" unicode="&#xa2;" horiz-adv-x="1243" 
d="M1108 135q-137 -146 -352 -158v-198h-162v205q-198 33 -323.5 170.5t-125.5 332.5q0 194 125.5 331.5t323.5 170.5v205h162v-199q216 -12 344 -153l-105 -101q-107 117 -290 117q-171 0 -280.5 -103t-109.5 -268q0 -166 109.5 -269t280.5 -103q185 0 296 123z" />
    <glyph glyph-name="sterling" unicode="&#xa3;" horiz-adv-x="1337" 
d="M473 150h748v-150h-1108v150h184v456h-184v150h184v168q0 205 145.5 335t368.5 130q130 0 237 -45.5t175 -129.5l-142 -90q-94 111 -270 111q-150 0 -244 -86t-94 -225v-168h576v-150h-576v-456z" />
    <glyph glyph-name="yen" unicode="&#xa5;" horiz-adv-x="1517" 
d="M995 756h285v-133h-381l-51 -68v-125h432v-133h-432v-297h-174v297h-432v133h432v125l-53 68h-379v133h280l-450 606h219l469 -653l469 653h219z" />
    <glyph glyph-name="copyright" unicode="&#xa9;" horiz-adv-x="1925" 
d="M961 -25q-223 0 -401 89t-279 250.5t-101 367.5q0 153 59 285t162.5 223.5t248 143.5t311.5 52q223 0 401.5 -88.5t279.5 -249.5t101 -366q0 -206 -101 -367.5t-279 -250.5t-402 -89zM961 92q282 0 462.5 164.5t180.5 425.5q0 260 -180.5 424t-462.5 164
q-183 0 -329.5 -74t-229.5 -208.5t-83 -305.5q0 -261 180.5 -425.5t461.5 -164.5zM969 293q-186 0 -307 109.5t-121 279.5q0 169 122 279t308 110q107 0 196.5 -44.5t141.5 -119.5l-109 -69q-76 116 -229 116q-127 0 -208 -76t-81 -196q0 -123 79.5 -198.5t207.5 -75.5
q163 0 239 120l111 -67q-53 -80 -146 -124t-204 -44z" />
    <glyph glyph-name="registered" unicode="&#xae;" horiz-adv-x="1218" 
d="M610 1374q226 0 373 -131.5t147 -339.5t-147 -339.5t-373 -131.5t-373 131.5t-147 339.5t147 339.5t373 131.5zM610 512q187 0 306.5 109t119.5 282t-119.5 282t-306.5 109q-188 0 -307 -109t-119 -282t119 -282t307 -109zM823 1006q0 -60 -37.5 -99.5t-103.5 -50.5
l166 -205h-117l-156 201h-79v-201h-95v504h238q83 0 133.5 -41t50.5 -108zM496 932h143q90 0 90 74q0 71 -90 71h-143v-145z" />
    <glyph glyph-name="periodcentered" unicode="&#xb7;" horiz-adv-x="606" 
d="M303 481q-50 0 -85.5 32t-35.5 77q0 44 35.5 76t85.5 32q51 0 86 -31.5t35 -76.5q0 -46 -35 -77.5t-86 -31.5z" />
    <glyph glyph-name="questiondown" unicode="&#xbf;" horiz-adv-x="1206" 
d="M621 791q-47 0 -80 30t-33 72q0 43 33 71.5t80 28.5t80.5 -29.5t33.5 -70.5t-33.5 -71.5t-80.5 -30.5zM618 -414q-211 0 -334.5 108.5t-123.5 297.5q0 52 9.5 89.5t42.5 84t71 86.5t120 119q96 93 117 120t21 62h161q1 -66 -8.5 -98.5t-39 -68.5t-115.5 -120
q-14 -13 -41 -39t-36.5 -35t-29 -28.5t-26 -27.5t-20 -23.5t-17 -24t-11 -22.5t-9 -25t-3.5 -25t-2 -30q0 -116 75 -182t208 -66q215 0 336 174l129 -94q-161 -232 -474 -232z" />
    <glyph glyph-name="multiply" unicode="&#xd7;" horiz-adv-x="1089" 
d="M113 246l327 297l-327 299l102 94l332 -297l327 297l107 -94l-332 -299l332 -297l-107 -94l-327 297l-332 -297z" />
    <glyph glyph-name="divide" unicode="&#xf7;" 
d="M586 778q-47 0 -81 31t-34 72q0 43 34 73.5t81 30.5q46 0 79 -30.5t33 -73.5q0 -41 -33 -72t-79 -31zM92 608h983v-131h-983v131zM586 102q-47 0 -81 31t-34 74q0 41 34 71.5t81 30.5q46 0 79 -30.5t33 -71.5q0 -43 -33 -74t-79 -31z" />
    <glyph glyph-name="endash" unicode="&#x2013;" horiz-adv-x="1177" 
d="M1067 610v-131h-954v131h954z" />
    <glyph glyph-name="emdash" unicode="&#x2014;" horiz-adv-x="1914" 
d="M1802 610v-131h-1689v131h1689z" />
    <glyph glyph-name="quoteleft" unicode="&#x2018;" horiz-adv-x="585" 
d="M299 1411h137l-63 -500h-191z" />
    <glyph glyph-name="quoteright" unicode="&#x2019;" horiz-adv-x="585" 
d="M213 1411h188l-114 -500h-140z" />
    <glyph glyph-name="quotesinglbase" unicode="&#x201a;" horiz-adv-x="585" 
d="M213 195h188l-114 -500h-140z" />
    <glyph glyph-name="quotedblleft" unicode="&#x201c;" horiz-adv-x="974" 
d="M299 1411h137l-63 -500h-191zM690 1411h135l-61 -500h-191z" />
    <glyph glyph-name="quotedblright" unicode="&#x201d;" horiz-adv-x="974" 
d="M213 1411h188l-114 -500h-140zM602 1411h189l-115 -500h-135z" />
    <glyph glyph-name="quotedblbase" unicode="&#x201e;" horiz-adv-x="974" 
d="M213 195h188l-114 -500h-140zM602 195h189l-115 -500h-135z" />
    <glyph glyph-name="bullet" unicode="&#x2022;" horiz-adv-x="854" 
d="M428 330q-102 0 -174 64.5t-72 156.5t72 155.5t174 63.5t173 -63.5t71 -155.5t-71.5 -156.5t-172.5 -64.5z" />
    <glyph glyph-name="ellipsis" unicode="&#x2026;" horiz-adv-x="1466" 
d="M266 -20q-50 0 -84.5 30.5t-34.5 75.5t34.5 77t84.5 32q51 0 86 -32t35 -77q0 -46 -35 -76t-86 -30zM733 -20q-50 0 -84.5 30.5t-34.5 75.5t33 77t86 32q49 0 85 -32.5t36 -76.5q0 -45 -35.5 -75.5t-85.5 -30.5zM1198 -20q-51 0 -85 30t-34 76q0 45 33.5 77t85.5 32
q49 0 85 -32.5t36 -76.5q0 -45 -35.5 -75.5t-85.5 -30.5z" />
    <glyph glyph-name="Euro" unicode="&#x20ac;" horiz-adv-x="1607" 
d="M1468 195q-91 -104 -221 -162t-291 -58q-242 0 -421 130t-246 348h-199v133h172q-6 47 -6 96q0 50 6 96h-172v133h199q67 218 248.5 346.5t420.5 128.5q311 0 498 -215l-121 -114q-158 178 -379 178q-168 0 -293.5 -86.5t-183.5 -237.5h651v-133h-686q-6 -46 -6 -96
t6 -96h686v-133h-653q58 -151 183.5 -237.5t295.5 -86.5q236 0 387 170z" />
    <glyph glyph-name="minus" unicode="&#x2212;" 
d="M92 608h983v-131h-983v131z" />
    <glyph glyph-name="a.alt" horiz-adv-x="1269" 
d="M653 997q210 0 322 -100t112 -297v-600h-149v164q-65 -90 -178.5 -139.5t-235.5 -49.5q-100 0 -184.5 33.5t-139.5 106t-55 170.5q0 80 37.5 141t101 97t139.5 53.5t161 17.5q179 0 346 -47v53q0 126 -76.5 192t-218.5 66q-95 0 -191 -27t-168 -79l-69 112q81 61 198 97
t248 36zM549 117q95 0 181 34.5t142.5 101t57.5 150.5v19q-154 45 -324 45q-132 0 -212.5 -44t-80.5 -134q0 -82 64.5 -127t171.5 -45z" />
    <glyph glyph-name="_FSHallmark" horiz-adv-x="2007" 
d="M188 1606h1678v-197h-1678v197zM1649 1034q0 19 -15 45q-18 21 -37 35q-35 18 -47 21q-5 1 -23 3.5t-26 2.5q-48 0 -96 -25q-41 -25 -41 -59q0 -61 37 -82q57 -28 90 -35l133 -31q33 -11 59 -14q13 -1 50 -12q5 -3 20.5 -11t22.5 -12q42 -25 63 -55q22 -40 25 -88
q3 -52 -21 -101q-51 -83 -147 -118q-102 -31 -191 -31q-79 0 -137 18q-53 14 -117 56q-51 36 -86 96q-30 56 -30 131l194 -4q0 -10 8 -29q3 -30 29 -53q22 -22 51 -35q35 -18 94 -18q67 0 107 24q41 18 41 52q0 59 -160 94q-154 39 -246 88q-100 53 -100 168q0 97 66 151
q66 53 147 80q73 17 139 17q101 0 191 -37q89 -38 133 -133q22 -55 22 -99h-202zM410 467h-222v833h707v-190h-485v-186h403v-187h-403v-270zM877 567q0 44 28 72q27 27 72 27q40 0 80 -29q33 -26 33 -70q0 -40 -33 -69q-37 -27 -80 -27q-39 0 -70 31q-30 27 -30 65z
M184 362h1680v-198h-1680v198z" />
    <glyph glyph-name="_Fontastica" horiz-adv-x="2007" 
d="M580 301h-232q-2 4 -2 10v1360h1018v-209h-784v-559h786v-211h-786v-391zM727 1282h789v389h231v-1366h-1020v207h789v559h-789v211zM1516 168q-15 -8 -15 -21q0 -18 10 -28q10 -13 25 -13q17 0 37 13l12 -13q-19 -22 -49 -22q-22 0 -43 12q-12 15 -18 43q-3 26 16 45
q21 21 45 21q28 0 49 -21l-12 -16q-1 2 -5.5 5t-6.5 5q-2 4 -19 4h-6q-18 -7 -20 -14zM348 203h86v-21h-55v-32h53v-19h-53v-45h-31v117zM541 203q37 0 59 -31q16 -23 4 -53q-13 -32 -51 -35l-14 -6q-17 0 -25 8q-37 15 -37 51q0 31 19 47q14 19 45 19zM766 86h-6
q-4 -2 -8 -2q-10 0 -19 12l-12 17q-1 3 -5 8t-5 8l-25 29v-72h-27v117h23q8 -2 12 -17q23 -23 27 -28q3 -4 10 -16.5t12 -18.5v80h23v-117zM817 203h98v-21h-36v-96h-25v96h-37v21zM1182 147q24 -3 24 -26q3 -25 -20 -35q-4 -2 -23 -2q-40 0 -55 18q2 2 2 4l2 5q0 4 4 8
l37 -13h16q7 9 9 7q0 18 -27 24q-4 0 -6 2t-10 2q-19 5 -19 27q-5 18 17 31q12 4 26 4q29 0 47 -10l-10 -21q-4 2 -8 2q-2 0 -6 2q-2 2 -8 2q-3 0 -5 4h-16q-8 0 -8 -8q-4 -4 8 -16q11 -2 29 -11zM1245 203h103v-21h-37v-96h-27v96h-39v21zM1395 203h30v-117h-30v117z
M1704 203l25 -56q1 -4 12 -32q9 -22 14 -29h-26l-11 25h-57l-10 -25h-27q33 64 47 117h33zM1018 199q4 -14 12 -27q3 -4 7.5 -14.5t6.5 -12.5q1 -3 5.5 -14t5.5 -16t5 -15.5t5 -13.5h-27q-2 2 -2 10q0 1 -1 3t-2.5 5.5t-2.5 6.5h-53q-2 -4 -2 -15q-2 -2 -2 -4l-6 -6h-25
l49 113h27zM575 145q0 16 -8 27q-13 10 -28 10q-4 -4 -9 -4q-12 -3 -22 -18q-12 -15 -2 -29q9 -27 35 -27q8 0 10 2q24 6 24 35v4zM1022 131q-1 1 -2 5t-2 5q-2 2 -3.5 6t-2.5 5q-2 4 -2 12q-2 1 -3.5 5t-2.5 5l-21 -43h39zM1706 131q-2 2 -2 10q-5 11 -6 11q-1 2 -2 6t-2 6
q-1 1 -2.5 5t-3.5 5l-19 -43h37z" />
    </font>
</defs>
</svg>
