<?xml version="1.0" standalone="no"?>
<!DOCTYPE svg PUBLIC "-//W3C//DTD SVG 1.1//EN" "http://www.w3.org/Graphics/SVG/1.1/DTD/svg11.dtd" >
<svg xmlns="http://www.w3.org/2000/svg" xmlns:xlink="http://www.w3.org/1999/xlink" version="1.1">
<metadata>
Created by FontForge 20170731 at Wed Dec 21 18:53:27 2022
 By Aleksey,,,
Copyright (c) 2019 by Fontastica. All rights reserved.
</metadata>
<defs>
<font id="Brooklyn-Bold" horiz-adv-x="661" >
  <font-face 
    font-family="Brooklyn"
    font-weight="700"
    font-stretch="normal"
    units-per-em="2048"
    panose-1="0 0 8 0 0 0 0 0 0 0"
    ascent="1638"
    descent="-410"
    x-height="975"
    cap-height="1362"
    bbox="-119 -471 2300 1671"
    underline-thickness="102"
    underline-position="-307"
    unicode-range="U+0020-2212"
  />
<missing-glyph horiz-adv-x="1011" 
 />
    <glyph glyph-name=".notdef" horiz-adv-x="1011" 
 />
    <glyph glyph-name=".null" horiz-adv-x="0" 
 />
    <glyph glyph-name="nonmarkingreturn" horiz-adv-x="682" 
 />
    <glyph glyph-name="space" unicode=" " horiz-adv-x="520" 
 />
    <glyph glyph-name="exclam" unicode="!" 
d="M203 1333h258l-17 -946h-227zM332 -20q-59 0 -102.5 39t-43.5 94q0 56 43.5 95.5t102.5 39.5t101 -39t42 -96q0 -55 -42 -94t-101 -39z" />
    <glyph glyph-name="quotedbl" unicode="&#x22;" horiz-adv-x="794" 
d="M113 1378h245l-16 -538h-215zM434 1378h248l-16 -538h-215z" />
    <glyph glyph-name="numbersign" unicode="#" horiz-adv-x="1478" 
d="M1122 801l-59 -258h235l-43 -201h-239l-82 -342h-240l80 342h-231l-78 -342h-242l80 342h-233l45 201h235l60 258h-232l45 203h236l78 329h239l-76 -329h230l76 329h245l-80 -329h238l-47 -203h-240zM883 801h-234l-59 -258h233z" />
    <glyph glyph-name="dollar" unicode="$" horiz-adv-x="1421" 
d="M1309 381q0 -165 -118 -269.5t-331 -129.5v-203h-242v203q-138 18 -274 68.5t-227 109.5l127 198q104 -72 236.5 -116.5t256.5 -44.5q144 0 233 45.5t89 136.5q0 83 -108 124q-48 18 -185 44l-25 4q-8 0 -24 4q-310 54 -428.5 136t-118.5 245q0 99 35 174.5t98.5 123
t141 75t173.5 39.5v206h242v-202q201 -12 432 -140l-118 -186q-204 109 -402 109q-177 0 -265.5 -49.5t-88.5 -141.5q0 -68 71 -104t273 -68q182 -30 262 -56q270 -88 284 -309q1 -13 1 -26z" />
    <glyph glyph-name="percent" unicode="%" horiz-adv-x="1988" 
d="M1329 1356h270l-952 -1381h-270zM500 592q-175 0 -291.5 105.5t-116.5 269.5q0 166 116.5 272.5t291.5 106.5q178 0 293.5 -106.5t115.5 -272.5q0 -165 -115.5 -270t-293.5 -105zM500 793q82 0 132 48t50 126q0 79 -50 126.5t-132 47.5q-83 0 -130.5 -46t-47.5 -128
q0 -78 48.5 -126t129.5 -48zM1485 -14q-178 0 -292 106t-114 273q0 165 114.5 270.5t291.5 105.5q178 0 293.5 -105.5t115.5 -270.5q0 -166 -115.5 -272.5t-293.5 -106.5zM1485 188q83 0 131.5 48.5t48.5 128.5q0 79 -48.5 126.5t-131.5 47.5q-81 0 -129.5 -46.5
t-48.5 -127.5q0 -79 49 -128t129 -49z" />
    <glyph glyph-name="ampersand" unicode="&#x26;" horiz-adv-x="1675" 
d="M1212 0l-196 174l-66 -65q-131 -134 -348 -134q-191 0 -316.5 105.5t-125.5 269.5q0 194 162 312l86 59l-66 59q-109 98 -109 238q0 146 113 242t285 96q165 0 275 -92.5t110 -237.5q0 -79 -36 -148.5t-101 -113.5l-95 -68l217 -196l254 264l111 -227l-190 -193l383 -344
h-347zM633 1135q-67 0 -108.5 -32t-41.5 -85q0 -56 35 -84l90 -82l119 84q39 29 39 86q0 52 -36.5 82.5t-96.5 30.5zM840 332l-258 231l-107 -78q-65 -47 -65 -135q0 -70 51 -111.5t139 -41.5q109 0 168 59z" />
    <glyph glyph-name="quotesingle" unicode="'" horiz-adv-x="468" 
d="M113 1378h245l-16 -538h-215z" />
    <glyph glyph-name="parenleft" unicode="(" horiz-adv-x="966" 
d="M770 -266l-37 12q-254 99 -404.5 311t-150.5 494q0 280 161 496t431 319l84 -205q-200 -82 -313 -242.5t-113 -367.5q0 -208 113 -369t313 -243z" />
    <glyph glyph-name="parenright" unicode=")" horiz-adv-x="966" 
d="M113 -61l37 16q181 72 284 230t103 366q0 207 -113.5 367.5t-310.5 240.5l82 207q272 -103 431.5 -318.5t159.5 -496.5q0 -283 -159.5 -498.5t-431.5 -318.5z" />
    <glyph glyph-name="asterisk" unicode="*" horiz-adv-x="1034" 
d="M688 971l152 -174l-185 -123l-139 184l-137 -184l-184 123l151 174l-233 63l71 197l230 -76l-6 223h221l-8 -223l231 76l70 -197z" />
    <glyph glyph-name="plus" unicode="+" horiz-adv-x="1169" 
d="M1075 438h-383v-348h-213v348h-387v203h387v348h213v-348h383v-203z" />
    <glyph glyph-name="comma" unicode="," horiz-adv-x="649" 
d="M207 258h262l-125 -539h-205z" />
    <glyph glyph-name="hyphen" unicode="-" horiz-adv-x="886" 
d="M776 641v-201h-663v201h663z" />
    <glyph glyph-name="period" unicode="." horiz-adv-x="667" 
d="M334 -20q-63 0 -107.5 40.5t-44.5 98.5q0 59 43 99t109 40q63 0 107 -40.5t44 -98.5t-44 -98.5t-107 -40.5z" />
    <glyph glyph-name="slash" unicode="/" horiz-adv-x="1214" 
d="M887 1423h262l-819 -1513h-260z" />
    <glyph glyph-name="zero" unicode="0" horiz-adv-x="1538" 
d="M770 -25q-264 0 -437 188.5t-173 485.5q0 196 79.5 349.5t218 237t312.5 83.5q130 0 243 -49.5t193.5 -136.5t127 -212.5t46.5 -271.5q0 -195 -79 -349.5t-218.5 -239.5t-312.5 -85zM770 197q158 0 260.5 127t102.5 325t-102.5 324.5t-260.5 126.5t-259 -126t-101 -325
q0 -200 100.5 -326t259.5 -126z" />
    <glyph glyph-name="one" unicode="1" horiz-adv-x="788" 
d="M573 1298v-1298h-241v1004l-262 -101v236l415 159h88z" />
    <glyph glyph-name="two" unicode="2" horiz-adv-x="1261" 
d="M1102 217v-217h-944v135l-19 21l563 516q66 64 95.5 111.5t29.5 107.5q0 96 -61 152.5t-168 56.5q-87 0 -164 -46.5t-133 -131.5l-186 135q82 126 211 194t276 68q208 0 342.5 -115.5t134.5 -316.5q0 -112 -46.5 -195t-153.5 -182l-318 -293h541z" />
    <glyph glyph-name="three" unicode="3" horiz-adv-x="1327" 
d="M987 666q180 -105 180 -291q0 -177 -154 -288.5t-401 -111.5q-157 0 -285.5 56t-211.5 151l166 154q122 -139 329 -139q142 0 225 49.5t83 132.5q0 76 -80 123t-217 47h-252v219h245q123 0 196 43.5t73 118.5q0 76 -73 123t-204 47q-198 0 -291 -133l-184 135
q74 102 199 159.5t276 57.5q231 0 377.5 -107t146.5 -278q0 -163 -143 -268z" />
    <glyph glyph-name="four" unicode="4" horiz-adv-x="1284" 
d="M1188 270h-232v-270h-241v270h-627v164l516 864h279l-484 -809h316v402h241v-402h232v-219z" />
    <glyph glyph-name="five" unicode="5" horiz-adv-x="1302" 
d="M625 829q239 0 386.5 -118.5t147.5 -307.5q0 -190 -148 -309t-386 -119q-163 0 -291.5 66.5t-200.5 181.5l168 160q113 -186 322 -186q134 0 212 56t78 150t-77.5 148.5t-210.5 54.5q-134 0 -238 -69l-145 139l34 622h816v-219h-584l-12 -262q58 12 129 12z" />
    <glyph glyph-name="six" unicode="6" horiz-adv-x="1353" 
d="M723 862q219 0 356.5 -119.5t137.5 -300.5q0 -213 -149 -340t-382 -127q-231 0 -379.5 127t-148.5 332q0 114 69 221l437 643h288l-290 -440q40 4 61 4zM686 197q129 0 205 64t76 177q0 90 -75.5 146.5t-203.5 56.5t-205 -58t-77 -147q0 -110 76 -174.5t204 -64.5z" />
    <glyph glyph-name="seven" unicode="7" horiz-adv-x="1114" 
d="M1059 1298v-165l-629 -1133h-272l596 1079h-697v219h1002z" />
    <glyph glyph-name="eight" unicode="8" horiz-adv-x="1429" 
d="M1092 666q180 -100 180 -291q0 -177 -155 -288.5t-398 -111.5q-249 0 -404 112t-155 290q0 193 178 287q-141 93 -141 270q0 171 144.5 278t373.5 107t372.5 -107t143.5 -280q0 -176 -139 -266zM715 1100q-126 0 -197.5 -45.5t-71.5 -122.5q0 -76 69.5 -119t199.5 -43
q127 0 198.5 41.5t71.5 118.5q0 76 -70 123t-200 47zM719 197q139 0 221 49.5t82 132.5q0 77 -81 123.5t-222 46.5q-146 0 -227.5 -47t-81.5 -125q0 -82 83.5 -131t225.5 -49z" />
    <glyph glyph-name="nine" unicode="9" horiz-adv-x="1353" 
d="M666 1315q232 0 382 -123t150 -318q0 -131 -86 -247l-442 -627h-291l309 434q-18 -2 -55 -2q-222 0 -360 121.5t-138 314.5q0 201 149.5 324t381.5 123zM946 872v5q0 97 -76.5 157t-203.5 60t-205 -61t-78 -161q0 -101 75 -160t201 -59q132 0 209.5 60t77.5 159z" />
    <glyph glyph-name="colon" unicode=":" horiz-adv-x="667" 
d="M334 715q-63 0 -107.5 42t-44.5 99q0 59 44 99t108 40t107.5 -39.5t43.5 -99.5q0 -57 -44 -99t-107 -42zM334 -20q-63 0 -107.5 40.5t-44.5 98.5t44.5 98.5t107.5 40.5t107 -40.5t44 -98.5t-44 -98.5t-107 -40.5z" />
    <glyph glyph-name="semicolon" unicode=";" horiz-adv-x="657" 
d="M324 715q-62 0 -106 41.5t-44 99.5q0 60 43.5 99.5t106.5 39.5q61 0 106 -40t45 -99q0 -57 -45.5 -99t-105.5 -42zM207 258h262l-125 -539h-205z" />
    <glyph glyph-name="less" unicode="&#x3c;" horiz-adv-x="1058" 
d="M969 782l-590 -241l590 -240v-238l-881 369v217l881 367v-234z" />
    <glyph glyph-name="equal" unicode="=" horiz-adv-x="1169" 
d="M92 819h983v-201h-983v201zM92 465h983v-201h-983v201z" />
    <glyph glyph-name="greater" unicode="&#x3e;" horiz-adv-x="1048" 
d="M971 649v-217l-881 -369v238l590 240l-590 241v234z" />
    <glyph glyph-name="question" unicode="?" horiz-adv-x="1226" 
d="M489 387v72q0 70 29.5 114.5t134.5 145.5l39 39q79 75 103 108.5t24 81.5q0 88 -57.5 137.5t-161.5 49.5q-178 0 -299 -174l-186 133q180 262 489 262q214 0 338.5 -110t124.5 -304q0 -69 -24.5 -125t-68 -106t-140.5 -144q-76 -73 -95.5 -103t-19.5 -77h-230zM604 -20
q-61 0 -103 39t-42 94q0 57 42 96t103 39q60 0 102 -39t42 -96q0 -55 -42 -94t-102 -39z" />
    <glyph glyph-name="at" unicode="@" horiz-adv-x="2150" 
d="M1968 561q0 -215 -116 -341t-330 -126h-222v45q-94 -65 -282 -65q-131 0 -241 58t-175 163t-65 235q0 132 65 236.5t176 161.5t246 57q165 0 268 -70v54h209v-682h17q114 4 171.5 79.5t57.5 194.5q0 124 -50.5 234.5t-138 191t-212.5 127.5t-267 47q-194 0 -348.5 -80.5
t-242 -226.5t-87.5 -332q0 -187 86.5 -334.5t242.5 -230t355 -82.5q236 0 445 154l145 -154q-275 -194 -590 -194q-196 0 -365.5 63.5t-288 175t-186 268t-67.5 336.5q0 181 69 337t189 264t286.5 169.5t356.5 61.5q192 0 359.5 -64.5t282.5 -173t181 -253.5t66 -304z
M1026 268q125 0 202 72.5t77 189.5t-77.5 190t-201.5 73q-121 0 -196.5 -73t-75.5 -190t75.5 -189.5t196.5 -72.5z" />
    <glyph glyph-name="A" unicode="A" horiz-adv-x="1636" 
d="M1145 322h-649l-152 -322h-272l624 1362h244l625 -1362h-273zM1047 541l-228 516l-221 -516h449z" />
    <glyph glyph-name="B" unicode="B" horiz-adv-x="1536" 
d="M221 0v1362h670q216 0 341.5 -105t125.5 -276q0 -79 -30.5 -152t-76.5 -118v-4q41 -42 74 -125t33 -156q0 -66 -20.5 -128.5t-60.5 -116t-95.5 -94.5t-130.5 -64t-160 -23h-670zM467 817h438q98 0 150.5 42.5t52.5 121.5q0 75 -56.5 117.5t-160.5 42.5h-424v-324z
M467 221h424q99 0 158 61.5t59 143.5q0 81 -52 123.5t-151 42.5h-438v-371z" />
    <glyph glyph-name="C" unicode="C" horiz-adv-x="1773" 
d="M1358 449l276 -3q-55 -114 -59 -120q-120 -176 -280.5 -259.5t-381.5 -91.5h-34q-216 3 -388 93t-269 250.5t-97 363.5q0 205 99.5 366t275.5 249.5t397 88.5q246 0 441.5 -127t291.5 -344l-270 -2q-68 117 -189.5 182.5t-273.5 65.5q-230 0 -375 -133.5t-145 -345.5
q0 -130 57 -238q66 -107 183.5 -172t256.5 -71h33q90 3 175 29.5t160 83t116 135.5z" />
    <glyph glyph-name="D" unicode="D" horiz-adv-x="1675" 
d="M778 1362q222 0 396.5 -82.5t275 -238t100.5 -359.5q0 -205 -100.5 -361t-275 -238.5t-396.5 -82.5h-557v1362h557zM778 223q237 0 379.5 126t142.5 333q0 206 -142.5 331.5t-379.5 125.5h-311v-916h311z" />
    <glyph glyph-name="E" unicode="E" horiz-adv-x="1419" 
d="M1292 221v-221h-1071v1362h1055v-221h-809v-342h696v-221h-696v-357h825z" />
    <glyph glyph-name="F" unicode="F" horiz-adv-x="1388" 
d="M467 0h-246v1362h1055v-221h-809v-342h696v-221h-696v-578z" />
    <glyph glyph-name="G" unicode="G" horiz-adv-x="1746" 
d="M1667 651q-9 -201 -115 -362l-6 -6q-42 -57 -76 -86q-8 -12 -10 -13q-158 -152 -418 -198l-38 -6q-18 0 -68 -5h-57q-216 3 -388 93t-269 250.5t-97 363.5q0 205 99.5 366t275.5 249.5t397 88.5q246 0 441.5 -127t291.5 -344l-270 -2q-68 117 -189.5 182.5t-273.5 65.5
q-230 0 -375 -133.5t-145 -345.5q0 -130 57 -238q66 -107 183.5 -172t256.5 -71h23q107 0 209 36.5t178 106.5l2 4q76 82 111 191l-537 2v217h799l4 -37q4 -28 4 -70z" />
    <glyph glyph-name="H" unicode="H" horiz-adv-x="1689" 
d="M1468 1362v-1362h-247v578h-754v-578h-246v1362h246v-563h754v563h247z" />
    <glyph glyph-name="I" unicode="I" horiz-adv-x="690" 
d="M467 0h-246v1362h246v-1362z" />
    <glyph glyph-name="J" unicode="J" horiz-adv-x="1433" 
d="M987 1362h244v-744q0 -115 -17 -208.5t-59 -176t-107 -138.5t-165.5 -88t-231.5 -32q-149 0 -258.5 43t-176.5 124.5t-101.5 188t-42.5 244.5h241q13 -200 93 -287t245 -87q181 0 258.5 95.5t77.5 321.5v744z" />
    <glyph glyph-name="K" unicode="K" horiz-adv-x="1572" 
d="M664 569l-197 -200v-369h-246v1362h246v-653l651 653h328l-612 -621l667 -741h-319z" />
    <glyph glyph-name="L" unicode="L" horiz-adv-x="1294" 
d="M1221 221v-221h-1000v1362h246v-1141h754z" />
    <glyph glyph-name="M" unicode="M" horiz-adv-x="2000" 
d="M1780 0h-246v954l-418 -815h-231l-418 817v-956h-246v1362h311l467 -918l469 918h312v-1362z" />
    <glyph glyph-name="N" unicode="N" horiz-adv-x="1650" 
d="M1427 1362v-1362h-208l-752 940v-940h-246v1362h211l750 -938v938h245z" />
    <glyph glyph-name="O" unicode="O" horiz-adv-x="1792" 
d="M897 -25q-221 0 -397 89t-275.5 250.5t-99.5 367.5q0 205 99.5 366t275.5 249.5t397 88.5q220 0 395.5 -88.5t275 -249.5t99.5 -366q0 -206 -99.5 -367.5t-275 -250.5t-395.5 -89zM897 201q230 0 374 133.5t144 347.5t-144 346.5t-374 132.5t-375 -133.5t-145 -345.5
q0 -215 144.5 -348t375.5 -133z" />
    <glyph glyph-name="P" unicode="P" horiz-adv-x="1474" 
d="M467 596l-2 -598h-244v1362h670q216 0 341.5 -105t125.5 -276q0 -168 -126.5 -275.5t-340.5 -107.5h-424zM467 817h424q103 0 160 44.5t57 119.5t-56.5 117.5t-160.5 42.5h-424v-324z" />
    <glyph glyph-name="Q" unicode="Q" horiz-adv-x="1841" 
d="M1667 682q0 -168 -67.5 -307t-190.5 -234l127 -198l-215 -115l-123 199q-158 -52 -301 -52q-221 0 -397 89t-275.5 250.5t-99.5 367.5q0 205 99.5 366t275.5 249.5t397 88.5q220 0 395.5 -88.5t275 -249.5t99.5 -366zM897 201q101 0 174 22l-194 301l213 115l190 -299
q135 138 135 342q0 214 -144 346.5t-374 132.5t-375 -133.5t-145 -345.5q0 -215 144.5 -348t375.5 -133z" />
    <glyph glyph-name="R" unicode="R" horiz-adv-x="1484" 
d="M952 598l463 -598h-313l-440 596h-195l-2 -598h-244v1362h670q216 0 341.5 -105t125.5 -276q0 -157 -108 -262.5t-298 -118.5zM467 1141v-324h424q103 0 160 44.5t57 119.5t-56.5 117.5t-160.5 42.5h-424z" />
    <glyph glyph-name="S" unicode="S" horiz-adv-x="1482" 
d="M754 -25q-175 0 -351.5 59t-285.5 134l143 176q103 -70 232.5 -106.5t263.5 -36.5q147 0 237 48t90 136q0 26 -10 48t-24 37t-41 28.5t-48 22t-59.5 17t-62 12.5t-66.5 11l-20 2q-3 1 -9.5 2t-9.5 2q-214 36 -336.5 88t-172.5 122.5t-50 176.5q0 97 37 173.5t96 124
t139.5 78.5t162 43.5t169.5 12.5q134 0 283 -45.5t282 -119.5l-151 -174q-207 114 -418 114q-170 0 -259 -51t-89 -143q0 -73 76 -112.5t276 -66.5q191 -30 282 -62q277 -97 277 -337q0 -186 -158.5 -300t-424.5 -114z" />
    <glyph glyph-name="T" unicode="T" horiz-adv-x="1359" 
d="M1290 1141h-485v-1141h-248v1141h-485v221h1218v-221z" />
    <glyph glyph-name="U" unicode="U" horiz-adv-x="1640" 
d="M821 -25q-140 0 -247 31.5t-177 86.5t-114.5 137t-63 176.5t-18.5 211.5v744h254v-744q0 -225 84.5 -321t281.5 -96q195 0 280 95.5t85 321.5v744h254v-744q0 -115 -18 -208.5t-62 -176t-113.5 -138.5t-177.5 -88t-248 -32z" />
    <glyph glyph-name="V" unicode="V" horiz-adv-x="1587" 
d="M1513 1362l-600 -1362h-239l-602 1362h272l449 -1045l448 1045h272z" />
    <glyph glyph-name="W" unicode="W" horiz-adv-x="2371" 
d="M2300 1362l-494 -1362h-262l-358 1006l-361 -1006h-262l-491 1362h266l356 -1030l365 1030h250l364 -1026l359 1026h268z" />
    <glyph glyph-name="X" unicode="X" horiz-adv-x="1587" 
d="M1202 0l-407 518l-410 -518h-313l565 698l-539 664h310l385 -490l387 490h311l-541 -664l566 -698h-314z" />
    <glyph glyph-name="Y" unicode="Y" horiz-adv-x="1597" 
d="M924 551v-551h-246v551l-606 811h307l422 -586l420 586h307z" />
    <glyph glyph-name="Z" unicode="Z" horiz-adv-x="1382" 
d="M1266 1192l-797 -971h782v-221h-1134v170l796 971h-772v221h1125v-170z" />
    <glyph glyph-name="bracketleft" unicode="[" horiz-adv-x="839" 
d="M463 1116v-1130h307v-219h-549v1566h549v-217h-307z" />
    <glyph glyph-name="backslash" unicode="\" horiz-adv-x="1214" 
d="M70 1423h260l819 -1513h-262z" />
    <glyph glyph-name="bracketright" unicode="]" horiz-adv-x="839" 
d="M616 -233h-546v219h305v1130h-305v217h546v-1566z" />
    <glyph glyph-name="underscore" unicode="_" horiz-adv-x="1200" 
d="M1087 -246h-974v203h974v-203z" />
    <glyph glyph-name="a" unicode="a" horiz-adv-x="1406" 
d="M1227 975v-975h-221v53q-106 -78 -322 -78q-147 0 -270 64t-196 182t-73 266t73 265.5t197 181t275 63.5q188 0 307 -84v62h230zM696 186q142 0 229 82.5t87 218.5t-87.5 220t-228.5 84t-228 -84.5t-87 -219.5t87 -218t228 -83z" />
    <glyph glyph-name="b" unicode="b" horiz-adv-x="1376" 
d="M719 997q233 0 390 -143t157 -367q0 -148 -72.5 -266t-195.5 -182t-271 -64q-192 0 -324 113v-88h-221v1423h230v-520q127 94 307 94zM713 186q141 0 229 83t88 218t-88 219.5t-229 84.5t-228.5 -84t-87.5 -220t87 -218.5t229 -82.5z" />
    <glyph glyph-name="c" unicode="c" horiz-adv-x="1216" 
d="M670 -25q-158 0 -284.5 64.5t-198.5 182t-72 265.5q0 223 158 366.5t397 143.5q118 0 229 -44t199 -128l-164 -153q-51 55 -120 87t-144 32q-142 0 -231 -84.5t-89 -219.5q0 -134 88.5 -217.5t233.5 -83.5q152 0 272 123l160 -155q-195 -179 -434 -179z" />
    <glyph glyph-name="d" unicode="d" horiz-adv-x="1378" 
d="M659 997q188 0 308 -94v520h229v-1423h-221v86q-127 -111 -324 -111q-146 0 -268 64t-195 182t-73 266t72.5 265.5t196.5 181t275 63.5zM668 186q140 0 227.5 82.5t87.5 218.5t-87.5 220t-227.5 84q-142 0 -229 -84.5t-87 -219.5t87 -218t229 -83z" />
    <glyph glyph-name="e" unicode="e" horiz-adv-x="1271" 
d="M1159 549q0 -63 -22 -154h-779q28 -100 110 -156.5t200 -56.5q161 0 303 127l145 -155q-94 -85 -209.5 -132t-236.5 -47q-243 0 -399 143.5t-156 373.5q0 224 150.5 364.5t389.5 140.5q122 0 220 -38t159 -101.5t93 -142.5t32 -166zM653 793q-114 0 -190.5 -50.5
t-102.5 -144.5h558q-13 85 -82.5 140t-182.5 55z" />
    <glyph glyph-name="f" unicode="f" horiz-adv-x="937" 
d="M502 975h379v-203h-379v-772h-230v772h-221v203h221v115q0 175 99.5 265.5t292.5 90.5q160 0 290 -96l-114 -174q-83 59 -181 59q-83 0 -120 -35t-37 -110v-115z" />
    <glyph glyph-name="g" unicode="g" horiz-adv-x="1259" 
d="M1102 791h-92q37 -73 37 -160q0 -165 -124.5 -266t-326.5 -101q-85 0 -154 17h-10q-74 0 -74 -48q0 -45 84 -45h174q275 0 405 -77t130 -238q0 -165 -131 -254.5t-397 -89.5q-262 0 -406.5 94.5t-144.5 241.5q0 141 116 211q-61 64 -61 155q0 118 102 175q-82 91 -82 225
q0 161 125.5 262t323.5 104q95 0 172 -22h399zM596 469q104 0 161.5 42.5t57.5 119.5q0 74 -58 118t-161 44q-102 0 -160.5 -43.5t-58.5 -118.5q0 -77 57.5 -119.5t161.5 -42.5zM920 -127q0 60 -67.5 83.5t-236.5 23.5h-213q-96 -35 -96 -109q0 -62 75.5 -98.5t240.5 -36.5
q297 0 297 137z" />
    <glyph glyph-name="h" unicode="h" horiz-adv-x="1318" 
d="M709 997q192 0 315 -111.5t123 -293.5v-592h-229v575q0 101 -63.5 158.5t-172.5 57.5q-107 0 -188.5 -60.5t-81.5 -163.5v-567h-230v1423h230v-495q99 69 297 69z" />
    <glyph glyph-name="i" unicode="i" horiz-adv-x="655" 
d="M328 1051q-62 0 -104 39t-42 96t42 95t104 38q59 0 102 -38.5t43 -94.5t-43 -95.5t-102 -39.5zM440 0h-229v975h229v-975z" />
    <glyph glyph-name="j" unicode="j" horiz-adv-x="659" 
d="M334 1053q-58 0 -102 38.5t-44 94.5t44 94.5t102 38.5q61 0 102 -37.5t41 -95.5q0 -57 -41.5 -95t-101.5 -38zM115 -471q-119 0 -234 63l119 181q70 -37 113 -37q52 0 76 23.5t24 74.5v1141h236v-1141q0 -305 -334 -305z" />
    <glyph glyph-name="k" unicode="k" horiz-adv-x="1239" 
d="M563 395l-151 -141v-254h-230v1423h230v-874l452 426h324l-463 -434l459 -541h-289z" />
    <glyph glyph-name="l" unicode="l" horiz-adv-x="593" 
d="M182 1423h230v-1423h-230v1423z" />
    <glyph glyph-name="m" unicode="m" horiz-adv-x="1992" 
d="M1395 997q188 0 307 -112t119 -293v-592h-230v575q0 100 -58.5 158t-156.5 58q-107 0 -183.5 -61.5t-76.5 -162.5v-567h-227v575q0 97 -59.5 155t-155.5 61q-104 -7 -183 -67t-79 -157v-567h-230v975h230v-47q93 63 262 69h20q106 0 195.5 -40.5t146.5 -114.5
q60 72 155.5 113.5t203.5 41.5z" />
    <glyph glyph-name="n" unicode="n" horiz-adv-x="1318" 
d="M709 997q192 0 315 -111.5t123 -293.5v-592h-229v575q0 101 -63.5 158.5t-172.5 57.5q-107 0 -188.5 -60.5t-81.5 -163.5v-567h-230v975h230v-47q99 69 297 69z" />
    <glyph glyph-name="o" unicode="o" horiz-adv-x="1335" 
d="M668 -25q-157 0 -283 64t-198 181.5t-72 266.5q0 224 157 367t396 143q157 0 284 -64t200 -181t73 -265q0 -225 -158.5 -368.5t-398.5 -143.5zM668 186q141 0 230 83t89 218t-88.5 219.5t-230.5 84.5t-230 -84.5t-88 -219.5t87.5 -218t230.5 -83z" />
    <glyph glyph-name="p" unicode="p" horiz-adv-x="1376" 
d="M719 -25q-175 0 -307 97v-543h-230v1446h221v-88q125 110 324 110q148 0 271 -64t195.5 -182t72.5 -266q0 -224 -157 -367t-390 -143zM713 791q-141 0 -228.5 -84t-87.5 -220t87 -218.5t229 -82.5q141 0 229 83t88 218t-88 219.5t-229 84.5z" />
    <glyph glyph-name="q" unicode="q" horiz-adv-x="1378" 
d="M659 -25q-151 0 -275 63.5t-196.5 181t-72.5 265.5t73 266t195 182t268 64q198 0 324 -110v88h221v-1446h-229v543q-128 -97 -308 -97zM668 791q-142 0 -229 -84.5t-87 -219.5t87 -218t229 -83q140 0 227.5 82.5t87.5 218.5t-87.5 220t-227.5 84z" />
    <glyph glyph-name="r" unicode="r" horiz-adv-x="942" 
d="M887 946l-27 -84l-33 -104l-41 16q-49 17 -104 17q-107 0 -188.5 -60.5t-81.5 -163.5v-567h-230v975h230v-47q99 69 297 69q85 0 184 -30z" />
    <glyph glyph-name="s" unicode="s" horiz-adv-x="1134" 
d="M575 -25q-118 0 -253 39.5t-224 104.5l115 176q64 -45 169 -77t196 -32q96 0 160.5 24.5t64.5 78.5q0 21 -17.5 37t-51.5 27t-71.5 19t-88.5 17q-4 0 -7 0.5t-6 1.5q-109 19 -177 38t-124 51.5t-81 81.5t-25 120t27 126.5t71 90t104 57.5t121 32t127 9q110 0 223 -32.5
t203 -87.5l-115 -175q-154 89 -315 89q-103 0 -158 -27.5t-55 -77.5q0 -33 39.5 -49.5t167.5 -38.5q66 -11 102 -18t90.5 -20.5t84.5 -27t66 -36.5t54.5 -50t31.5 -65.5t13 -85.5q0 -151 -126.5 -235.5t-334.5 -84.5z" />
    <glyph glyph-name="t" unicode="t" horiz-adv-x="1003" 
d="M881 41l-37 -16q-95 -50 -221 -50q-188 0 -287.5 92t-99.5 265v440h-207v203h207v276h229v-276h424v-203h-424v-440q0 -146 156 -146q86 0 163 33z" />
    <glyph glyph-name="u" unicode="u" horiz-adv-x="1306" 
d="M606 -25q-190 0 -312 112t-122 296v592h229v-578q0 -100 62 -155.5t174 -55.5q107 0 188.5 60.5t81.5 163.5v565h228v-975h-228v47q-106 -72 -301 -72z" />
    <glyph glyph-name="v" unicode="v" horiz-adv-x="1245" 
d="M1196 975l-461 -975h-223l-463 975h256l318 -692l317 692h256z" />
    <glyph glyph-name="w" unicode="w" horiz-adv-x="1794" 
d="M1745 975l-375 -975h-235l-238 655l-238 -655h-235l-375 975h248l246 -660l239 660h230l239 -660l246 660h248z" />
    <glyph glyph-name="x" unicode="x" horiz-adv-x="1257" 
d="M913 0l-282 340l-285 -340h-297l430 496l-413 479h292l273 -322l268 322h299l-418 -479l428 -496h-295z" />
    <glyph glyph-name="y" unicode="y" horiz-adv-x="1228" 
d="M1180 975l-666 -1446h-235l227 510l-457 936h256l320 -670l299 670h256z" />
    <glyph glyph-name="z" unicode="z" horiz-adv-x="1073" 
d="M969 203v-203h-887v160l551 612h-533v203h863v-160l-555 -612h561z" />
    <glyph glyph-name="braceleft" unicode="{" horiz-adv-x="956" 
d="M614 784q0 -155 -98 -231q98 -76 98 -234v-204q0 -74 36.5 -111t117.5 -37q28 0 119 15v-220q-78 -16 -133 -16q-186 0 -284.5 91t-98.5 265v205q0 70 -34 103.5t-106 33.5h-75v218h75q74 0 107 32.5t33 104.5v202q0 174 98 264.5t285 90.5q44 0 84 -4l49 -6v-228
q-80 17 -119 17q-81 0 -117.5 -36t-36.5 -110v-205z" />
    <glyph glyph-name="braceright" unicode="}" horiz-adv-x="956" 
d="M801 662v-218h-76q-73 0 -107 -33t-34 -104v-205q0 -174 -98 -265t-283 -91q-55 0 -133 16v220q88 -15 118 -15q81 0 115.5 36.5t34.5 111.5v204q0 157 102 234q-102 77 -102 231v205q0 74 -34.5 110t-115.5 36q-41 0 -118 -17v225l45 9q46 4 88 4q185 0 283 -90.5
t98 -264.5v-202q0 -72 33.5 -104.5t107.5 -32.5h76z" />
    <glyph glyph-name="asciitilde" unicode="~" horiz-adv-x="1134" 
d="M92 483l8 37q26 108 96 175t175 67q47 0 91 -13t120 -44l69 -27q84 -31 105 -31q8 0 12 2q41 8 66 125l206 -65q-67 -279 -276 -279q-78 0 -209 57l-68 27q-76 31 -102 31q-25 0 -43.5 -22t-26 -44.5t-18.5 -62.5z" />
    <glyph glyph-name="exclamdown" unicode="&#xa1;" 
d="M332 727q-59 0 -102.5 39.5t-43.5 93.5q0 57 43 95t103 38t101.5 -37.5t41.5 -95.5q0 -54 -42.5 -93.5t-100.5 -39.5zM217 590h227l17 -948h-258z" />
    <glyph glyph-name="cent" unicode="&#xa2;" horiz-adv-x="1261" 
d="M1126 168l-26 -31q-119 -132 -314 -155v-187h-229v197q-187 37 -299.5 170.5t-112.5 324.5q0 192 112 325.5t300 170.5v195h229v-187q186 -18 334 -178l-153 -147q-118 125 -267 125q-140 0 -228.5 -84.5t-88.5 -219.5q0 -134 88.5 -217.5t228.5 -83.5q152 0 271 131z
" />
    <glyph glyph-name="sterling" unicode="&#xa3;" horiz-adv-x="1349" 
d="M524 217h688v-217h-1099v217h168v340h-168v219h168v115q0 206 145.5 336.5t368.5 130.5q129 0 242.5 -55t197.5 -156l-199 -127q-95 115 -241 115q-119 0 -195 -67.5t-76 -176.5v-115h529v-219h-529v-340z" />
    <glyph glyph-name="yen" unicode="&#xa5;" horiz-adv-x="1566" 
d="M1079 776h224v-203h-371l-27 -34v-64h398v-203h-398v-272h-239v272h-400v203h400v62l-29 36h-371v203h219l-413 557h303l409 -573l412 573h301z" />
    <glyph glyph-name="copyright" unicode="&#xa9;" horiz-adv-x="1880" 
d="M938 -25q-215 0 -388 87.5t-271.5 246t-98.5 359.5q0 150 57.5 278.5t158.5 218t241 140.5t301 51q162 0 302.5 -51t241.5 -140.5t158.5 -218t57.5 -278.5q0 -201 -98.5 -359.5t-272 -246t-389.5 -87.5zM938 164q243 0 398 140.5t155 363.5q0 221 -155.5 361t-397.5 140
q-238 0 -393.5 -140.5t-155.5 -360.5q0 -223 154.5 -363.5t394.5 -140.5zM944 268q-188 0 -310 113t-122 287q0 173 123 286t311 113q111 0 208.5 -55.5t160.5 -149.5l-168 -108q-81 125 -201 125q-99 0 -161 -59t-62 -152q0 -95 61.5 -154t159.5 -59q129 0 209 127
l170 -105q-66 -99 -166 -154t-213 -55z" />
    <glyph glyph-name="registered" unicode="&#xae;" horiz-adv-x="1214" 
d="M610 1346q223 0 369.5 -133.5t146.5 -342.5q0 -208 -146.5 -340.5t-369.5 -132.5q-226 0 -373 132.5t-147 340.5q0 209 147 342.5t373 133.5zM872 649q89 89 89 221q0 140 -99 230t-252 90q-113 0 -196 -47h221q95 0 152 -49t57 -129q0 -114 -101 -158zM256 870
q0 -158 121 -249v497q-57 -42 -89 -106.5t-32 -141.5zM543 936h92q43 0 43 29q0 24 -43 24h-92v-53zM410 600q87 -49 200 -49q110 0 197 49h-107l-143 184h-14v-184h-133z" />
    <glyph glyph-name="periodcentered" unicode="&#xb7;" horiz-adv-x="667" 
d="M334 442q-63 0 -107.5 41t-44.5 99q0 57 44.5 99t107.5 42t107 -42t44 -99q0 -58 -44 -99t-107 -41z" />
    <glyph glyph-name="questiondown" unicode="&#xbf;" horiz-adv-x="1226" 
d="M625 727q-62 0 -104 39t-42 94q0 58 41.5 95.5t104.5 37.5q60 0 101.5 -38t41.5 -95q0 -54 -41.5 -93.5t-101.5 -39.5zM623 -381q-213 0 -338 110.5t-125 303.5q0 53 9.5 91.5t41.5 84.5t68.5 85t115.5 116q80 77 97.5 103.5t17.5 76.5h229v-64q0 -80 -25.5 -121
t-138.5 -151l-16 -14q-15 -15 -18 -17q-80 -77 -105.5 -112t-25.5 -84q0 -87 59 -138t162 -51q176 0 299 178l182 -135q-89 -127 -213 -194.5t-276 -67.5z" />
    <glyph glyph-name="multiply" unicode="&#xd7;" horiz-adv-x="1138" 
d="M113 266l301 273l-301 274l153 143l305 -274l303 274l156 -143l-305 -274l305 -273l-156 -139l-303 272l-305 -274z" />
    <glyph glyph-name="divide" unicode="&#xf7;" horiz-adv-x="1169" 
d="M586 715q-60 0 -103 40.5t-43 94.5q0 57 43 96t103 39q59 0 102 -39.5t43 -95.5q0 -54 -43.5 -94.5t-101.5 -40.5zM92 641h983v-203h-983v203zM586 94q-60 0 -103 40.5t-43 96.5q0 54 43 94t103 40q58 0 101.5 -40t43.5 -94q0 -55 -43 -96t-102 -41z" />
    <glyph glyph-name="endash" unicode="&#x2013;" horiz-adv-x="1181" 
d="M1071 641v-201h-958v201h958z" />
    <glyph glyph-name="emdash" unicode="&#x2014;" horiz-adv-x="1859" 
d="M1747 641v-201h-1634v201h1634z" />
    <glyph glyph-name="quoteleft" unicode="&#x2018;" 
d="M307 1378h205l-68 -538h-262z" />
    <glyph glyph-name="quoteright" unicode="&#x2019;" 
d="M217 1378h260l-123 -538h-207z" />
    <glyph glyph-name="quotesinglbase" unicode="&#x201a;" 
d="M217 258h260l-123 -539h-207z" />
    <glyph glyph-name="quotedblleft" unicode="&#x201c;" horiz-adv-x="1019" 
d="M307 1378h205l-68 -538h-262zM670 1378h200l-67 -538h-262z" />
    <glyph glyph-name="quotedblright" unicode="&#x201d;" horiz-adv-x="1019" 
d="M217 1378h260l-123 -538h-207zM575 1378h261l-125 -538h-201z" />
    <glyph glyph-name="quotedblbase" unicode="&#x201e;" horiz-adv-x="1019" 
d="M217 258h260l-123 -539h-207zM575 258h261l-125 -539h-201z" />
    <glyph glyph-name="bullet" unicode="&#x2022;" horiz-adv-x="894" 
d="M449 303q-110 0 -188.5 71.5t-78.5 172.5t78 171t189 70q110 0 187 -70t77 -171t-77 -172.5t-187 -71.5z" />
    <glyph glyph-name="ellipsis" unicode="&#x2026;" horiz-adv-x="1454" 
d="M297 -20q-63 0 -106.5 40.5t-43.5 98.5q0 59 43 99t107 40q63 0 107.5 -40.5t44.5 -98.5t-44.5 -98.5t-107.5 -40.5zM725 -20q-62 0 -104.5 40.5t-42.5 98.5q0 59 41 99t106 40q62 0 108 -40.5t46 -98.5t-46 -98.5t-108 -40.5zM1153 -20q-63 0 -106 40t-43 99t42.5 99
t106.5 40q62 0 108 -40.5t46 -98.5t-46 -98.5t-108 -40.5z" />
    <glyph glyph-name="Euro" unicode="&#x20ac;" horiz-adv-x="1595" 
d="M1456 221l-29 -28q-90 -101 -218 -159.5t-281 -58.5q-229 0 -401 119.5t-242 321.5h-195v202h154v50v47h-154v205h195q71 201 244.5 318.5t400.5 117.5q304 0 512 -242l-170 -162q-155 183 -344 183q-124 0 -222 -57.5t-155 -157.5h575v-205h-632q-2 -14 -2 -47
q0 -27 2 -50h632v-202h-577q57 -101 155.5 -159t223.5 -58q196 0 352 172z" />
    <glyph glyph-name="minus" unicode="&#x2212;" horiz-adv-x="1169" 
d="M92 641h983v-203h-983v203z" />
    <glyph glyph-name="a.alt" horiz-adv-x="1273" 
d="M653 997q213 0 326 -102t113 -303v-592h-218v90q-139 -115 -342 -115q-102 0 -188.5 36t-142.5 112t-56 178q0 84 38 148.5t102.5 102.5t141 56.5t161.5 18.5q143 0 278 -33q0 96 -60 146.5t-171 50.5q-80 0 -170.5 -29.5t-171.5 -85.5l-105 168q92 70 214.5 111.5
t250.5 41.5zM557 188q111 0 202.5 59t104.5 150q-121 33 -254 33q-104 0 -166.5 -30.5t-62.5 -94.5q0 -56 48 -86.5t128 -30.5z" />
    <glyph glyph-name="_FSHallmark" horiz-adv-x="2007" 
d="M188 1606h1678v-197h-1678v197zM1649 1034q0 19 -15 45q-18 21 -37 35q-35 18 -47 21q-5 1 -23 3.5t-26 2.5q-48 0 -96 -25q-41 -25 -41 -59q0 -61 37 -82q57 -28 90 -35l133 -31q33 -11 59 -14q13 -1 50 -12q5 -3 20.5 -11t22.5 -12q42 -25 63 -55q22 -40 25 -88
q3 -52 -21 -101q-51 -83 -147 -118q-102 -31 -191 -31q-79 0 -137 18q-53 14 -117 56q-51 36 -86 96q-30 56 -30 131l194 -4q0 -10 8 -29q3 -30 29 -53q22 -22 51 -35q35 -18 94 -18q67 0 107 24q41 18 41 52q0 59 -160 94q-154 39 -246 88q-100 53 -100 168q0 97 66 151
q66 53 147 80q73 17 139 17q101 0 191 -37q89 -38 133 -133q22 -55 22 -99h-202zM410 467h-222v833h707v-190h-485v-186h403v-187h-403v-270zM877 567q0 44 28 72q27 27 72 27q40 0 80 -29q33 -26 33 -70q0 -40 -33 -69q-37 -27 -80 -27q-39 0 -70 31q-30 27 -30 65z
M184 362h1680v-198h-1680v198z" />
    <glyph glyph-name="_Fontastica" horiz-adv-x="2007" 
d="M580 301h-232q-2 4 -2 10v1360h1018v-209h-784v-559h786v-211h-786v-391zM727 1282h789v389h231v-1366h-1020v207h789v559h-789v211zM1516 168q-15 -8 -15 -21q0 -18 10 -28q10 -13 25 -13q17 0 37 13l12 -13q-19 -22 -49 -22q-22 0 -43 12q-12 15 -18 43q-3 26 16 45
q21 21 45 21q28 0 49 -21l-12 -16q-1 2 -5.5 5t-6.5 5q-2 4 -19 4h-6q-18 -7 -20 -14zM348 203h86v-21h-55v-32h53v-19h-53v-45h-31v117zM541 203q37 0 59 -31q16 -23 4 -53q-13 -32 -51 -35l-14 -6q-17 0 -25 8q-37 15 -37 51q0 31 19 47q14 19 45 19zM766 86h-6
q-4 -2 -8 -2q-10 0 -19 12l-12 17q-1 3 -5 8t-5 8l-25 29v-72h-27v117h23q8 -2 12 -17q23 -23 27 -28q3 -4 10 -16.5t12 -18.5v80h23v-117zM817 203h98v-21h-36v-96h-25v96h-37v21zM1182 147q24 -3 24 -26q3 -25 -20 -35q-4 -2 -23 -2q-40 0 -55 18q2 2 2 4l2 5q0 4 4 8
l37 -13h16q7 9 9 7q0 18 -27 24q-4 0 -6 2t-10 2q-19 5 -19 27q-5 18 17 31q12 4 26 4q29 0 47 -10l-10 -21q-4 2 -8 2q-2 0 -6 2q-2 2 -8 2q-3 0 -5 4h-16q-8 0 -8 -8q-4 -4 8 -16q11 -2 29 -11zM1245 203h103v-21h-37v-96h-27v96h-39v21zM1395 203h30v-117h-30v117z
M1704 203l25 -56q1 -4 12 -32q9 -22 14 -29h-26l-11 25h-57l-10 -25h-27q33 64 47 117h33zM1018 199q4 -14 12 -27q3 -4 7.5 -14.5t6.5 -12.5q1 -3 5.5 -14t5.5 -16t5 -15.5t5 -13.5h-27q-2 2 -2 10q0 1 -1 3t-2.5 5.5t-2.5 6.5h-53q-2 -4 -2 -15q-2 -2 -2 -4l-6 -6h-25
l49 113h27zM575 145q0 16 -8 27q-13 10 -28 10q-4 -4 -9 -4q-12 -3 -22 -18q-12 -15 -2 -29q9 -27 35 -27q8 0 10 2q24 6 24 35v4zM1022 131q-1 1 -2 5t-2 5q-2 2 -3.5 6t-2.5 5q-2 4 -2 12q-2 1 -3.5 5t-2.5 5l-21 -43h39zM1706 131q-2 2 -2 10q-5 11 -6 11q-1 2 -2 6t-2 6
q-1 1 -2.5 5t-3.5 5l-19 -43h37z" />
    </font>
</defs>
</svg>
