<?xml version="1.0" standalone="no"?>
<!DOCTYPE svg PUBLIC "-//W3C//DTD SVG 1.1//EN" "http://www.w3.org/Graphics/SVG/1.1/DTD/svg11.dtd" >
<svg xmlns="http://www.w3.org/2000/svg" xmlns:xlink="http://www.w3.org/1999/xlink" version="1.1">
<metadata>
Created by FontForge 20170731 at Wed Dec 21 18:53:27 2022
 By Aleksey,,,
Copyright (c) 2019 by Fontastica. All rights reserved.
</metadata>
<defs>
<font id="Brooklyn-Heavy" horiz-adv-x="696" >
  <font-face 
    font-family="Brooklyn Heavy"
    font-weight="900"
    font-stretch="normal"
    units-per-em="2048"
    panose-1="0 0 10 0 0 0 0 0 0 0"
    ascent="1638"
    descent="-410"
    x-height="975"
    cap-height="1362"
    bbox="-119 -453 2292 1671"
    underline-thickness="102"
    underline-position="-307"
    unicode-range="U+0020-2212"
  />
<missing-glyph horiz-adv-x="980" 
 />
    <glyph glyph-name=".notdef" horiz-adv-x="980" 
 />
    <glyph glyph-name=".null" horiz-adv-x="0" 
 />
    <glyph glyph-name="nonmarkingreturn" horiz-adv-x="682" 
 />
    <glyph glyph-name="space" unicode=" " horiz-adv-x="499" 
 />
    <glyph glyph-name="exclam" unicode="!" horiz-adv-x="690" 
d="M203 1319h289l-17 -948h-258zM346 -20q-65 0 -112.5 44t-47.5 105q0 62 47.5 106t112.5 44t111.5 -43.5t46.5 -106.5q0 -61 -46.5 -105t-111.5 -44z" />
    <glyph glyph-name="quotedbl" unicode="&#x22;" horiz-adv-x="813" 
d="M113 1362h278l-18 -557h-246zM422 1362h278l-16 -557h-246z" />
    <glyph glyph-name="numbersign" unicode="#" horiz-adv-x="1474" 
d="M1120 768l-47 -207h225l-49 -233h-231l-78 -328h-272l77 328h-180l-73 -328h-275l76 328h-223l53 233h225l47 207h-221l51 236h228l73 315h273l-74 -315h178l74 315h278l-77 -315h227l-53 -236h-232zM850 768h-182l-47 -207h180z" />
    <glyph glyph-name="dollar" unicode="$" horiz-adv-x="1421" 
d="M606 -213v199q-131 19 -264.5 70.5t-224.5 111.5l143 225q105 -74 234 -119t245 -45q129 0 209 39t80 115q0 22 -9 40t-31 32t-41 23.5t-56.5 18.5t-59.5 14t-67 13l-23 4q-12 0 -24 4q-300 55 -420.5 139.5t-120.5 246.5q0 354 430 413v201h273v-197q189 -15 421 -145
l-135 -213q-204 110 -391 110q-319 0 -319 -161q0 -56 63.5 -85.5t247.5 -60.5q185 -29 272 -59q270 -95 271 -336q0 -166 -111.5 -269.5t-318.5 -129.5v-199h-273z" />
    <glyph glyph-name="percent" unicode="%" horiz-adv-x="1955" 
d="M1288 1341h309l-942 -1366h-309zM504 567q-177 0 -294.5 107t-117.5 274t118 275t294 108q179 0 296.5 -107.5t117.5 -275.5t-117 -274.5t-297 -106.5zM504 801q69 0 111 40.5t42 106.5t-42 106t-111 40q-70 0 -111 -39t-41 -107q0 -66 41.5 -106.5t110.5 -40.5z
M1448 -14q-179 0 -294.5 107.5t-115.5 277.5q0 167 115.5 274t294.5 107t296.5 -107t117.5 -274q0 -169 -117 -277t-297 -108zM1448 221q70 0 112 41t42 109q0 66 -42 105.5t-112 39.5q-68 0 -109 -39t-41 -106t41 -108.5t109 -41.5z" />
    <glyph glyph-name="ampersand" unicode="&#x26;" horiz-adv-x="1691" 
d="M604 -25q-192 0 -318 107.5t-126 273.5q0 195 164 316l61 43l-43 39q-111 100 -111 243q0 148 114 246t288 98q166 0 277.5 -94.5t111.5 -242.5q0 -81 -37.5 -152t-103.5 -117l-70 -49l176 -158l250 260l125 -258l-178 -178l391 -352h-393l-181 160l-49 -49
q-60 -62 -149.5 -99t-198.5 -37zM612 864l101 70q28 25 28 67q0 39 -29 62.5t-77 23.5q-56 0 -89.5 -24.5t-33.5 -65.5q0 -46 25 -65zM602 229q92 0 148 52l53 57l-219 197l-88 -66q-56 -38 -56 -113q0 -57 44 -92t118 -35z" />
    <glyph glyph-name="quotesingle" unicode="'" horiz-adv-x="501" 
d="M113 1362h278l-18 -557h-246z" />
    <glyph glyph-name="parenleft" unicode="(" horiz-adv-x="987" 
d="M778 -260l-53 18q-251 97 -399 305.5t-148 485.5q0 276 163 490t437 319l96 -236q-195 -78 -305 -229.5t-110 -343.5q0 -193 110.5 -345.5t304.5 -230.5z" />
    <glyph glyph-name="parenright" unicode=")" horiz-adv-x="985" 
d="M113 -29l53 25q168 68 263 214t95 339q0 192 -109.5 343t-301.5 228l94 238q275 -105 436.5 -318.5t161.5 -490.5q0 -278 -161.5 -492t-436.5 -319z" />
    <glyph glyph-name="asterisk" unicode="*" horiz-adv-x="1054" 
d="M729 940l139 -160l-213 -141l-129 170l-127 -170l-213 141l140 160l-213 59l84 228l211 -70l-7 205h254l-8 -205l213 70l82 -230z" />
    <glyph glyph-name="plus" unicode="+" horiz-adv-x="1169" 
d="M1075 420h-366v-334h-246v334h-371v235h371v334h246v-334h366v-235z" />
    <glyph glyph-name="comma" unicode="," horiz-adv-x="684" 
d="M209 289h295l-129 -557h-236z" />
    <glyph glyph-name="hyphen" unicode="-" horiz-adv-x="901" 
d="M791 655v-233h-678v233h678z" />
    <glyph glyph-name="period" unicode="." 
d="M348 -20q-69 0 -117.5 45.5t-48.5 109.5q0 65 47.5 109.5t118.5 44.5q69 0 117.5 -45t48.5 -109t-48.5 -109.5t-117.5 -45.5z" />
    <glyph glyph-name="slash" unicode="/" horiz-adv-x="1239" 
d="M874 1407h300l-807 -1493h-297z" />
    <glyph glyph-name="zero" unicode="0" horiz-adv-x="1529" 
d="M766 -25q-129 0 -241 49t-192.5 136t-126.5 212t-46 271q0 194 78.5 346t216.5 235t311 83t311 -83.5t216.5 -235.5t78.5 -345t-78.5 -346t-217 -237.5t-310.5 -84.5zM766 229q142 0 235 116t93 298t-93 297t-235 115q-143 0 -234.5 -115t-91.5 -297q0 -184 91.5 -299
t234.5 -115z" />
    <glyph glyph-name="one" unicode="1" horiz-adv-x="808" 
d="M594 1286v-1286h-272v952l-252 -96v270l415 160h109z" />
    <glyph glyph-name="two" unicode="2" horiz-adv-x="1269" 
d="M164 0v141l-27 31l555 508q59 57 86 99.5t27 94.5q0 84 -53 132.5t-146 48.5q-78 0 -150.5 -47t-129.5 -134l-211 154q87 133 218 206t277 73q208 0 342.5 -117t134.5 -320q0 -112 -45.5 -194.5t-152.5 -181.5l-266 -244h487v-250h-946z" />
    <glyph glyph-name="three" unicode="3" horiz-adv-x="1333" 
d="M1012 659q162 -108 162 -278q0 -180 -153.5 -293t-399.5 -113q-155 0 -286 60.5t-220 161.5l188 176q127 -144 315 -144q126 0 200.5 42t74.5 112q0 65 -70.5 104t-193.5 39h-262v252h256q109 0 173 36t64 97q0 65 -64.5 104.5t-181.5 39.5q-176 0 -274 -135l-209 153
q79 110 206 172t277 62q231 0 378 -109t147 -283q0 -151 -127 -256z" />
    <glyph glyph-name="four" unicode="4" horiz-adv-x="1280" 
d="M1184 260h-221v-260h-275v260h-600v182l504 844h315l-465 -776h246v385h275v-385h221v-250z" />
    <glyph glyph-name="five" unicode="5" horiz-adv-x="1306" 
d="M631 836q239 0 385.5 -118.5t146.5 -309.5q0 -192 -147 -312.5t-385 -120.5q-161 0 -291 71t-207 192l193 182q114 -191 303 -191q119 0 188.5 48.5t69.5 130.5q0 80 -69 127t-187 47q-120 0 -230 -74l-159 151l37 627h821v-252h-561l-11 -205q58 7 103 7z" />
    <glyph glyph-name="six" unicode="6" horiz-adv-x="1351" 
d="M684 -25q-229 0 -377.5 128t-148.5 333q0 116 69 223l426 627h326l-277 -418h19q218 0 355.5 -121t137.5 -303q0 -213 -148.5 -341t-381.5 -128zM684 229q115 0 182.5 56.5t67.5 154.5q0 78 -67 126t-181 48q-113 0 -181.5 -49.5t-68.5 -126.5q0 -96 67.5 -152.5
t180.5 -56.5z" />
    <glyph glyph-name="seven" unicode="7" horiz-adv-x="1114" 
d="M1059 1286v-184l-613 -1102h-307l572 1034h-654v252h1002z" />
    <glyph glyph-name="eight" unicode="8" horiz-adv-x="1425" 
d="M1108 659q160 -108 160 -278q0 -180 -154.5 -293t-396.5 -113q-248 0 -402.5 113.5t-154.5 292.5q0 177 153 278q-118 92 -118 256q0 174 144.5 283t373.5 109t372.5 -109t143.5 -285q0 -161 -121 -254zM713 1055q-111 0 -174.5 -38.5t-63.5 -103.5q0 -62 61.5 -97.5
t176.5 -35.5q112 0 174.5 33.5t62.5 97.5q0 65 -61 104.5t-176 39.5zM717 229q124 0 197 42.5t73 111.5q0 65 -72 104t-198 39q-131 0 -204 -39.5t-73 -105.5q0 -68 75.5 -110t201.5 -42z" />
    <glyph glyph-name="nine" unicode="9" horiz-adv-x="1351" 
d="M350 0l295 414h-12q-222 0 -360 123t-138 317q0 201 149.5 325t379.5 124q232 0 382 -124t150 -319q0 -129 -86 -250l-432 -610h-328zM659 668q118 0 186 51.5t68 138.5v2q0 85 -68 137t-181 52t-181.5 -52.5t-68.5 -138.5q0 -89 66 -139.5t179 -50.5z" />
    <glyph glyph-name="colon" unicode=":" 
d="M348 686q-69 0 -117.5 46.5t-48.5 109.5q0 65 48 109t118 44t118 -44t48 -109q0 -63 -48.5 -109.5t-117.5 -46.5zM348 -20q-69 0 -117.5 45.5t-48.5 109.5t48.5 109t117.5 45t117.5 -45t48.5 -109t-48.5 -109.5t-117.5 -45.5z" />
    <glyph glyph-name="semicolon" unicode=";" horiz-adv-x="688" 
d="M340 686q-68 0 -116 46t-48 110q0 66 47.5 109.5t116.5 43.5q66 0 116 -44t50 -109q0 -62 -50.5 -109t-115.5 -47zM209 289h295l-129 -557h-236z" />
    <glyph glyph-name="less" unicode="&#x3c;" horiz-adv-x="1062" 
d="M973 758l-531 -219l531 -215v-273l-885 371v235l885 369v-268z" />
    <glyph glyph-name="equal" unicode="=" horiz-adv-x="1169" 
d="M92 827h983v-233h-983v233zM92 487h983v-233h-983v233z" />
    <glyph glyph-name="greater" unicode="&#x3e;" horiz-adv-x="1052" 
d="M975 657v-235l-885 -371v273l533 215l-533 219v268z" />
    <glyph glyph-name="question" unicode="?" horiz-adv-x="1236" 
d="M481 371v90q0 71 31 118.5t133 145.5l37 37q71 68 94 98.5t23 69.5q0 74 -50.5 115.5t-140.5 41.5q-158 0 -282 -174l-211 152q93 134 219.5 205t277.5 71q214 0 339.5 -111t125.5 -306q0 -53 -10.5 -93.5t-42 -86t-68.5 -85.5t-110 -110q-68 -65 -85.5 -95t-17.5 -83
h-262zM612 -20q-67 0 -113 44t-46 105q0 63 46 106.5t113 43.5q66 0 112 -43.5t46 -106.5q0 -62 -46 -105.5t-112 -43.5z" />
    <glyph glyph-name="at" unicode="@" horiz-adv-x="2117" 
d="M1487 90h-232v27q-90 -45 -251 -45q-131 0 -241 58t-175.5 163t-65.5 235q0 201 140.5 329t347.5 128q143 0 237 -51v37h240q-173 143 -424 143q-179 0 -322.5 -75t-225 -210.5t-81.5 -306.5q0 -174 80 -311.5t225 -214t330 -76.5q217 0 428 156l168 -178
q-290 -205 -596 -205q-193 0 -359 62.5t-282.5 172t-183 264t-66.5 332.5t68 331t186 259t281.5 166.5t349.5 60.5q188 0 352.5 -63.5t277.5 -170t177.5 -249.5t64.5 -299q0 -217 -116 -343t-332 -126zM1683 559q0 121 -51 227.5t-143 182.5v-654q94 9 144 76t50 168z
M1012 299q110 0 177.5 63t67.5 166t-67.5 167.5t-177.5 64.5q-107 0 -174.5 -64.5t-67.5 -167.5q0 -102 67 -165.5t175 -63.5z" />
    <glyph glyph-name="A" unicode="A" horiz-adv-x="1654" 
d="M1130 311h-602l-147 -311h-309l624 1362h262l625 -1362h-309zM1018 565l-189 428l-184 -428h373z" />
    <glyph glyph-name="B" unicode="B" horiz-adv-x="1542" 
d="M1364 973q0 -76 -26.5 -147.5t-69.5 -118.5q38 -46 67 -125t29 -148q0 -84 -33 -162t-92.5 -138.5t-150 -97t-197.5 -36.5h-670v1362h670q218 0 345.5 -107.5t127.5 -281.5zM905 834q86 0 131 35.5t45 103.5q0 63 -49 98t-141 35h-391v-272h405zM891 256q88 0 139 53
t51 125q0 139 -176 139h-405v-317h391z" />
    <glyph glyph-name="C" unicode="C" horiz-adv-x="1781" 
d="M877 -25q-215 3 -386.5 93t-268.5 250.5t-97 363.5q0 205 99 366t274.5 249.5t396.5 88.5q244 0 442.5 -134t298.5 -363l-305 -2q-66 113 -180.5 176t-255.5 63q-215 0 -350 -123.5t-135 -320.5q0 -115 53 -221q62 -95 172.5 -156.5t236.5 -68.5h31q132 7 250 68t176 171
l313 -2q-69 -141 -73 -147q-120 -176 -279 -259.5t-379 -91.5h-34z" />
    <glyph glyph-name="D" unicode="D" horiz-adv-x="1675" 
d="M782 1362q221 0 394.5 -82.5t273.5 -238t100 -359.5q0 -205 -100 -361t-273.5 -238.5t-394.5 -82.5h-561v1362h561zM782 258q221 0 353.5 116t132.5 308q0 191 -132.5 306.5t-353.5 115.5h-282v-846h282z" />
    <glyph glyph-name="E" unicode="E" horiz-adv-x="1427" 
d="M1300 256v-256h-1079v1362h1065v-256h-786v-291h676v-254h-676v-305h800z" />
    <glyph glyph-name="F" unicode="F" horiz-adv-x="1398" 
d="M500 0h-279v1362h1065v-256h-786v-291h676v-254h-676v-561z" />
    <glyph glyph-name="G" unicode="G" horiz-adv-x="1740" 
d="M934 -25h-57q-215 3 -386.5 93t-268.5 250.5t-97 363.5q0 205 99 366t274.5 249.5t396.5 88.5q244 0 442.5 -134t298.5 -363l-305 -2q-66 113 -180.5 176t-255.5 63q-215 0 -350 -123.5t-135 -320.5q0 -115 53 -221q62 -95 172.5 -156.5t236.5 -68.5h23q99 0 192.5 33
t165.5 98l2 4q67 73 95 151l-512 2v252h813l6 -53q4 -28 4 -72q-9 -199 -115 -364l-6 -6q-51 -64 -74 -84l-12 -15q-164 -151 -416 -196l-39 -6q-20 0 -65 -5z" />
    <glyph glyph-name="H" unicode="H" horiz-adv-x="1693" 
d="M1473 1362v-1362h-283v561h-690v-561h-279v1362h279v-547h690v547h283z" />
    <glyph glyph-name="I" unicode="I" horiz-adv-x="722" 
d="M500 0h-279v1362h279v-1362z" />
    <glyph glyph-name="J" unicode="J" horiz-adv-x="1441" 
d="M961 1362h278v-741q0 -115 -17.5 -209t-59 -176.5t-107.5 -139t-167 -89t-233 -32.5q-149 0 -259.5 44.5t-178 129.5t-102.5 196t-43 255h274q13 -195 86 -279.5t223 -84.5q164 0 235 88.5t71 296.5v741z" />
    <glyph glyph-name="K" unicode="K" horiz-adv-x="1601" 
d="M670 543l-170 -172v-371h-279v1362h279v-604l604 604h375l-615 -623l666 -739h-367z" />
    <glyph glyph-name="L" unicode="L" horiz-adv-x="1304" 
d="M1231 256v-256h-1010v1362h279v-1106h731z" />
    <glyph glyph-name="M" unicode="M" horiz-adv-x="1994" 
d="M1774 0h-279v862l-373 -727h-250l-372 727v-862h-279v1362h336l440 -866l443 866h334v-1362z" />
    <glyph glyph-name="N" unicode="N" horiz-adv-x="1654" 
d="M1432 1362v-1362h-232l-700 874v-874h-279v1362h236l696 -873v873h279z" />
    <glyph glyph-name="O" unicode="O" horiz-adv-x="1785" 
d="M895 -25q-221 0 -396.5 89t-274.5 250.5t-99 367.5q0 205 99 366t274.5 249.5t396.5 88.5q219 0 393.5 -88.5t273.5 -249.5t99 -366q0 -206 -99 -367.5t-273.5 -250.5t-393.5 -89zM895 236q214 0 347.5 124t133.5 322t-133.5 321t-347.5 123q-215 0 -350 -123.5
t-135 -320.5q0 -199 134.5 -322.5t350.5 -123.5z" />
    <glyph glyph-name="P" unicode="P" horiz-adv-x="1480" 
d="M500 578l-2 -580h-277v1362h670q218 0 345.5 -107.5t127.5 -281.5q0 -172 -128 -282.5t-345 -110.5h-391zM500 834h391q91 0 140.5 37.5t49.5 101.5q0 63 -49 98t-141 35h-391v-272z" />
    <glyph glyph-name="Q" unicode="Q" horiz-adv-x="1835" 
d="M1661 682q0 -163 -63.5 -298t-180.5 -230l127 -197l-246 -131l-120 197q-146 -48 -283 -48q-221 0 -396.5 89t-274.5 250.5t-99 367.5q0 205 99 366t274.5 249.5t396.5 88.5q219 0 393.5 -88.5t273.5 -249.5t99 -366zM895 236q78 0 135 14l-184 287l241 131l181 -285
q108 124 108 299q0 198 -133.5 321t-347.5 123q-215 0 -350 -123.5t-135 -320.5q0 -199 134.5 -322.5t350.5 -123.5z" />
    <glyph glyph-name="R" unicode="R" horiz-adv-x="1511" 
d="M989 584l453 -584h-357l-428 578h-157l-2 -580h-277v1362h670q218 0 345.5 -107.5t127.5 -281.5q0 -156 -97.5 -261t-277.5 -126zM500 1106v-272h391q91 0 140.5 37.5t49.5 101.5q0 63 -49 98t-141 35h-391z" />
    <glyph glyph-name="S" unicode="S" horiz-adv-x="1507" 
d="M764 -25q-172 0 -352.5 62t-294.5 141l166 203q105 -72 230.5 -108.5t252.5 -36.5q134 0 215.5 41t81.5 116q0 25 -10.5 45t-33.5 35t-45.5 25.5t-60 19.5t-64 14.5t-69.5 12.5l-22 2q-2 0 -4.5 1t-3.5 1q-7 0 -11 2q-308 53 -432.5 144t-124.5 251q0 99 36.5 177t96 126
t140.5 80t162.5 44.5t170.5 12.5q132 0 284.5 -49t295.5 -127l-174 -200q-208 116 -410 116q-154 0 -235.5 -44.5t-81.5 -123.5q0 -60 69.5 -93.5t254.5 -59.5q189 -30 279 -61q281 -100 282 -347q0 -189 -160 -305.5t-428 -116.5z" />
    <glyph glyph-name="T" unicode="T" horiz-adv-x="1363" 
d="M1294 1106h-471v-1106h-280v1106h-471v256h1222v-256z" />
    <glyph glyph-name="U" unicode="U" horiz-adv-x="1644" 
d="M823 -25q-140 0 -247.5 31.5t-178 87.5t-115 138.5t-63 177t-18.5 211.5v741h286v-741q0 -207 78 -296t258 -89q178 0 256 88.5t78 296.5v741h287v-741q0 -115 -18 -208.5t-62.5 -177t-114 -139.5t-177.5 -88.5t-249 -32.5z" />
    <glyph glyph-name="V" unicode="V" horiz-adv-x="1607" 
d="M1534 1362l-600 -1362h-260l-602 1362h309l422 -981l422 981h309z" />
    <glyph glyph-name="W" unicode="W" horiz-adv-x="2363" 
d="M2292 1362l-494 -1362h-282l-334 936l-336 -936h-283l-491 1362h301l332 -959l339 959h271l340 -954l332 954h305z" />
    <glyph glyph-name="X" unicode="X" horiz-adv-x="1630" 
d="M1202 0l-387 489l-387 -489h-356l565 698l-539 664h353l362 -463l367 463h354l-541 -664l566 -698h-357z" />
    <glyph glyph-name="Y" unicode="Y" horiz-adv-x="1634" 
d="M958 549v-549h-278v549l-608 813h350l397 -553l398 553h348z" />
    <glyph glyph-name="Z" unicode="Z" horiz-adv-x="1388" 
d="M1272 1169l-750 -913h735v-256h-1140v193l749 913h-725v256h1131v-193z" />
    <glyph glyph-name="bracketleft" unicode="[" horiz-adv-x="858" 
d="M494 1071v-1044h294v-250h-567v1542h567v-248h-294z" />
    <glyph glyph-name="backslash" unicode="\" horiz-adv-x="1239" 
d="M70 1407h297l807 -1493h-300z" />
    <glyph glyph-name="bracketright" unicode="]" horiz-adv-x="858" 
d="M635 -223h-565v250h292v1044h-292v248h565v-1542z" />
    <glyph glyph-name="underscore" unicode="_" horiz-adv-x="1200" 
d="M1087 -236h-974v236h974v-236z" />
    <glyph glyph-name="a" unicode="a" horiz-adv-x="1402" 
d="M1223 975v-975h-252v35q-109 -60 -289 -60q-146 0 -268.5 64t-195.5 182t-73 266t73 265.5t196.5 181t273.5 63.5q161 0 275 -63v41h260zM694 219q127 0 205 73.5t78 194.5q0 122 -78 196.5t-205 74.5q-126 0 -204 -75t-78 -196q0 -120 78 -194t204 -74z" />
    <glyph glyph-name="b" unicode="b" horiz-adv-x="1372" 
d="M717 997q153 0 277 -63.5t196 -181t72 -265.5t-72 -266t-194.5 -182t-270.5 -64q-163 0 -289 88v-63h-254v1407h260v-481q120 71 275 71zM711 219q127 0 205.5 74t78.5 194q0 122 -78.5 196.5t-205.5 74.5q-126 0 -203.5 -74t-77.5 -197q0 -121 77.5 -194.5t203.5 -73.5z
" />
    <glyph glyph-name="c" unicode="c" horiz-adv-x="1226" 
d="M668 -25q-239 0 -396 144t-157 368q0 147 72.5 264t198.5 181.5t282 64.5q117 0 230.5 -47.5t209.5 -138.5l-188 -176q-52 57 -118 90t-134 33q-128 0 -207.5 -75t-79.5 -196q0 -119 79.5 -193.5t209.5 -74.5q136 0 260 127l184 -178q-212 -193 -446 -193z" />
    <glyph glyph-name="d" unicode="d" horiz-adv-x="1374" 
d="M657 997q163 0 275 -71v481h260v-1407h-252v61q-127 -86 -291 -86q-145 0 -266.5 64t-194.5 182t-73 266t72.5 265.5t196 181t273.5 63.5zM666 219q125 0 203.5 73.5t78.5 194.5q0 122 -78.5 196.5t-203.5 74.5q-127 0 -205 -74.5t-78 -196.5q0 -120 78 -194t205 -74z
" />
    <glyph glyph-name="e" unicode="e" horiz-adv-x="1269" 
d="M1157 547q0 -65 -27 -168h-729q32 -77 102 -120.5t163 -43.5q142 0 292 131l166 -180q-101 -90 -219 -140.5t-237 -50.5q-241 0 -397 143.5t-156 373.5q0 224 150 364.5t388 140.5q122 0 220 -38t159 -101.5t93 -143t32 -167.5zM651 760q-92 0 -157.5 -38.5t-94.5 -107.5
h480q-18 65 -77.5 105.5t-150.5 40.5z" />
    <glyph glyph-name="f" unicode="f" horiz-adv-x="950" 
d="M524 975h363v-234h-363v-741h-260v741h-213v234h213v90q0 179 99.5 270.5t295.5 91.5q160 0 308 -108l-133 -201q-94 66 -179 66q-69 0 -100 -28.5t-31 -90.5v-90z" />
    <glyph glyph-name="g" unicode="g" horiz-adv-x="1263" 
d="M621 -453q-261 0 -405 96.5t-144 247.5q0 133 102 207q-49 62 -49 144q0 113 88 172q-70 92 -70 211q0 164 126.5 266.5t324.5 105.5q94 0 168 -22h409l-77 -217h-70q23 -67 23 -133q0 -167 -124.5 -269t-326.5 -102q-83 0 -152 14h-6q-51 0 -51 -24q0 -23 62 -23h165
q275 0 404 -78t129 -243q0 -169 -130.5 -261t-395.5 -92zM596 492q89 0 138.5 35t49.5 98q0 62 -50 98.5t-138 36.5q-89 0 -139.5 -36t-50.5 -99t49.5 -98t140.5 -35zM621 -213q264 0 264 113q0 44 -60 62t-211 18h-200q-76 -26 -76 -82q0 -50 67.5 -80.5t215.5 -30.5z" />
    <glyph glyph-name="h" unicode="h" horiz-adv-x="1320" 
d="M707 997q193 0 317.5 -112.5t124.5 -296.5v-588h-262v571q0 88 -55 137.5t-150 49.5t-167.5 -52t-72.5 -141v-565h-260v1407h260v-461q97 51 265 51z" />
    <glyph glyph-name="i" unicode="i" horiz-adv-x="684" 
d="M342 1008q-68 0 -114 43t-46 106t46.5 106.5t113.5 43.5q65 0 112.5 -44t47.5 -106t-47.5 -105.5t-112.5 -43.5zM471 0h-262v975h262v-975z" />
    <glyph glyph-name="j" unicode="j" horiz-adv-x="684" 
d="M344 1010q-63 0 -111.5 42.5t-48.5 104.5t48.5 106t111.5 44q67 0 112.5 -42.5t45.5 -107.5q0 -63 -46 -105t-112 -42zM135 -453q-116 0 -254 76l137 207q79 -43 115 -43q76 0 76 74v1114h266v-1114q0 -155 -85.5 -234.5t-254.5 -79.5z" />
    <glyph glyph-name="k" unicode="k" horiz-adv-x="1269" 
d="M565 371l-123 -115v-256h-260v1407h260v-813l406 381h371l-467 -438l456 -537h-331z" />
    <glyph glyph-name="l" unicode="l" horiz-adv-x="624" 
d="M182 1407h260v-1407h-260v1407z" />
    <glyph glyph-name="m" unicode="m" horiz-adv-x="1966" 
d="M182 0v975h260v-29q84 45 232 51h20q98 -2 185 -37.5t143 -99.5q62 64 153 100.5t191 36.5q190 0 309 -113.5t119 -295.5v-588h-260v571q0 87 -50.5 137t-135.5 50q-95 0 -162.5 -53t-67.5 -140v-565h-258v571q0 83 -52.5 133.5t-133.5 53.5q-91 -7 -161.5 -59
t-70.5 -134v-565h-260z" />
    <glyph glyph-name="n" unicode="n" horiz-adv-x="1320" 
d="M707 997q193 0 317.5 -112.5t124.5 -296.5v-588h-262v571q0 88 -55 137.5t-150 49.5t-167.5 -52t-72.5 -141v-565h-260v975h260v-29q97 51 265 51z" />
    <glyph glyph-name="o" unicode="o" horiz-adv-x="1331" 
d="M666 -25q-238 0 -394.5 143.5t-156.5 368.5q0 224 156.5 367t394.5 143q156 0 282.5 -64t199.5 -181t73 -265q0 -149 -73 -266.5t-199.5 -181.5t-282.5 -64zM666 219q126 0 206 74t80 194q0 121 -79 196t-207 75t-206.5 -75t-78.5 -196q0 -120 78.5 -194t206.5 -74z" />
    <glyph glyph-name="p" unicode="p" horiz-adv-x="1372" 
d="M717 -25q-152 0 -275 76v-504h-260v1428h254v-62q120 84 289 84q148 0 270.5 -64t194.5 -182t72 -266t-72 -265.5t-196 -181t-277 -63.5zM711 758q-126 0 -203.5 -74t-77.5 -197q0 -121 77.5 -194.5t203.5 -73.5q127 0 205.5 74t78.5 194q0 122 -78.5 196.5t-205.5 74.5z
" />
    <glyph glyph-name="q" unicode="q" horiz-adv-x="1374" 
d="M657 -25q-150 0 -273.5 63.5t-196 181t-72.5 265.5t73 266t194.5 182t266.5 64q167 0 291 -84v62h252v-1428h-260v504q-120 -76 -275 -76zM666 758q-127 0 -205 -74.5t-78 -196.5q0 -120 78 -194t205 -74q125 0 203.5 73.5t78.5 194.5q0 122 -78.5 196.5t-203.5 74.5z
" />
    <glyph glyph-name="r" unicode="r" horiz-adv-x="958" 
d="M707 997q85 0 202 -36l-75 -240l-60 22q-47 15 -92 15q-95 0 -167.5 -52t-72.5 -141v-565h-260v975h260v-29q97 51 265 51z" />
    <glyph glyph-name="s" unicode="s" horiz-adv-x="1146" 
d="M584 -25q-116 0 -253.5 42t-232.5 112l133 203q66 -47 168 -80t187 -33q83 0 138.5 18.5t55.5 59.5q0 28 -54 45t-159 33q-109 18 -177.5 38t-125 53.5t-81.5 84t-25 123.5q0 72 27.5 129t71.5 93t104 59t121.5 32.5t127.5 9.5q108 0 225.5 -35.5t213.5 -93.5l-134 -200
q-159 90 -307 90q-184 0 -184 -80q0 -20 36 -32.5t144 -31.5q50 -9 78.5 -14t72.5 -15t70 -18.5t61 -23t55.5 -29.5t43 -36.5t34.5 -46.5t20 -57.5t8 -70.5q0 -154 -127.5 -241t-335.5 -87z" />
    <glyph glyph-name="t" unicode="t" horiz-adv-x="1009" 
d="M895 49l-55 -24q-102 -50 -222 -50q-189 0 -290 93t-101 270v403h-198v234h198v266h260v-266h408v-234h-408v-403q0 -119 129 -119q81 0 166 37z" />
    <glyph glyph-name="u" unicode="u" horiz-adv-x="1308" 
d="M608 -25q-190 0 -313 113.5t-123 298.5v588h260v-574q0 -86 54.5 -134t152.5 -48q95 0 166.5 52.5t71.5 142.5v561h260v-975h-260v29q-105 -54 -269 -54z" />
    <glyph glyph-name="v" unicode="v" horiz-adv-x="1263" 
d="M1214 975l-462 -975h-240l-463 975h291l291 -635l293 635h290z" />
    <glyph glyph-name="w" unicode="w" horiz-adv-x="1783" 
d="M1735 975l-375 -975h-254l-213 590l-215 -590h-254l-375 975h283l221 -592l215 592h248l217 -592l221 592h281z" />
    <glyph glyph-name="x" unicode="x" horiz-adv-x="1300" 
d="M913 0l-262 315l-262 -315h-340l430 496l-413 479h333l252 -297l248 297h342l-418 -479l428 -496h-338z" />
    <glyph glyph-name="y" unicode="y" horiz-adv-x="1247" 
d="M1198 975l-657 -1428h-271l228 510l-449 918h291l293 -613l274 613h291z" />
    <glyph glyph-name="z" unicode="z" horiz-adv-x="1077" 
d="M973 236v-236h-891v182l504 559h-486v234h867v-180l-506 -559h512z" />
    <glyph glyph-name="braceleft" unicode="{" horiz-adv-x="966" 
d="M637 772q0 -143 -84 -221q84 -78 84 -223v-197q0 -61 29.5 -91t97.5 -30q28 0 133 17v-250q-95 -21 -147 -21q-188 0 -288 92.5t-100 270.5v196q0 57 -27 84t-87 27h-92v250h92q60 0 87 26t27 84v195q0 177 99.5 268.5t288.5 91.5q45 0 81 -4l66 -8v-262q-91 20 -133 20
q-68 0 -97.5 -28.5t-29.5 -89.5v-197z" />
    <glyph glyph-name="braceright" unicode="}" horiz-adv-x="966" 
d="M811 676v-250h-92q-60 0 -87.5 -27t-27.5 -84v-196q0 -178 -99.5 -270.5t-287.5 -92.5q-48 0 -147 21v250q105 -17 135 -17q66 0 94.5 29.5t28.5 91.5v197q0 146 86 223q-86 77 -86 221v197q0 61 -28.5 89.5t-94.5 28.5q-46 0 -135 -20v258l61 12q46 4 86 4
q189 0 288 -91.5t99 -268.5v-195q0 -58 27.5 -84t87.5 -26h92z" />
    <glyph glyph-name="asciitilde" unicode="~" horiz-adv-x="1144" 
d="M328 393l-236 78l12 53q26 109 98 178.5t181 69.5q47 0 92.5 -13.5t118.5 -43.5l65 -25q75 -28 93 -28q4 0 6 2q28 6 53 124l240 -73q-74 -303 -291 -303q-75 0 -207 57l-66 25q-61 28 -90 28q-12 0 -22.5 -10.5t-19.5 -32.5t-14 -38.5t-13 -47.5z" />
    <glyph glyph-name="exclamdown" unicode="&#xa1;" horiz-adv-x="690" 
d="M346 696q-64 0 -112 45t-48 105q0 63 47 105t113 42t112 -42t46 -105q0 -60 -47 -105t-111 -45zM217 606h258l17 -950h-289z" />
    <glyph glyph-name="cent" unicode="&#xa2;" horiz-adv-x="1269" 
d="M1135 182l-39 -43q-112 -127 -295 -153v-183h-260v193q-183 38 -289.5 170t-106.5 321q0 191 106 322.5t290 169.5v190h260v-180q177 -23 327 -190l-176 -170q-119 129 -254 129q-126 0 -205 -75t-79 -196q0 -120 79 -194t205 -74q135 0 258 135z" />
    <glyph glyph-name="sterling" unicode="&#xa3;" horiz-adv-x="1353" 
d="M549 250h659v-250h-1095v250h161v285h-161v249h161v90q0 207 145 338t367 131q129 0 246 -59.5t207 -167.5l-225 -145q-94 116 -228 116q-105 0 -171 -58.5t-66 -154.5v-90h506v-249h-506v-285z" />
    <glyph glyph-name="yen" unicode="&#xa5;" horiz-adv-x="1589" 
d="M1120 784h193v-233h-365l-16 -21v-34h381v-234h-381v-262h-270v262h-383v234h383v32l-17 23h-366v233h190l-397 535h342l383 -535l383 535h340z" />
    <glyph glyph-name="copyright" unicode="&#xa9;" horiz-adv-x="1859" 
d="M928 -25q-212 0 -382.5 87t-268 244.5t-97.5 355.5q0 196 97.5 351.5t268 241.5t382.5 86q213 0 384 -86t268 -241.5t97 -351.5q0 -198 -97 -355.5t-268 -244.5t-384 -87zM928 199q224 0 367 129t143 334q0 202 -143.5 331t-366.5 129q-219 0 -362.5 -129t-143.5 -331
q0 -205 142 -334t364 -129zM934 258q-190 0 -313 113t-123 291q0 175 124.5 289t313.5 114q111 0 212.5 -60.5t168.5 -162.5l-195 -127q-83 127 -186 127q-87 0 -141 -50.5t-54 -129.5q0 -83 53.5 -134t139.5 -51q112 0 192 129l199 -121q-72 -108 -175 -167.5t-216 -59.5z
" />
    <glyph glyph-name="registered" unicode="&#xae;" horiz-adv-x="1214" 
d="M610 1346q223 0 369.5 -133.5t146.5 -342.5q0 -208 -146.5 -340.5t-369.5 -132.5q-226 0 -373 132.5t-147 340.5q0 209 147 342.5t373 133.5zM872 649q89 89 89 221q0 140 -99 230t-252 90q-113 0 -196 -47h221q95 0 152 -49t57 -129q0 -114 -101 -158zM256 870
q0 -158 121 -249v497q-57 -42 -89 -106.5t-32 -141.5zM543 936h92q43 0 43 29q0 24 -43 24h-92v-53zM410 600q87 -49 200 -49q110 0 197 49h-107l-143 184h-14v-184h-133z" />
    <glyph glyph-name="periodcentered" unicode="&#xb7;" 
d="M348 424q-69 0 -117.5 45t-48.5 109t49 110.5t117 46.5t117 -46.5t49 -110.5t-48.5 -109t-117.5 -45z" />
    <glyph glyph-name="questiondown" unicode="&#xbf;" horiz-adv-x="1236" 
d="M627 696q-68 0 -114 44.5t-46 105.5q0 64 45.5 105.5t114.5 41.5q66 0 111.5 -42t45.5 -105q0 -61 -46 -105.5t-111 -44.5zM625 -365q-215 0 -340 111t-125 305q0 44 8 79.5t20.5 64t45.5 68t63.5 71t93.5 94.5q73 70 89 96.5t16 81.5h260v-82q0 -44 -3.5 -68.5
t-24.5 -57.5t-47 -60t-89 -88l-14 -14q-13 -13 -19 -17q-72 -68 -95.5 -100.5t-23.5 -73.5q0 -73 51.5 -116.5t141.5 -43.5q157 0 280 181l209 -154q-93 -135 -219.5 -206t-277.5 -71z" />
    <glyph glyph-name="multiply" unicode="&#xd7;" horiz-adv-x="1161" 
d="M113 276l288 261l-288 264l178 164l293 -263l290 263l179 -164l-291 -264l291 -261l-179 -161l-290 262l-293 -264z" />
    <glyph glyph-name="divide" unicode="&#xf7;" horiz-adv-x="1169" 
d="M586 686q-66 0 -113 45t-47 105q0 63 47 106t113 43q65 0 112 -43.5t47 -105.5q0 -60 -47.5 -105t-111.5 -45zM92 655h983v-235h-983v235zM586 90q-66 0 -113 45t-47 107q0 60 47 104.5t113 44.5q64 0 111.5 -44.5t47.5 -104.5q0 -62 -47.5 -107t-111.5 -45z" />
    <glyph glyph-name="endash" unicode="&#x2013;" horiz-adv-x="1183" 
d="M1073 655v-233h-960v233h960z" />
    <glyph glyph-name="emdash" unicode="&#x2014;" horiz-adv-x="1832" 
d="M1720 655v-233h-1607v233h1607z" />
    <glyph glyph-name="quoteleft" unicode="&#x2018;" 
d="M311 1362h236l-70 -557h-295z" />
    <glyph glyph-name="quoteright" unicode="&#x2019;" 
d="M219 1362h293l-127 -557h-238z" />
    <glyph glyph-name="quotesinglbase" unicode="&#x201a;" 
d="M219 289h293l-127 -557h-238z" />
    <glyph glyph-name="quotedblleft" unicode="&#x201c;" horiz-adv-x="1040" 
d="M311 1362h236l-70 -557h-295zM659 1362h232l-70 -557h-295z" />
    <glyph glyph-name="quotedblright" unicode="&#x201d;" horiz-adv-x="1040" 
d="M219 1362h293l-127 -557h-238zM563 1362h293l-129 -557h-231z" />
    <glyph glyph-name="quotedblbase" unicode="&#x201e;" horiz-adv-x="1040" 
d="M219 289h293l-127 -557h-238zM563 289h293l-129 -557h-231z" />
    <glyph glyph-name="bullet" unicode="&#x2022;" horiz-adv-x="913" 
d="M459 291q-115 0 -196 74t-81 180t80.5 179t196.5 73q114 0 193 -73t79 -179t-79 -180t-193 -74z" />
    <glyph glyph-name="ellipsis" unicode="&#x2026;" horiz-adv-x="1447" 
d="M311 -20q-69 0 -116.5 45t-47.5 110t47 109.5t117 44.5q69 0 117.5 -45t48.5 -109t-48.5 -109.5t-117.5 -45.5zM721 -20q-66 0 -114 45.5t-48 109.5q0 65 45.5 109.5t116.5 44.5q68 0 118 -45t50 -109t-50 -109.5t-118 -45.5zM1133 -20q-69 0 -116.5 45t-47.5 110
t47 109.5t117 44.5q68 0 117.5 -45t49.5 -109t-49.5 -109.5t-117.5 -45.5z" />
    <glyph glyph-name="Euro" unicode="&#x20ac;" horiz-adv-x="1589" 
d="M1249 403l201 -170l-43 -43q-89 -98 -217 -156.5t-277 -58.5q-224 0 -391.5 114.5t-238.5 309.5h-193v236h148v27v16v8h-148v238h193q72 193 241.5 305t390.5 112q302 0 521 -254l-193 -184q-156 184 -330 184q-102 0 -185.5 -43t-137.5 -120h534v-238h-608v-24v-27h608
v-236h-536q54 -78 138.5 -123t186.5 -45q180 0 336 172z" />
    <glyph glyph-name="minus" unicode="&#x2212;" horiz-adv-x="1169" 
d="M92 655h983v-235h-983v235z" />
    <glyph glyph-name="a.alt" horiz-adv-x="1275" 
d="M653 997q214 0 327.5 -103.5t113.5 -305.5v-588h-250v66q-136 -91 -307 -91q-103 0 -190.5 37t-144.5 115t-57 182q0 69 25.5 125.5t68.5 94.5t101 63.5t120.5 37t129.5 11.5q108 0 246 -27q-7 70 -59 107t-142 37q-75 0 -162.5 -30.5t-171.5 -88.5l-121 197
q97 73 222 117t251 44zM561 221q79 0 151 46t105 120q-122 25 -205 25q-200 0 -200 -99q0 -43 41 -67.5t108 -24.5z" />
    <glyph glyph-name="_FSHallmark" horiz-adv-x="2007" 
d="M188 1606h1678v-197h-1678v197zM1649 1034q0 19 -15 45q-18 21 -37 35q-35 18 -47 21q-5 1 -23 3.5t-26 2.5q-48 0 -96 -25q-41 -25 -41 -59q0 -61 37 -82q57 -28 90 -35l133 -31q33 -11 59 -14q13 -1 50 -12q5 -3 20.5 -11t22.5 -12q42 -25 63 -55q22 -40 25 -88
q3 -52 -21 -101q-51 -83 -147 -118q-102 -31 -191 -31q-79 0 -137 18q-53 14 -117 56q-51 36 -86 96q-30 56 -30 131l194 -4q0 -10 8 -29q3 -30 29 -53q22 -22 51 -35q35 -18 94 -18q67 0 107 24q41 18 41 52q0 59 -160 94q-154 39 -246 88q-100 53 -100 168q0 97 66 151
q66 53 147 80q73 17 139 17q101 0 191 -37q89 -38 133 -133q22 -55 22 -99h-202zM410 467h-222v833h707v-190h-485v-186h403v-187h-403v-270zM877 567q0 44 28 72q27 27 72 27q40 0 80 -29q33 -26 33 -70q0 -40 -33 -69q-37 -27 -80 -27q-39 0 -70 31q-30 27 -30 65z
M184 362h1680v-198h-1680v198z" />
    <glyph glyph-name="_Fontastica" horiz-adv-x="2007" 
d="M580 301h-232q-2 4 -2 10v1360h1018v-209h-784v-559h786v-211h-786v-391zM727 1282h789v389h231v-1366h-1020v207h789v559h-789v211zM1516 168q-15 -8 -15 -21q0 -18 10 -28q10 -13 25 -13q17 0 37 13l12 -13q-19 -22 -49 -22q-22 0 -43 12q-12 15 -18 43q-3 26 16 45
q21 21 45 21q28 0 49 -21l-12 -16q-1 2 -5.5 5t-6.5 5q-2 4 -19 4h-6q-18 -7 -20 -14zM348 203h86v-21h-55v-32h53v-19h-53v-45h-31v117zM541 203q37 0 59 -31q16 -23 4 -53q-13 -32 -51 -35l-14 -6q-17 0 -25 8q-37 15 -37 51q0 31 19 47q14 19 45 19zM766 86h-6
q-4 -2 -8 -2q-10 0 -19 12l-12 17q-1 3 -5 8t-5 8l-25 29v-72h-27v117h23q8 -2 12 -17q23 -23 27 -28q3 -4 10 -16.5t12 -18.5v80h23v-117zM817 203h98v-21h-36v-96h-25v96h-37v21zM1182 147q24 -3 24 -26q3 -25 -20 -35q-4 -2 -23 -2q-40 0 -55 18q2 2 2 4l2 5q0 4 4 8
l37 -13h16q7 9 9 7q0 18 -27 24q-4 0 -6 2t-10 2q-19 5 -19 27q-5 18 17 31q12 4 26 4q29 0 47 -10l-10 -21q-4 2 -8 2q-2 0 -6 2q-2 2 -8 2q-3 0 -5 4h-16q-8 0 -8 -8q-4 -4 8 -16q11 -2 29 -11zM1245 203h103v-21h-37v-96h-27v96h-39v21zM1395 203h30v-117h-30v117z
M1704 203l25 -56q1 -4 12 -32q9 -22 14 -29h-26l-11 25h-57l-10 -25h-27q33 64 47 117h33zM1018 199q4 -14 12 -27q3 -4 7.5 -14.5t6.5 -12.5q1 -3 5.5 -14t5.5 -16t5 -15.5t5 -13.5h-27q-2 2 -2 10q0 1 -1 3t-2.5 5.5t-2.5 6.5h-53q-2 -4 -2 -15q-2 -2 -2 -4l-6 -6h-25
l49 113h27zM575 145q0 16 -8 27q-13 10 -28 10q-4 -4 -9 -4q-12 -3 -22 -18q-12 -15 -2 -29q9 -27 35 -27q8 0 10 2q24 6 24 35v4zM1022 131q-1 1 -2 5t-2 5q-2 2 -3.5 6t-2.5 5q-2 4 -2 12q-2 1 -3.5 5t-2.5 5l-21 -43h39zM1706 131q-2 2 -2 10q-5 11 -6 11q-1 2 -2 6t-2 6
q-1 1 -2.5 5t-3.5 5l-19 -43h37z" />
    </font>
</defs>
</svg>
