<?xml version="1.0" standalone="no"?>
<!DOCTYPE svg PUBLIC "-//W3C//DTD SVG 1.1//EN" "http://www.w3.org/Graphics/SVG/1.1/DTD/svg11.dtd" >
<svg xmlns="http://www.w3.org/2000/svg" xmlns:xlink="http://www.w3.org/1999/xlink" version="1.1">
<metadata>
Created by FontForge 20170731 at Wed Dec 21 18:53:28 2022
 By Aleksey,,,
Copyright 2016 Indian Type Foundry
</metadata>
<defs>
<font id="Cosmetic-Thin" horiz-adv-x="1024" >
  <font-face 
    font-family="Cosmetic Thin"
    font-weight="100"
    font-stretch="normal"
    units-per-em="2048"
    panose-1="0 0 0 0 0 0 0 0 0 0"
    ascent="1536"
    descent="-512"
    x-height="983"
    cap-height="1495"
    bbox="-170 -434 2410 2120"
    underline-thickness="102"
    underline-position="-307"
    unicode-range="U+000D-FB02"
  />
<missing-glyph horiz-adv-x="0" 
 />
    <glyph glyph-name=".notdef" horiz-adv-x="0" 
 />
    <glyph glyph-name=".null" horiz-adv-x="0" 
 />
    <glyph glyph-name=".null" horiz-adv-x="0" 
 />
    <glyph glyph-name="nonmarkingreturn" horiz-adv-x="682" 
 />
    <glyph glyph-name="CR" unicode="&#xd;" horiz-adv-x="0" 
 />
    <glyph glyph-name="space" unicode=" " horiz-adv-x="532" 
 />
    <glyph glyph-name="exclam" unicode="!" horiz-adv-x="591" 
d="M293 397l-37 1098h82l-37 -1098h-8zM297 -20q-33 0 -57.5 24t-24.5 59t24.5 58.5t57.5 23.5q34 0 59 -23.5t25 -58.5t-25 -59t-59 -24z" />
    <glyph glyph-name="quotedbl" unicode="&#x22;" horiz-adv-x="591" 
d="M168 915l-45 580h100l-45 -580h-10zM414 915l-45 580h100l-45 -580h-10z" />
    <glyph glyph-name="numbersign" unicode="#" horiz-adv-x="1335" 
d="M385 449h461l104 595h-461zM305 -2h-41l74 420h-287l6 31h287l105 595h-287l6 31h287l73 420h41l-73 -420h460l74 420h41l-74 -420h287l-6 -31h-287l-104 -595h287l-7 -31h-286l-74 -420h-41l74 420h-461z" />
    <glyph glyph-name="dollar" unicode="$" horiz-adv-x="1204" 
d="M195 1192q0 -61 23 -113t57 -88t91.5 -70.5t107.5 -56.5t124 -49v682h-23q-105 0 -189.5 -32.5t-137.5 -103t-53 -169.5zM662 -4q188 0 305.5 86t117.5 256q0 40 -9 75.5t-22 64t-38.5 56.5t-47 47.5t-59.5 42t-64.5 36t-72.5 32.5t-73.5 29.5t-77.5 28.5v-752
q14 -2 41 -2zM649 -23h-28v-196h-23v199q-90 6 -171.5 35t-152 81t-119 136t-63.5 190l64 16q5 -117 69.5 -214t162.5 -153.5t210 -70.5v758q-58 21 -95 36t-87.5 38.5t-82.5 45t-68 52t-56 63t-33.5 74.5t-13.5 90q0 169 118 264t300 95h18v194h23v-197q83 -4 155 -25.5
t138 -65t113 -119t67 -177.5l-62 -16q-12 94 -49.5 166.5t-93.5 118t-123 70.5t-145 30v-688q195 -72 262 -105q174 -87 220 -209q19 -51 19 -110q0 -84 -25 -152.5t-68.5 -115.5t-103.5 -78.5t-129 -45.5t-147 -14z" />
    <glyph glyph-name="percent" unicode="%" horiz-adv-x="1660" 
d="M444 754q-155 0 -264.5 111.5t-109.5 271.5q0 158 108.5 264t265.5 106t265 -106t108 -264q0 -160 -109 -271.5t-264 -111.5zM1343 1495h21l-1034 -1495h-31zM444 772q151 0 249 102t98 263q0 155 -98 254.5t-249 99.5q-148 0 -248 -100t-100 -254q0 -159 100 -262
t248 -103zM1219 -20q-156 0 -265.5 111.5t-109.5 270.5q0 158 109 264.5t266 106.5q156 0 264 -106t108 -265q0 -160 -108.5 -271t-263.5 -111zM1219 -2q151 0 248.5 101.5t97.5 262.5q0 155 -97.5 255t-248.5 100q-148 0 -248.5 -100.5t-100.5 -254.5q0 -159 100.5 -261.5
t248.5 -102.5z" />
    <glyph glyph-name="ampersand" unicode="&#x26;" horiz-adv-x="1343" 
d="M641 -4q75 0 143.5 13t129 40t97 75t36.5 112v536l-228 4q-220 4 -351 -40t-186 -133t-55 -236q0 -101 32.5 -175t91.5 -115.5t130.5 -61t159.5 -19.5zM1094 143q-74 -72 -195 -117.5t-262 -45.5q-68 0 -132.5 12.5t-127 42t-108.5 73t-74.5 110.5t-28.5 149
q0 87 31 157.5t76 114t106.5 75t113 45.5t103.5 21q-57 3 -119 27.5t-118.5 66.5t-93 111t-36.5 150q0 99 34 174.5t92.5 119.5t128.5 65.5t149 21.5q281 0 389 -291l-49 -15q-25 67 -52 114t-66.5 90t-96 65t-129.5 22q-152 0 -245 -86.5t-93 -269.5q0 -362 434 -359l322 2
v193h47v-193l166 3v-23l-166 4v-629z" />
    <glyph glyph-name="quotesingle" unicode="'" horiz-adv-x="346" 
d="M168 915l-45 580h100l-45 -580h-10z" />
    <glyph glyph-name="parenleft" unicode="(" horiz-adv-x="696" 
d="M164 725q0 118 28.5 235t74.5 214t108 185.5t125.5 154.5t130.5 116l10 -12q-426 -378 -426 -893q0 -511 426 -889l-10 -12q-84 63 -163 152t-149 203t-112.5 257t-42.5 289z" />
    <glyph glyph-name="parenright" unicode=")" horiz-adv-x="696" 
d="M532 725q0 -118 -28.5 -235t-74.5 -213.5t-108 -184.5t-125.5 -153t-129.5 -115l-11 12q426 378 426 889q0 515 -426 893l11 12q85 -64 163.5 -153.5t148.5 -204t112 -258t42 -289.5z" />
    <glyph glyph-name="asterisk" unicode="*" horiz-adv-x="835" 
d="M414 1167l-35 322q16 16 39 16t39 -16l-35 -322h-8zM389 1145l-317 63q-11 25 -2 43q6 25 26 33l293 -135v-4zM444 1149l295 135q21 -13 27 -33q7 -16 -2 -43l-318 -63zM403 1112l-161 -281q-23 -4 -41 11q-15 12 -23 37l219 237zM438 1116l217 -237q-8 -28 -22 -37
q-21 -15 -41 -11l-160 281z" />
    <glyph glyph-name="plus" unicode="+" 
d="M999 645h-473v-473h-30v473h-471v31h471v471h30v-471h473v-31z" />
    <glyph glyph-name="comma" unicode="," horiz-adv-x="370" 
d="M88 -303l-6 14q60 29 101 71t55 83t17.5 83t-9.5 70q-22 -22 -36 -30t-40 -8q-33 0 -56.5 21.5t-23.5 53.5q0 33 24 54.5t62 21.5q58 0 86.5 -39.5t28.5 -101.5q0 -194 -203 -293z" />
    <glyph glyph-name="hyphen" unicode="-" horiz-adv-x="894" 
d="M102 606v37h691v-37h-691z" />
    <glyph glyph-name="period" unicode="." horiz-adv-x="370" 
d="M184 -20q-33 0 -57.5 24t-24.5 59t24.5 58.5t57.5 23.5q34 0 59 -23.5t25 -58.5t-25 -59t-59 -24z" />
    <glyph glyph-name="slash" unicode="/" horiz-adv-x="862" 
d="M-39 -176l913 1806h33l-913 -1806h-33z" />
    <glyph glyph-name="zero" unicode="0" horiz-adv-x="1359" 
d="M680 -20q-269 0 -407 197t-138 571t138 573t407 199t407 -199t138 -573t-138 -571t-407 -197zM680 -4q130 0 225 55t151.5 157t83.5 236t27 304t-27 304.5t-83.5 237t-151.5 158t-225 55.5t-225 -55.5t-151.5 -158t-83.5 -237t-27 -304.5t27 -304t83.5 -236t151.5 -157
t225 -55z" />
    <glyph glyph-name="one" unicode="1" horiz-adv-x="573" 
d="M369 0h-52v1405q-37 -73 -103.5 -131.5t-176.5 -118.5l-8 16q131 68 202.5 145t102.5 179h35v-1495z" />
    <glyph glyph-name="two" unicode="2" horiz-adv-x="1140" 
d="M139 1081l-45 11q36 193 165.5 308.5t320.5 115.5q91 0 165 -22t122.5 -59.5t81.5 -88.5t47 -106t14 -116q0 -86 -22.5 -168.5t-59 -154.5t-102 -151.5t-132 -145t-170.5 -150t-195 -152.5t-227 -165l86 4h875v-41h-1016v25q317 223 450 334q281 234 384 448
q71 149 71 309q0 383 -374 383q-178 0 -291.5 -114.5t-147.5 -303.5z" />
    <glyph glyph-name="three" unicode="3" horiz-adv-x="1138" 
d="M549 -20q-111 0 -196.5 27t-139.5 76.5t-85 111t-42 137.5l45 14q4 -52 18 -99t45 -94t76 -81t116.5 -55t160.5 -21q191 0 301 101t110 276q0 81 -15 143t-53.5 116t-102 87.5t-163 50.5t-233.5 12l-117 -4v31l115 -4q252 -9 390.5 83.5t138.5 289.5q0 93 -24.5 157.5
t-74 100.5t-113 51.5t-151.5 15.5q-96 0 -175.5 -31t-131 -82t-81.5 -113.5t-36 -129.5l-45 18q33 162 156 258.5t317 96.5q91 0 165 -19t131 -58.5t88.5 -107t31.5 -157.5q0 -76 -26 -137.5t-68 -103t-102 -72t-120 -47t-129 -25.5q230 -14 358 -116t128 -290
q0 -104 -36.5 -183.5t-101.5 -127.5t-148 -72t-181 -24z" />
    <glyph glyph-name="four" unicode="4" horiz-adv-x="1206" 
d="M760 0h-51v367l-662 -2v12l565 1118h78l-622 -1118l641 10v508q16 1 32 13.5t19 23.5v-545l414 6v-24l-414 -2v-367z" />
    <glyph glyph-name="five" unicode="5" horiz-adv-x="1138" 
d="M567 -20q-173 0 -288.5 86t-157.5 243l55 17q86 -330 389 -330q64 0 123.5 14t115.5 47t97.5 82t66.5 124t25 167q0 107 -30.5 188t-84.5 128.5t-121 70.5t-147 23q-113 0 -219 -56.5t-180 -165.5l-14 5v872h772v-51h-752v-795q77 109 191 162t217 53q82 0 156 -24.5
t135.5 -73.5t98 -132.5t36.5 -191.5q0 -145 -68.5 -252t-176.5 -158.5t-239 -51.5z" />
    <glyph glyph-name="six" unicode="6" horiz-adv-x="1210" 
d="M1100 420q0 -111 -38.5 -198t-103.5 -138.5t-143 -77.5t-164 -26q-54 0 -103.5 9t-102 32t-97 58.5t-84.5 92.5t-68 131t-44.5 176.5t-16.5 225.5q0 399 141 598.5t383 199.5q337 0 410 -299l-37 -8q-35 150 -132 220.5t-241 70.5q-226 0 -347.5 -204.5t-121.5 -577.5
q0 -104 13 -203q63 173 181 270.5t292 97.5q86 0 161 -27.5t134.5 -81t94 -141.5t34.5 -200zM651 -4q168 0 282 115.5t114 308.5q0 197 -104.5 310.5t-266.5 113.5q-177 0 -297 -102.5t-170 -272.5q21 -127 65.5 -221t105 -147.5t128 -79t143.5 -25.5z" />
    <glyph glyph-name="seven" unicode="7" horiz-adv-x="958" 
d="M381 133l10 -133h-78v57q0 137 10 255.5t34.5 244.5t69 239t110 225.5t161 219t217.5 203.5h-897v51h920v-51h-2l2 -2q-191 -160 -311 -316.5t-176 -310.5t-72 -324.5t2 -357.5z" />
    <glyph glyph-name="eight" unicode="8" horiz-adv-x="1232" 
d="M616 -20q-222 0 -361.5 111.5t-139.5 293.5q0 167 119 275.5t315 127.5q-175 17 -280 115.5t-105 249.5q0 164 124.5 262t327.5 98t328 -98t125 -262q0 -151 -105 -249.5t-280 -115.5q196 -19 315 -127.5t119 -275.5q0 -182 -139.5 -293.5t-362.5 -111.5zM616 793
q193 0 297.5 100t104.5 260q0 158 -103.5 251t-298.5 93t-298 -93t-103 -251q0 -160 104 -260t297 -100zM616 -4q210 0 320.5 104t110.5 285q0 180 -111.5 287.5t-319.5 107.5t-319 -107.5t-111 -287.5q0 -181 110.5 -285t319.5 -104z" />
    <glyph glyph-name="nine" unicode="9" horiz-adv-x="1210" 
d="M559 1491q-168 0 -281.5 -115.5t-113.5 -308.5q0 -197 104.5 -310.5t266.5 -113.5q177 0 296.5 102.5t169.5 272.5q-21 127 -65.5 221t-105 147.5t-128 79t-143.5 25.5zM111 1067q0 111 38.5 198t103 138.5t142.5 77.5t164 26q54 0 103.5 -9t102 -32t97 -58.5t84.5 -92.5
t68 -131t44.5 -176.5t16.5 -225.5q0 -399 -141 -598.5t-383 -199.5q-337 0 -410 299l37 8q35 -150 132 -220.5t241 -70.5q226 0 347.5 204.5t121.5 577.5q0 112 -12 203q-63 -173 -181 -271t-292 -98q-86 0 -161 27.5t-134.5 81.5t-94 142t-34.5 200z" />
    <glyph glyph-name="colon" unicode=":" horiz-adv-x="370" 
d="M184 696q-33 0 -57.5 24.5t-24.5 59.5t24.5 58.5t57.5 23.5q34 0 59 -23.5t25 -58.5t-25 -59.5t-59 -24.5zM184 -20q-33 0 -57.5 24t-24.5 59t24.5 58.5t57.5 23.5q34 0 59 -23.5t25 -58.5t-25 -59t-59 -24z" />
    <glyph glyph-name="semicolon" unicode=";" horiz-adv-x="370" 
d="M190 678q-33 0 -57 24.5t-24 59.5t24 58.5t57 23.5q34 0 59 -23.5t25 -58.5t-25 -59.5t-59 -24.5zM90 -303l-6 14q60 29 101 71t55 83t17.5 83t-9.5 70q-22 -22 -36 -30t-40 -8q-33 0 -56.5 21.5t-23.5 53.5q0 33 24 54.5t62 21.5q58 0 86.5 -39.5t28.5 -101.5
q0 -194 -203 -293z" />
    <glyph glyph-name="less" unicode="&#x3c;" 
d="M922 334v-35l-850 344v43l852 344v-35l-820 -331z" />
    <glyph glyph-name="equal" unicode="=" 
d="M25 809v31h974v-31h-974zM25 481v31h974v-31h-974z" />
    <glyph glyph-name="greater" unicode="&#x3e;" 
d="M102 334l818 330l-820 331v35l852 -344v-43l-850 -344v35z" />
    <glyph glyph-name="question" unicode="?" 
d="M424 397h-21v256q105 34 191 78.5t158 104.5t112.5 140.5t40.5 172.5q0 68 -21 125.5t-57.5 98.5t-85.5 69.5t-105 42.5t-116 14q-151 0 -267 -86.5t-159 -247.5l-57 9q32 115 106 194t169 114.5t208 35.5q81 0 157.5 -22t142 -64.5t105.5 -115t40 -165.5
q0 -318 -541 -510v-244zM403 -20q-33 0 -57 24t-24 59t24 58.5t57 23.5q34 0 59 -23.5t25 -58.5t-25 -59t-59 -24z" />
    <glyph glyph-name="at" unicode="@" horiz-adv-x="2134" 
d="M987 -221q-246 0 -432 97.5t-289.5 285.5t-103.5 444q0 176 51 328.5t142 264.5t214 192.5t269.5 120.5t306.5 40q181 0 332 -57.5t249 -154.5t151.5 -223t53.5 -265q0 -135 -27.5 -248.5t-73 -190.5t-104 -130.5t-120.5 -78t-123 -24.5q-239 0 -213 277
q-54 -127 -146.5 -202t-216.5 -75q-144 0 -240 108.5t-96 313.5q0 240 135 398.5t326 158.5q123 0 208 -84t95 -246l2 9l-2 24l47 277h52l-119 -627q-10 -64 -11.5 -112.5t11 -83t30 -57t44.5 -35.5t54 -18t60 -5q50 0 103 22t107 73t96 124t69 185.5t27 246.5
q0 149 -56.5 275.5t-157.5 215t-246 138t-317 49.5q-190 0 -359.5 -62.5t-299 -177.5t-205.5 -291t-76 -389q0 -255 100.5 -439.5t281.5 -279t425 -94.5q237 0 494 127l8 -14q-233 -131 -510 -131zM926 203q119 0 221.5 102.5t144.5 272.5l21 116q4 58 4 88q0 162 -79 259.5
t-202 97.5q-80 0 -153.5 -38t-130.5 -108t-91 -177t-34 -236q0 -169 79.5 -273t219.5 -104z" />
    <glyph glyph-name="A" unicode="A" horiz-adv-x="1402" 
d="M666 1479l-4 8l-377 -944h782zM1300 0l-223 522h-801l-208 -522h-33l620 1495h66l643 -1495h-64z" />
    <glyph glyph-name="B" unicode="B" horiz-adv-x="1327" 
d="M1227 401q0 -87 -20 -150t-67.5 -112.5t-128.5 -79t-199.5 -44.5t-283.5 -15h-323v1495h354q133 0 236 -16.5t185 -54.5t125.5 -105t43.5 -162q0 -155 -108 -251t-365 -128h-14q69 -3 142.5 -17t150 -44t136.5 -72t98 -105.5t38 -138.5zM530 1477h-270v-689h248
q104 0 185 8.5t157.5 32.5t126.5 63t80 103.5t30 151.5q0 83 -28.5 143t-75 95.5t-121 56.5t-151.5 28t-181 7zM539 770h-279v-752h270q74 0 132 2.5t126.5 12t120 25t102 43t82.5 65.5t52 93.5t20 125.5q0 100 -50 176t-138.5 120.5t-198 66.5t-239.5 22z" />
    <glyph glyph-name="C" unicode="C" horiz-adv-x="1624" 
d="M1505 1020l-59 -10q-16 147 -100.5 259t-214.5 170t-287 58q-143 0 -267 -51.5t-213.5 -144t-140.5 -228.5t-51 -297q0 -162 48.5 -302t137.5 -244t224.5 -163t300.5 -59q123 0 233.5 38.5t195 108.5t138 173.5t61.5 226.5h19q-13 -172 -104 -304t-234 -201.5t-315 -69.5
q-228 0 -403.5 100.5t-269 276t-93.5 397.5q0 171 56 314t154.5 241t235 152.5t295.5 54.5q165 0 303 -58t231.5 -171.5t118.5 -266.5z" />
    <glyph glyph-name="D" unicode="D" horiz-adv-x="1554" 
d="M205 0v1495h327q195 0 359.5 -46t291 -135.5t198 -234t71.5 -329.5q0 -149 -47 -272.5t-130.5 -211t-199.5 -148t-253 -89.5t-292 -29h-325zM1391 750q0 163 -50 293.5t-151 228t-265.5 150.5t-381.5 53h-283v-1455h289q207 0 368.5 54.5t264.5 152.5t156 230.5t53 292.5
z" />
    <glyph glyph-name="E" unicode="E" horiz-adv-x="1159" 
d="M205 0v1495h903v-31l-848 21v-701l797 13v-33l-797 8v-762l848 21v-31h-903z" />
    <glyph glyph-name="F" unicode="F" horiz-adv-x="1167" 
d="M1067 739l-807 9v-748h-55v1495h934v-31l-879 21v-727l807 12v-31z" />
    <glyph glyph-name="G" unicode="G" horiz-adv-x="1652" 
d="M1450 0v420q-51 -214 -220 -327t-405 -113q-161 0 -296 60.5t-226 164.5t-141.5 246t-50.5 303q0 223 90 396t258 269.5t389 96.5q257 0 437.5 -129.5t219.5 -366.5l-59 -10q-16 150 -102.5 262t-217 168.5t-286.5 56.5q-205 0 -357.5 -93.5t-231.5 -256t-79 -371.5
q0 -218 82 -391t242.5 -275t375.5 -102q160 0 287.5 62.5t206 188t84.5 296.5v45h-438v21h493v-621h-55z" />
    <glyph glyph-name="H" unicode="H" horiz-adv-x="1538" 
d="M1278 0v756h-1018v-756h-55v1495h55v-719h1018v719h55v-1495h-55z" />
    <glyph glyph-name="I" unicode="I" horiz-adv-x="464" 
d="M260 1495v-1495h-55v1495h55z" />
    <glyph glyph-name="J" unicode="J" horiz-adv-x="1134" 
d="M500 -20q-93 0 -170.5 29t-139 88.5t-95 162.5t-29.5 240l40 10q-3 -126 19.5 -220.5t60.5 -149.5t95.5 -88.5t114 -44.5t126.5 -11q58 0 110 13t100 45t82.5 80.5t55.5 125t21 172.5v1051l-694 -19v31h749v-1046q0 -242 -113.5 -355.5t-332.5 -113.5z" />
    <glyph glyph-name="K" unicode="K" horiz-adv-x="1300" 
d="M1210 0l-706 819l-244 -239v-580h-55v1495h55v-893l885 893h49l-659 -647l739 -848h-64z" />
    <glyph glyph-name="L" unicode="L" horiz-adv-x="1126" 
d="M205 0v1495h55v-1485l848 21v-31h-903z" />
    <glyph glyph-name="M" unicode="M" horiz-adv-x="1910" 
d="M885 94l-660 1340v-1434h-20v1495h55l664 -1368l731 1368h51v-1495h-55v1409l2 41l-723 -1356h-45z" />
    <glyph glyph-name="N" unicode="N" horiz-adv-x="1605" 
d="M1380 0l-1155 1425v-1425h-20v1495h39l1136 -1409v1409h21v-1495h-21z" />
    <glyph glyph-name="O" unicode="O" horiz-adv-x="1789" 
d="M895 -20q-168 0 -314.5 58t-251 159t-165 244t-60.5 307q0 163 60.5 306t165.5 244t251.5 159.5t313.5 58.5t313.5 -58t251.5 -159t165.5 -244t60.5 -307q0 -165 -60.5 -308t-165 -244t-251 -158.5t-314.5 -57.5zM895 -2q149 0 281 51t231.5 145t158 237.5t58.5 316.5
t-58.5 316.5t-158 237t-231.5 144.5t-281 51t-281 -51t-231.5 -144.5t-158 -237t-58.5 -316.5t58.5 -316.5t158 -237.5t231.5 -145t281 -51z" />
    <glyph glyph-name="P" unicode="P" horiz-adv-x="1259" 
d="M1184 1040q0 -237 -184.5 -357t-581.5 -120h-158v-563h-55v1495h237q742 0 742 -455zM457 1475h-197v-891h197q106 0 199 13t180 45t149 80.5t99.5 125t37.5 172.5q0 129 -48 219.5t-140 141t-207.5 72.5t-269.5 22z" />
    <glyph glyph-name="Q" unicode="Q" horiz-adv-x="1789" 
d="M1442 -315q-31 0 -60 5.5t-52.5 12.5t-48.5 22t-43 27t-40.5 34t-35.5 36t-34 41.5t-31 41t-31.5 43.5t-29.5 42q-75 -10 -141 -10q-168 0 -314.5 58t-251 159t-165 244t-60.5 307q0 163 60.5 306t165.5 244t251.5 159.5t313.5 58.5t313.5 -58t251.5 -159t165.5 -244
t60.5 -307q0 -289 -172 -494t-449 -258q7 -10 28.5 -41t30 -42.5t29 -39.5t32 -40t33 -34.5t37 -32.5t38.5 -25t44 -21.5t47.5 -11.5t53.5 -5q138 0 243 123l13 -10q-47 -60 -113 -95.5t-139 -35.5zM776 199q87 0 149.5 -48.5t127.5 -138.5q251 49 411 244t160 492
q0 173 -58.5 316.5t-158 237t-231.5 144.5t-281 51t-281 -51t-231.5 -144.5t-158 -237t-58.5 -316.5q0 -235 102.5 -407.5t276.5 -260.5q39 56 99.5 87.5t131.5 31.5zM895 -2q61 0 129 10q-63 85 -120.5 129.5t-135.5 44.5q-67 0 -121 -30t-84 -82q153 -72 332 -72z" />
    <glyph glyph-name="R" unicode="R" horiz-adv-x="1329" 
d="M608 1477h-350v-732h320q540 0 540 373q0 120 -47.5 197.5t-161.5 119.5t-301 42zM258 729v-729h-53v1495h416q273 0 410.5 -88t137.5 -279q0 -109 -62 -196t-159 -134.5t-213 -56.5q182 -3 287 -99t125 -253l47 -389h-49l-35 309q-11 97 -28.5 161t-50 117t-85.5 82
t-130.5 44.5t-188.5 15.5h-369z" />
    <glyph glyph-name="S" unicode="S" horiz-adv-x="1234" 
d="M649 -23q-76 0 -148.5 15.5t-141.5 50.5t-123 86t-92.5 126t-51.5 167l64 16q5 -127 80.5 -230t189 -157.5t236.5 -54.5q188 0 305.5 86t117.5 256q0 77 -31.5 139t-85 104t-122.5 77t-145.5 63t-153.5 56t-146 63t-122.5 76.5t-85 103t-31.5 137.5q0 169 118 264t300 95
q70 0 133.5 -11.5t126.5 -39.5t112 -71.5t87 -112t55 -155.5l-62 -16q-13 100 -55 176.5t-105 121.5t-137.5 67t-159.5 22q-105 0 -189.5 -32.5t-137.5 -103t-53 -169.5q0 -74 31.5 -133.5t85.5 -100.5t123.5 -75t146.5 -62t153.5 -56.5t146 -63t123.5 -77t85.5 -104
t31.5 -137.5q0 -84 -25 -152.5t-68.5 -115.5t-103.5 -78.5t-129 -45.5t-147 -14z" />
    <glyph glyph-name="T" unicode="T" horiz-adv-x="1255" 
d="M1225 1464l-549 23v-1487h-55v1487l-590 -23v31h1194v-31z" />
    <glyph glyph-name="U" unicode="U" horiz-adv-x="1394" 
d="M1214 623q0 -343 -115 -493t-378 -150q-272 0 -406.5 137t-134.5 415v963h56v-965q0 -524 505 -524q241 0 347 138.5t106 453.5v897h20v-872z" />
    <glyph glyph-name="V" unicode="V" horiz-adv-x="1335" 
d="M647 -10l-610 1505h61l590 -1481l580 1481h32l-608 -1505h-45z" />
    <glyph glyph-name="W" unicode="W" horiz-adv-x="2068" 
d="M555 -10l-510 1505h59l490 -1472l426 1314l-53 158h59l490 -1472l477 1472h32l-505 -1505h-43l-443 1302l-436 -1302h-43z" />
    <glyph glyph-name="X" unicode="X" horiz-adv-x="1228" 
d="M1135 0l-537 780l-520 -780h-43l553 797l-482 698h64l459 -672l467 672h43l-500 -684l555 -811h-59z" />
    <glyph glyph-name="Y" unicode="Y" horiz-adv-x="1138" 
d="M618 0h-55v649l-540 846h67l516 -811l469 811h37l-494 -831v-664z" />
    <glyph glyph-name="Z" unicode="Z" horiz-adv-x="1187" 
d="M57 0v4l1000 1481l-971 -21v31h1040v-4l-999 -1481l1036 21v-31h-1106z" />
    <glyph glyph-name="bracketleft" unicode="[" horiz-adv-x="696" 
d="M162 -176v1806h477v-20h-436v-1766h436v-20h-477z" />
    <glyph glyph-name="backslash" unicode="\" horiz-adv-x="862" 
d="M907 -176h-33l-913 1806h33z" />
    <glyph glyph-name="bracketright" unicode="]" horiz-adv-x="696" 
d="M57 -176v20h437v1766h-437v20h478v-1806h-478z" />
    <glyph glyph-name="asciicircum" unicode="^" 
d="M866 549l-352 921l-352 -923h-35l365 948h43l364 -946h-33z" />
    <glyph glyph-name="underscore" unicode="_" horiz-adv-x="1091" 
d="M33 -152v29h1028v-29h-1028z" />
    <glyph glyph-name="grave" unicode="`" 
d="M434 1536l129 -391h-10l-215 391h96z" />
    <glyph glyph-name="a" unicode="a" horiz-adv-x="1081" 
d="M504 4q43 0 89.5 13t92.5 39.5t82.5 63t59 88.5t22.5 111v113q-119 92 -344 92q-152 0 -246 -69.5t-94 -184.5q0 -127 89 -196.5t249 -69.5zM854 0v254q-39 -125 -141 -199.5t-246 -74.5q-160 0 -260.5 73t-100.5 193q0 77 31.5 134.5t87.5 91.5t128 50.5t159 16.5
q88 0 185 -25.5t153 -69.5v203q0 182 -75 261t-228 79q-127 0 -208.5 -63t-127.5 -207l-45 6q46 137 143.5 209t239.5 72q79 0 139.5 -19t110 -62.5t76 -122t26.5 -190.5v-610h-47z" />
    <glyph glyph-name="b" unicode="b" horiz-adv-x="1206" 
d="M625 -20q-140 0 -240.5 83.5t-138.5 251.5v-315h-51v1495h51v-803q39 155 146 233.5t243 78.5q196 0 318 -136t122 -356q0 -258 -123 -395t-327 -137zM606 2q82 0 153.5 28.5t130 86t92.5 154.5t34 223q0 230 -111.5 358.5t-304.5 128.5q-67 0 -130.5 -30t-116.5 -87.5
t-85 -155t-32 -219.5q0 -217 103.5 -352t266.5 -135z" />
    <glyph glyph-name="c" unicode="c" horiz-adv-x="1116" 
d="M981 692l-47 -14q-11 86 -45.5 148.5t-85.5 96.5t-107 49t-121 15q-176 0 -283.5 -123t-107.5 -344q0 -248 112.5 -379t317.5 -131q89 0 162 32.5t117.5 85t69 114t26.5 123.5l17 -3q-11 -171 -128 -276.5t-300 -105.5q-97 0 -178 33.5t-141.5 97.5t-94 164.5
t-33.5 228.5q0 119 36 215t98 157.5t143.5 94.5t175.5 33q53 0 102 -9t98.5 -31.5t88.5 -57t68 -89.5t40 -125z" />
    <glyph glyph-name="d" unicode="d" horiz-adv-x="1206" 
d="M606 2q53 0 104.5 18t99 57.5t83 96t57 139t21.5 181.5q0 217 -103.5 352t-267.5 135q-82 0 -153.5 -28t-130 -84t-92.5 -151t-34 -218q0 -235 111.5 -366.5t304.5 -131.5zM961 0v291q-26 -104 -87.5 -176t-138 -103.5t-164.5 -31.5q-196 0 -318 138t-122 363
q0 253 123.5 388t327.5 135q140 0 240.5 -84t138.5 -252v827h51v-1495h-51z" />
    <glyph glyph-name="e" unicode="e" horiz-adv-x="1157" 
d="M1024 356q-70 -376 -449 -376q-86 0 -164 31t-142 90.5t-102 158.5t-38 225q0 235 130 377t345 142q193 0 307.5 -134t114.5 -338v-6h-844q3 -256 124 -387t327 -131q149 0 250 97t125 253zM596 987q-190 0 -302 -124.5t-112 -315.5h795q-10 192 -108 316t-273 124z" />
    <glyph glyph-name="f" unicode="f" horiz-adv-x="692" 
d="M670 952l-367 9v-961h-51v958l-223 5v10l223 4v67q0 228 101.5 347.5t295.5 119.5q79 0 137 -30l-14 -58q-73 45 -194 45q-133 0 -214 -90t-81 -237q0 -52 20 -166l367 8v-31z" />
    <glyph glyph-name="g" unicode="g" horiz-adv-x="1153" 
d="M555 307q164 0 256 87t92 253q0 167 -91 253.5t-257 86.5q-161 0 -254.5 -87.5t-93.5 -252.5q0 -166 92 -253t256 -87zM551 -430q-133 0 -238 28.5t-171 90.5t-66 151q0 119 81 189.5t218 93.5q-83 -10 -105 -10q-47 0 -77.5 22.5t-30.5 57.5q0 116 305 104
q-146 22 -231.5 112.5t-85.5 237.5q0 165 117 261t288 96q83 0 154 -21h413v-47l-374 33q100 -39 156.5 -121.5t56.5 -200.5q0 -168 -110.5 -262t-287.5 -94h-6q-187 0 -272.5 -25.5t-85.5 -79.5q0 -59 102 -59q57 0 162 12v-8q-330 -54 -330 -274q0 -69 33 -122t91.5 -85
t133.5 -48t164 -16q403 0 403 305q0 101 -71 195l2 6h61q51 -53 51 -160q0 -177 -121.5 -269.5t-328.5 -92.5z" />
    <glyph glyph-name="h" unicode="h" horiz-adv-x="1214" 
d="M246 528v-528h-51v1536h51v-864q20 108 83 184.5t148.5 112t184.5 35.5q174 0 274 -101.5t100 -304.5v-598h-51v575q0 199 -86 299.5t-244 100.5q-88 0 -160 -25t-129 -77t-88.5 -140t-31.5 -205z" />
    <glyph glyph-name="i" unicode="i" horiz-adv-x="440" 
d="M221 1241q-29 0 -46 19t-17 51q0 30 17 48.5t46 18.5q30 0 48 -18.5t18 -48.5q0 -32 -17.5 -51t-48.5 -19zM246 983v-983h-51v983h51z" />
    <glyph glyph-name="j" unicode="j" horiz-adv-x="440" 
d="M219 1241q-29 0 -46 19t-17 51q0 30 17 48.5t46 18.5q30 0 48 -18.5t18 -48.5q0 -32 -17.5 -51t-48.5 -19zM72 -414q-36 0 -72.5 16t-58.5 40l39 51q46 -66 126 -66q53 0 86 34t33 101q0 42 -30 119v1102h51v-1155q0 -54 -7.5 -94.5t-26 -75.5t-54 -53.5t-86.5 -18.5z
" />
    <glyph glyph-name="k" unicode="k" horiz-adv-x="1009" 
d="M246 422v-422h-51v1495h51v-1055l583 543h41l-401 -360l500 -623h-54l-477 594z" />
    <glyph glyph-name="l" unicode="l" horiz-adv-x="440" 
d="M246 1495v-1495h-51v1495h51z" />
    <glyph glyph-name="m" unicode="m" horiz-adv-x="1964" 
d="M246 528v-528h-51v983h51v-311q20 108 83 184.5t148.5 112t184.5 35.5q147 0 240 -83.5t110 -248.5h4q20 108 83 184.5t148.5 112t184.5 35.5q164 0 259 -101.5t95 -304.5v-598h-51v575q0 199 -80.5 299.5t-229.5 100.5q-88 0 -160 -25t-129 -77t-88.5 -140t-31.5 -205
v-528h-51v575q0 199 -80.5 299.5t-229.5 100.5q-88 0 -160 -25t-129 -77t-88.5 -140t-31.5 -205z" />
    <glyph glyph-name="n" unicode="n" horiz-adv-x="1214" 
d="M246 528v-528h-51v983h51v-311q20 108 83 184.5t148.5 112t184.5 35.5q174 0 274 -101.5t100 -304.5v-598h-51v575q0 199 -86 299.5t-244 100.5q-88 0 -160 -25t-129 -77t-88.5 -140t-31.5 -205z" />
    <glyph glyph-name="o" unicode="o" horiz-adv-x="1249" 
d="M625 1004q218 0 359.5 -140t141.5 -372t-141.5 -372t-359.5 -140t-360 140t-142 372t142 372t360 140zM625 -4q205 0 323.5 133.5t118.5 362.5t-118.5 362t-323.5 133t-324 -133t-119 -362t119 -362.5t324 -133.5z" />
    <glyph glyph-name="p" unicode="p" horiz-adv-x="1206" 
d="M606 2q82 0 153.5 28.5t130 86t92.5 154.5t34 223q0 230 -111.5 358.5t-304.5 128.5q-67 0 -130.5 -30t-116.5 -87.5t-85 -155t-32 -219.5q0 -217 103.5 -352t266.5 -135zM625 -20q-140 0 -240.5 83.5t-138.5 251.5v-725h-51v1434h51v-332q39 155 146 233.5t243 78.5
q196 0 318 -136t122 -356q0 -258 -123 -395t-327 -137z" />
    <glyph glyph-name="q" unicode="q" horiz-adv-x="1206" 
d="M1012 -410h-51v701q-26 -104 -87.5 -176t-138 -103.5t-164.5 -31.5q-196 0 -318 138t-122 363q0 253 123.5 388t327.5 135q140 0 240.5 -84t138.5 -252v356h51v-1434zM600 981q-82 0 -153.5 -28t-130 -84t-92.5 -151t-34 -218q0 -235 111.5 -366.5t304.5 -131.5
q53 0 104.5 18t99 57.5t83 96t57 139t21.5 181.5q0 217 -103.5 352t-267.5 135z" />
    <glyph glyph-name="r" unicode="r" horiz-adv-x="763" 
d="M246 0h-51v983h47v-297q44 318 301 318q115 0 190 -64l-22 -43q-80 74 -191 74q-62 0 -111.5 -24t-79 -61t-49 -86t-27 -94t-7.5 -90v-616z" />
    <glyph glyph-name="s" unicode="s" horiz-adv-x="999" 
d="M549 -4q129 0 213 68.5t84 166.5q0 104 -64.5 159t-177.5 81l-205 47q-56 13 -98 29.5t-78.5 43.5t-56 68.5t-19.5 96.5q0 45 19 87.5t58 79.5t108.5 59t159.5 22q146 0 239.5 -61t124.5 -175l-47 -10q-30 109 -115.5 169t-201.5 60q-85 0 -148 -21.5t-95 -57
t-46.5 -73.5t-14.5 -79q0 -60 32 -102t78.5 -63t115.5 -36l196 -43q62 -14 107.5 -32.5t86 -49.5t62 -78.5t21.5 -111.5q0 -112 -99.5 -186t-238.5 -74q-371 0 -447 284l56 10q27 -135 134.5 -206.5t256.5 -71.5z" />
    <glyph glyph-name="t" unicode="t" horiz-adv-x="835" 
d="M760 246q-12 -121 -81 -193.5t-183 -72.5q-140 0 -197 77.5t-57 227.5v676l-236 4v10l236 4v281l41 38h10v-321l448 8v-31l-448 9v-682q0 -144 52 -211.5t177 -67.5q100 0 158.5 69t67.5 179z" />
    <glyph glyph-name="u" unicode="u" horiz-adv-x="1183" 
d="M938 305q-15 -81 -59.5 -145t-106 -102.5t-128.5 -58t-134 -19.5q-332 0 -332 382v621h51v-598q0 -186 78 -281.5t232 -95.5q76 0 144.5 25t127 75t93 136.5t34.5 199.5v539h51v-983h-51v305z" />
    <glyph glyph-name="v" unicode="v" horiz-adv-x="948" 
d="M494 0l-7 14l5 -14h-43l-396 983h56l374 -956l2 -9l377 965h37z" />
    <glyph glyph-name="w" unicode="w" horiz-adv-x="1556" 
d="M451 0l-7 14l5 -14h-43l-345 983h56l323 -956l2 -9l320 947l-6 18h55l324 -956l2 -9l325 965h37l-354 -983l-6 14l4 -14h-43l-320 913z" />
    <glyph glyph-name="x" unicode="x" horiz-adv-x="919" 
d="M807 0l-350 489l-369 -489h-43l399 504l-342 479h60l319 -446l316 446h43l-346 -463l372 -520h-59z" />
    <glyph glyph-name="y" unicode="y" horiz-adv-x="948" 
d="M143 -420q-68 0 -129 37l33 64q50 -41 127 -41q102 0 170 86q66 80 143 274h-30l-406 983h55l386 -956l2 -9l366 965h37l-395 -983l-33 -82q-70 -180 -146.5 -259t-179.5 -79z" />
    <glyph glyph-name="z" unicode="z" horiz-adv-x="911" 
d="M43 0v25l766 948l-680 -21v31h731v-25l-768 -946l748 19v-31h-797z" />
    <glyph glyph-name="braceleft" unicode="{" horiz-adv-x="696" 
d="M592 -164q-90 1 -156 21t-102.5 53.5t-53 71.5t-16.5 81q0 45 30 135.5t59.5 190t29.5 166.5v32t-4 30.5t-11 32.5t-22.5 26t-37.5 23.5t-57.5 13.5t-80.5 6h-16v16h16q45 0 80.5 6t57.5 13.5t37.5 23.5t22.5 26t11 32.5t4 30.5v32q0 67 -29.5 166.5t-59.5 190t-30 135.5
q0 43 16.5 81t53 71.5t102.5 53.5t156 21v-16q-82 -4 -140.5 -21.5t-88.5 -44.5t-43 -55t-13 -60q0 -58 32.5 -156.5t64.5 -202t32 -175.5q0 -66 -36.5 -105t-131.5 -55q95 -16 131.5 -55t36.5 -105q0 -73 -32 -176.5t-64.5 -201.5t-32.5 -156q0 -32 13 -60t43 -54.5
t88.5 -44t140.5 -21.5v-17z" />
    <glyph glyph-name="bar" unicode="|" horiz-adv-x="159" 
d="M94 -176h-28v1806h28v-1806z" />
    <glyph glyph-name="braceright" unicode="}" horiz-adv-x="696" 
d="M104 -164v17q82 4 140.5 21.5t88.5 44t43 54.5t13 60q0 58 -32.5 156t-64.5 201.5t-32 176.5q0 66 36.5 105t131.5 55q-95 16 -131.5 55t-36.5 105q0 72 32 175.5t64.5 202t32.5 156.5q0 32 -13 60t-43 55t-88.5 44.5t-140.5 21.5v16q90 -1 156 -21t102.5 -53.5t53 -71.5
t16.5 -81q0 -45 -30 -135.5t-59.5 -190t-29.5 -166.5v-32t4 -30.5t11 -32.5t22.5 -26t37.5 -23.5t57.5 -13.5t80.5 -6h17v-16h-17q-45 0 -80.5 -6t-57.5 -13.5t-37.5 -23.5t-22.5 -26t-11 -32.5t-4 -30.5v-32q0 -67 29.5 -166.5t59.5 -190t30 -135.5q0 -43 -16.5 -81
t-53 -71.5t-102.5 -53.5t-156 -21z" />
    <glyph glyph-name="asciitilde" unicode="~" 
d="M55 633h-39q65 149 228 149q58 0 133 -25t136 -55.5t136 -55.5t133 -25q135 0 187 116h39q-65 -149 -228 -149q-62 0 -141 25.5t-141 55.5t-134 55.5t-122 25.5q-134 0 -187 -117z" />
    <glyph glyph-name="uni00A0" unicode="&#xa0;" horiz-adv-x="532" 
 />
    <glyph glyph-name="exclamdown" unicode="&#xa1;" horiz-adv-x="591" 
d="M297 1106q34 0 59 -24.5t25 -59.5t-25 -58.5t-59 -23.5q-33 0 -57.5 23.5t-24.5 58.5t24.5 59.5t57.5 24.5zM256 -410l37 1098h8l37 -1098h-82z" />
    <glyph glyph-name="cent" unicode="&#xa2;" horiz-adv-x="1179" 
d="M1006 362q-11 -167 -121.5 -271.5t-286.5 -110.5v-240h-23v240q-198 0 -321 135.5t-123 388.5q0 119 35.5 215t96.5 157.5t141 94.5t171 33v196h23v-196q66 -2 124.5 -18t113.5 -50.5t93.5 -96.5t51.5 -147l-47 -14q-10 83 -42 143.5t-79.5 95t-100.5 51.5t-114 19v-977
h16q89 0 162 32.5t117.5 85t69 114t26.5 123.5zM184 520q0 -235 102 -365.5t289 -142.5v975q-176 0 -283.5 -123t-107.5 -344z" />
    <glyph glyph-name="sterling" unicode="&#xa3;" horiz-adv-x="1349" 
d="M344 2q38 0 75 13t70.5 40t56.5 75t27 112q-39 30 -93.5 49.5t-100.5 19.5q-88 0 -143.5 -47.5t-55.5 -120.5q0 -62 46.5 -101.5t117.5 -39.5zM1047 -18q-47 0 -96 13.5t-85 30t-82.5 48.5t-69 50t-65 54.5t-51.5 44.5q-26 -107 -91 -175t-159 -68q-83 0 -133.5 45.5
t-50.5 117.5q0 83 63 138t158 55q100 0 190 -64v2q0 100 -28 189t-80 196h-395v21h383q-15 28 -44 85.5t-44 86.5h-297v20h286q-69 156 -69 281q0 171 117.5 272t297.5 101q187 0 295 -111.5t95 -294.5l-52 4q26 172 -70 278.5t-272 106.5q-157 0 -253.5 -100.5
t-96.5 -259.5q0 -120 68 -277h612v-20h-602q47 -100 84 -172h518v-21h-508q90 -191 90 -317q0 -49 -8 -90q256 -215 445 -215q108 0 167.5 46t59.5 130q0 60 -44 108t-134 70l6 15q89 -21 143.5 -78.5t54.5 -141.5q0 -91 -78.5 -147.5t-174.5 -56.5z" />
    <glyph glyph-name="currency" unicode="&#xa4;" 
d="M954 348l-120 121q-128 -121 -306 -121q-181 0 -307 123l-123 -123l-22 25l123 123q-111 124 -111 292q0 89 33.5 170t93.5 142l-139 139l22 25l142 -142q124 105 288 105t285 -105l141 142l25 -23l-141 -141q129 -129 129 -312q0 -170 -111 -294l123 -123zM528 375
q170 0 287 121.5t117 291.5q0 169 -117 290.5t-287 121.5t-287.5 -121.5t-117.5 -290.5q0 -170 117.5 -291.5t287.5 -121.5z" />
    <glyph glyph-name="yen" unicode="&#xa5;" horiz-adv-x="1150" 
d="M1018 481h-391v-481h-56v481h-399v21h399v147h-399v21h387l-528 825h67l516 -811l469 811h37l-489 -825h387v-21h-391v-147h391v-21z" />
    <glyph glyph-name="brokenbar" unicode="&#xa6;" horiz-adv-x="159" 
d="M94 926h-28v704h28v-704zM66 -176v723h28v-723h-28z" />
    <glyph glyph-name="section" unicode="&#xa7;" horiz-adv-x="964" 
d="M154 766q0 -70 30.5 -123.5t83 -84t116 -45.5t136.5 -15q125 0 208 69t83 166q0 70 -30.5 123.5t-83.5 84t-116.5 45.5t-136.5 15q-125 0 -207.5 -69t-82.5 -166zM508 -6q-146 0 -240 60.5t-125 174.5l45 11q63 -230 320 -230q85 0 147.5 21.5t94.5 57.5t46.5 74t14.5 79
q0 51 -21.5 88.5t-64.5 61t-86.5 37t-108.5 26.5l-133 24q-284 54 -284 279q0 99 79 170t197 86q-50 12 -85.5 23.5t-74 31t-62 44t-39 61.5t-15.5 83t19 88t58 79t108 59t159 22q146 0 239.5 -60.5t124.5 -174.5l-45 -10q-63 229 -319 229q-85 0 -147.5 -21.5t-94.5 -57.5
t-46.5 -74t-14.5 -79q0 -50 20.5 -86.5t61.5 -60t83.5 -37.5t104.5 -26l145 -29q62 -13 109.5 -32t88.5 -50.5t63 -81t22 -113.5q0 -99 -79.5 -170t-197.5 -86q50 -12 86 -23.5t74.5 -31t62 -44t39 -61.5t15.5 -83t-19 -88t-58 -79t-108 -59t-159 -22z" />
    <glyph glyph-name="dieresis" unicode="&#xa8;" 
d="M287 1268q-31 0 -49.5 19.5t-18.5 53.5q0 31 19 51.5t49 20.5q32 0 50.5 -20.5t18.5 -51.5q0 -34 -18.5 -53.5t-50.5 -19.5zM739 1268q-31 0 -49 19.5t-18 53.5q0 31 18.5 51.5t48.5 20.5q32 0 51 -20.5t19 -51.5q0 -34 -19 -53.5t-51 -19.5z" />
    <glyph glyph-name="copyright" unicode="&#xa9;" horiz-adv-x="1867" 
d="M123 768q0 176 56.5 326.5t160 259.5t256.5 171t338 62t338 -62t256.5 -171.5t160 -260t56.5 -325.5t-56.5 -325.5t-160 -259t-256.5 -170.5t-338 -62q-246 0 -431.5 107t-282.5 291.5t-97 418.5zM147 768q0 -170 54 -316t153 -254t248.5 -170t331.5 -63t331.5 61
t248.5 170t152.5 255t53.5 317t-54 316.5t-153 254t-248.5 169t-330.5 61.5t-330.5 -61.5t-249 -169t-153.5 -254t-54 -316.5zM1335 936l-43 -12q-11 86 -45.5 148.5t-86 96.5t-107.5 49t-121 15q-179 0 -287 -115.5t-108 -324.5q0 -233 114 -356.5t320 -123.5q89 0 162 33
t117.5 86t69 114.5t26.5 123.5l16 -2q-11 -173 -127.5 -279t-300.5 -106q-196 0 -317 127.5t-121 365.5q0 113 35 204t95.5 149t141 89t172.5 31q53 0 102 -9t98 -31.5t87.5 -57t67.5 -89.5t40 -126z" />
    <glyph glyph-name="ordfeminine" unicode="&#xaa;" horiz-adv-x="806" 
d="M397 844q68 0 137.5 55.5t69.5 128.5v113q-35 17 -85.5 28t-90.5 11q-101 0 -161 -43.5t-60 -126.5q0 -86 53 -126t137 -40zM608 829v146q-31 -71 -101 -113.5t-142 -42.5q-84 0 -146.5 49.5t-62.5 137.5q0 91 78 140.5t188 49.5q107 0 182 -37v137q0 59 -14 98.5t-40 59
t-53.5 26.5t-64.5 7q-86 0 -136.5 -49.5t-76.5 -143.5l-45 9q71 202 260 202q103 0 157 -48.5t54 -168.5v-459h-37z" />
    <glyph glyph-name="guillemotleft" unicode="&#xab;" horiz-adv-x="1298" 
d="M664 1001v-10l-490 -471l490 -471v-10l-603 471v20zM1196 1001v-10l-489 -471l489 -471v-10l-602 471v20z" />
    <glyph glyph-name="logicalnot" unicode="&#xac;" 
d="M999 446h-30v359h-944v31h974v-390z" />
    <glyph glyph-name="uni00AD" unicode="&#xad;" horiz-adv-x="0" 
 />
    <glyph glyph-name="registered" unicode="&#xae;" horiz-adv-x="1200" 
d="M100 1075q0 226 136.5 369t363.5 143t363.5 -143.5t136.5 -368.5q0 -223 -136.5 -366.5t-363.5 -143.5t-363.5 143.5t-136.5 366.5zM127 1075q0 -142 55.5 -254t164 -177.5t253.5 -65.5q220 0 346.5 140t126.5 357q0 143 -56 256t-164.5 178.5t-252.5 65.5t-252.5 -65.5
t-164.5 -178.5t-56 -256zM530 1399h-92v-314h101q125 0 187 40t62 126q0 76 -63 112t-195 36zM438 1077v-307h-30v639h149q127 0 197.5 -39t70.5 -119q0 -74 -58 -118t-142 -52q64 -1 98 -12.5t57 -46.5t35 -104l27 -148h-39l-10 72q-7 46 -11 70.5t-11.5 53.5t-14.5 42.5
t-20.5 29t-27.5 20.5t-38 11t-50.5 7t-66.5 1h-115z" />
    <glyph glyph-name="macron" unicode="&#xaf;" 
d="M129 1296v27h766v-27h-766z" />
    <glyph glyph-name="degree" unicode="&#xb0;" horiz-adv-x="768" 
d="M385 956q-113 0 -192.5 83t-79.5 198q0 110 79.5 190t192.5 80t191.5 -80t78.5 -190q0 -115 -78.5 -198t-191.5 -83zM385 977q108 0 176 74t68 186q0 111 -68 181.5t-176 70.5q-107 0 -176.5 -71t-69.5 -181q0 -111 69.5 -185.5t176.5 -74.5z" />
    <glyph glyph-name="plusminus" unicode="&#xb1;" 
d="M498 244v442h-473v31h473v440h30v-440h471v-31h-471v-442h471v-31h-974v31h473z" />
    <glyph glyph-name="twosuperior" unicode="&#xb2;" horiz-adv-x="735" 
d="M59 686v35q89 48 175 113t160.5 140t120.5 159.5t46 158.5q0 203 -190 203q-89 0 -148 -54t-86 -153l-33 6q28 105 99 162t172 57q104 0 167.5 -55.5t63.5 -161.5q0 -73 -41 -151.5t-113 -151.5t-160 -139.5t-192 -126.5h553v-41h-594z" />
    <glyph glyph-name="threesuperior" unicode="&#xb3;" horiz-adv-x="712" 
d="M332 682q-60 0 -113.5 18.5t-95.5 64t-49 112.5l35 10q6 -93 71.5 -140t151.5 -47q114 0 182 58t68 162q0 46 -14 78.5t-48 58t-96 38.5t-154 13h-49v25h47q143 0 210 43t67 149q0 82 -56 126t-145 44q-180 0 -223 -182l-37 6q30 100 101 147t163 47q97 0 169.5 -49
t72.5 -139q0 -47 -16.5 -82.5t-40 -56.5t-61 -35.5t-68 -21t-72.5 -11.5q295 -9 295 -190q0 -118 -83 -182t-212 -64z" />
    <glyph glyph-name="acute" unicode="&#xb4;" 
d="M631 1536h96l-215 -391h-10z" />
    <glyph glyph-name="mu" unicode="&#xb5;" horiz-adv-x="1081" 
d="M178 -14v-396h-51v1393h51v-598q0 -186 78 -281.5t231 -95.5q76 0 144.5 25t127 75t93.5 136.5t35 199.5v539h51v-983h-51v303q-19 -106 -92 -181.5t-162 -108.5t-182 -33q-203 0 -279 149z" />
    <glyph glyph-name="paragraph" unicode="&#xb6;" horiz-adv-x="1028" 
d="M809 -178v1673h25v-1673h-25zM547 -178h-25v897q-160 2 -273.5 115t-113.5 274q0 159 114 273t273 114h25v-1673z" />
    <glyph glyph-name="periodcentered" unicode="&#xb7;" 
d="M512 702q-31 0 -49.5 20t-18.5 54q0 31 19 51.5t49 20.5q32 0 51 -20.5t19 -51.5q0 -34 -19 -54t-51 -20z" />
    <glyph glyph-name="cedilla" unicode="&#xb8;" 
d="M639 -418q-69 0 -115 33t-55 82l33 8q8 -51 41.5 -83t95.5 -32q57 0 98 36t41 114q0 75 -38.5 109t-90.5 34q-50 0 -80.5 -22.5t-58.5 -67.5h-12l80 201h12l-66 -164q51 64 135 64q61 0 109.5 -38t48.5 -108q0 -86 -54.5 -126t-123.5 -40z" />
    <glyph glyph-name="onesuperior" unicode="&#xb9;" horiz-adv-x="382" 
d="M240 672h-39v747l2 6q-44 -80 -172 -143l-4 18q151 76 188 195h25v-823z" />
    <glyph glyph-name="ordmasculine" unicode="&#xba;" horiz-adv-x="913" 
d="M457 809q-157 0 -256 100t-99 248t99 248t256 100t255.5 -100t98.5 -248t-98.5 -248t-255.5 -100zM457 827q56 0 109 20.5t97 59.5t70.5 104t26.5 146t-26.5 146t-70.5 104t-97 59.5t-109 20.5t-109 -20.5t-97 -59.5t-70.5 -104t-26.5 -146t26.5 -146t70.5 -104t97 -59.5
t109 -20.5z" />
    <glyph glyph-name="guillemotright" unicode="&#xbb;" horiz-adv-x="1298" 
d="M635 1001l602 -471v-20l-602 -471v10l489 471l-489 471v10zM102 1001l603 -471v-20l-603 -471v10l490 471l-490 471v10z" />
    <glyph glyph-name="onequarter" unicode="&#xbc;" horiz-adv-x="1271" 
d="M983 1495h27l-871 -1495h-26zM272 672h-39v747l3 6q-43 -80 -173 -143l-4 18q152 76 189 195h24v-823zM1243 201h-268v-201h-41v201h-334v8l268 614h45l-299 -614l320 6v285q26 18 41 53v-338l268 4v-18z" />
    <glyph glyph-name="onehalf" unicode="&#xbd;" horiz-adv-x="1294" 
d="M983 1495h27l-871 -1495h-26zM272 672h-39v747l3 6q-43 -80 -173 -143l-4 18q152 76 189 195h24v-823zM637 0v35q89 48 175 113t160.5 140t120.5 159.5t46 158.5q0 203 -191 203q-89 0 -147.5 -54t-85.5 -153l-33 6q28 105 99 162t171 57q104 0 168 -55.5t64 -161.5
q0 -73 -41 -151.5t-113 -151.5t-160 -139.5t-192 -126.5h553v-41h-594z" />
    <glyph glyph-name="threequarters" unicode="&#xbe;" horiz-adv-x="1566" 
d="M1266 1495h26l-870 -1495h-27zM324 682q-60 0 -113.5 18.5t-95.5 64t-49 112.5l34 10q6 -93 72 -140t152 -47q114 0 181.5 58t67.5 162q0 46 -14 78.5t-47.5 58t-95.5 38.5t-154 13h-49v25h47q143 0 210 43t67 149q0 82 -56 126t-145 44q-180 0 -223 -182l-37 6
q30 100 101 147t163 47q97 0 169.5 -49t72.5 -139q0 -47 -16.5 -82.5t-40 -56.5t-61 -35.5t-68 -21t-72.5 -11.5q294 -9 294 -190q0 -118 -82.5 -182t-211.5 -64zM1538 201h-268v-201h-41v201h-334v8l268 614h45l-299 -614l320 6v285q26 18 41 53v-338l268 4v-18z" />
    <glyph glyph-name="questiondown" unicode="&#xbf;" 
d="M621 1104q33 0 57 -24.5t24 -59.5t-24 -58.5t-57 -23.5q-34 0 -59 23.5t-25 58.5t25 59.5t59 24.5zM600 686h21v-256q-105 -34 -191 -78.5t-158 -104.5t-112.5 -140.5t-40.5 -172.5q0 -68 21 -125.5t57.5 -98.5t85.5 -69.5t105 -42.5t116 -14q151 0 267 86.5t159 247.5
l57 -8q-32 -115 -106 -194t-169 -114.5t-208 -35.5q-81 0 -157.5 21.5t-142 64t-105.5 115t-40 165.5q0 318 541 510v244z" />
    <glyph glyph-name="Agrave" unicode="&#xc0;" horiz-adv-x="1402" 
d="M545 2007l129 -391h-10l-215 391h96zM666 1479l-4 8l-377 -944h782zM1300 0l-223 522h-801l-208 -522h-33l620 1495h66l643 -1495h-64z" />
    <glyph glyph-name="Aacute" unicode="&#xc1;" horiz-adv-x="1402" 
d="M819 2007h96l-215 -391h-10zM666 1479l-4 8l-377 -944h782zM1300 0l-223 522h-801l-208 -522h-33l620 1495h66l643 -1495h-64z" />
    <glyph glyph-name="Acircumflex" unicode="&#xc2;" horiz-adv-x="1402" 
d="M932 1616l-240 334l-239 -334h-11l201 391h98l201 -391h-10zM666 1479l-4 8l-377 -944h782zM1300 0l-223 522h-801l-208 -522h-33l620 1495h66l643 -1495h-64z" />
    <glyph glyph-name="Atilde" unicode="&#xc3;" horiz-adv-x="1402" 
d="M328 1726l-15 5q32 99 82.5 141.5t134.5 42.5q59 0 180.5 -58.5t176.5 -58.5q74 0 117.5 33t72.5 117l15 -4q-32 -99 -83 -142t-135 -43q-59 0 -180 58.5t-176 58.5q-74 0 -117.5 -33t-72.5 -117zM666 1479l-4 8l-377 -944h782zM1300 0l-223 522h-801l-208 -522h-33
l620 1495h66l643 -1495h-64z" />
    <glyph glyph-name="Adieresis" unicode="&#xc4;" horiz-adv-x="1402" 
d="M481 1739q-31 0 -49 19.5t-18 53.5q0 31 18.5 51.5t48.5 20.5q32 0 51 -20.5t19 -51.5q0 -34 -19 -53.5t-51 -19.5zM934 1739q-31 0 -49.5 19.5t-18.5 53.5q0 31 19 51.5t49 20.5q32 0 51 -20.5t19 -51.5q0 -34 -19 -53.5t-51 -19.5zM666 1479l-4 8l-377 -944h782z
M1300 0l-223 522h-801l-208 -522h-33l620 1495h66l643 -1495h-64z" />
    <glyph glyph-name="Aring" unicode="&#xc5;" horiz-adv-x="1402" 
d="M682 1503q85 0 142 58.5t57 146.5q0 87 -57.5 144t-141.5 57t-142.5 -57t-58.5 -144q0 -89 58 -147t143 -58zM666 1479l-4 8l-377 -944h782zM276 522l-208 -522h-33l618 1489q-84 9 -139 70t-55 149q0 95 64 156t159 61t158 -60.5t63 -156.5q0 -85 -50.5 -145t-129.5 -72
l641 -1491h-64l-223 522h-801z" />
    <glyph glyph-name="AE" unicode="&#xc6;" horiz-adv-x="1880" 
d="M926 487v994l-574 -994h574zM926 0v467h-586l-268 -467h-43l884 1495h916v-31l-848 21v-701l797 13v-33l-797 8v-762l848 21v-31h-903z" />
    <glyph glyph-name="Ccedilla" unicode="&#xc7;" horiz-adv-x="1624" 
d="M918 -418q-69 0 -115 33t-55 82l32 8q8 -50 42 -82.5t96 -32.5q57 0 98 36t41 114q0 75 -38.5 109t-90.5 34q-50 0 -81 -22.5t-59 -67.5h-12l74 187q-221 6 -389.5 107.5t-259 275t-90.5 391.5q0 171 56 314t154.5 241t235 152.5t295.5 54.5q165 0 303 -58t231.5 -171.5
t118.5 -266.5l-59 -10q-16 147 -100.5 259t-214.5 170t-287 58q-143 0 -267 -51.5t-213.5 -144t-140.5 -228.5t-51 -297q0 -162 48.5 -302t137.5 -244t224.5 -163t300.5 -59q123 0 233.5 38.5t195 108.5t138 173.5t61.5 226.5h19q-13 -172 -104 -304t-234 -201.5t-315 -69.5
h-15l-59 -150q51 64 135 64q61 0 109.5 -38t48.5 -108q0 -86 -54.5 -126t-123.5 -40z" />
    <glyph glyph-name="Egrave" unicode="&#xc8;" horiz-adv-x="1159" 
d="M612 2048l129 -391h-10l-215 391h96zM205 0v1495h903v-31l-848 21v-701l797 13v-33l-797 8v-762l848 21v-31h-903z" />
    <glyph glyph-name="Eacute" unicode="&#xc9;" horiz-adv-x="1159" 
d="M702 2048h97l-215 -391h-11zM205 0v1495h903v-31l-848 21v-701l797 13v-33l-797 8v-762l848 21v-31h-903z" />
    <glyph glyph-name="Ecircumflex" unicode="&#xca;" horiz-adv-x="1159" 
d="M905 1657l-239 334l-240 -334h-10l200 391h99l200 -391h-10zM205 0v1495h903v-31l-848 21v-701l797 13v-33l-797 8v-762l848 21v-31h-903z" />
    <glyph glyph-name="Edieresis" unicode="&#xcb;" horiz-adv-x="1159" 
d="M446 1780q-31 0 -49 19.5t-18 53.5q0 31 18.5 51.5t48.5 20.5q32 0 51 -20.5t19 -51.5q0 -34 -19 -53.5t-51 -19.5zM899 1780q-31 0 -49.5 19.5t-18.5 53.5q0 31 19 51.5t49 20.5q32 0 51 -20.5t19 -51.5q0 -34 -19 -53.5t-51 -19.5zM205 0v1495h903v-31l-848 21v-701
l797 13v-33l-797 8v-762l848 21v-31h-903z" />
    <glyph glyph-name="Igrave" unicode="&#xcc;" horiz-adv-x="464" 
d="M96 2048l129 -391h-10l-215 391h96zM260 1495v-1495h-55v1495h55z" />
    <glyph glyph-name="Iacute" unicode="&#xcd;" horiz-adv-x="464" 
d="M350 2048h96l-215 -391h-10zM260 1495v-1495h-55v1495h55z" />
    <glyph glyph-name="Icircumflex" unicode="&#xce;" horiz-adv-x="462" 
d="M471 1657l-240 334l-239 -334h-10l200 391h99l200 -391h-10zM260 1495v-1495h-55v1495h55z" />
    <glyph glyph-name="Idieresis" unicode="&#xcf;" horiz-adv-x="466" 
d="M6 1780q-31 0 -49 19.5t-18 53.5q0 31 18.5 51.5t48.5 20.5q32 0 51 -20.5t19 -51.5q0 -34 -19 -53.5t-51 -19.5zM459 1780q-31 0 -49.5 19.5t-18.5 53.5q0 31 19 51.5t49 20.5q32 0 50.5 -20.5t18.5 -51.5q0 -34 -18.5 -53.5t-50.5 -19.5zM260 1495v-1495h-55v1495h55z
" />
    <glyph glyph-name="Eth" unicode="&#xd0;" horiz-adv-x="1554" 
d="M530 0h-325v754h-207v20h207v721h327q195 0 359.5 -46t291 -135.5t198 -234t71.5 -329.5q0 -149 -47 -272.5t-130.5 -211t-199.5 -148t-253 -89.5t-292 -29zM260 20h289q207 0 368.5 54.5t264.5 152.5t156 230.5t53 292.5q0 163 -50 293.5t-151 228t-265.5 150.5
t-381.5 53h-283v-701h643v-20h-643v-734z" />
    <glyph glyph-name="Ntilde" unicode="&#xd1;" horiz-adv-x="1605" 
d="M432 1726l-14 5q32 99 82.5 141.5t134.5 42.5q59 0 180 -58.5t176 -58.5q74 0 118.5 33t72.5 117l14 -4q-32 -99 -82.5 -142t-134.5 -43q-59 0 -180 58.5t-176 58.5q-74 0 -118.5 -33t-72.5 -117zM1380 0l-1155 1425v-1425h-20v1495h39l1136 -1409v1409h21v-1495h-21z
" />
    <glyph glyph-name="Ograve" unicode="&#xd2;" horiz-adv-x="1789" 
d="M817 2007l129 -391h-10l-215 391h96zM895 -20q-168 0 -314.5 58t-251 159t-165 244t-60.5 307q0 163 60.5 306t165.5 244t251.5 159.5t313.5 58.5t313.5 -58t251.5 -159t165.5 -244t60.5 -307q0 -165 -60.5 -308t-165 -244t-251 -158.5t-314.5 -57.5zM895 -2
q149 0 281 51t231.5 145t158 237.5t58.5 316.5t-58.5 316.5t-158 237t-231.5 144.5t-281 51t-281 -51t-231.5 -144.5t-158 -237t-58.5 -316.5t58.5 -316.5t158 -237.5t231.5 -145t281 -51z" />
    <glyph glyph-name="Oacute" unicode="&#xd3;" horiz-adv-x="1789" 
d="M1014 2007h96l-215 -391h-10zM895 -20q-168 0 -314.5 58t-251 159t-165 244t-60.5 307q0 163 60.5 306t165.5 244t251.5 159.5t313.5 58.5t313.5 -58t251.5 -159t165.5 -244t60.5 -307q0 -165 -60.5 -308t-165 -244t-251 -158.5t-314.5 -57.5zM895 -2q149 0 281 51
t231.5 145t158 237.5t58.5 316.5t-58.5 316.5t-158 237t-231.5 144.5t-281 51t-281 -51t-231.5 -144.5t-158 -237t-58.5 -316.5t58.5 -316.5t158 -237.5t231.5 -145t281 -51z" />
    <glyph glyph-name="Ocircumflex" unicode="&#xd4;" horiz-adv-x="1789" 
d="M1135 1616l-240 334l-240 -334h-10l201 391h98l201 -391h-10zM895 -20q-168 0 -314.5 58t-251 159t-165 244t-60.5 307q0 163 60.5 306t165.5 244t251.5 159.5t313.5 58.5t313.5 -58t251.5 -159t165.5 -244t60.5 -307q0 -165 -60.5 -308t-165 -244t-251 -158.5
t-314.5 -57.5zM895 -2q149 0 281 51t231.5 145t158 237.5t58.5 316.5t-58.5 316.5t-158 237t-231.5 144.5t-281 51t-281 -51t-231.5 -144.5t-158 -237t-58.5 -316.5t58.5 -316.5t158 -237.5t231.5 -145t281 -51z" />
    <glyph glyph-name="Otilde" unicode="&#xd5;" horiz-adv-x="1789" 
d="M520 1726l-14 5q32 99 82.5 141.5t134.5 42.5q59 0 180 -58.5t176 -58.5q74 0 118.5 33t72.5 117l14 -4q-32 -99 -82.5 -142t-134.5 -43q-59 0 -180 58.5t-176 58.5q-74 0 -118.5 -33t-72.5 -117zM895 -20q-168 0 -314.5 58t-251 159t-165 244t-60.5 307q0 163 60.5 306
t165.5 244t251.5 159.5t313.5 58.5t313.5 -58t251.5 -159t165.5 -244t60.5 -307q0 -165 -60.5 -308t-165 -244t-251 -158.5t-314.5 -57.5zM895 -2q149 0 281 51t231.5 145t158 237.5t58.5 316.5t-58.5 316.5t-158 237t-231.5 144.5t-281 51t-281 -51t-231.5 -144.5
t-158 -237t-58.5 -316.5t58.5 -316.5t158 -237.5t231.5 -145t281 -51z" />
    <glyph glyph-name="Odieresis" unicode="&#xd6;" horiz-adv-x="1789" 
d="M670 1739q-31 0 -49.5 19.5t-18.5 53.5q0 31 19 51.5t49 20.5q32 0 50.5 -20.5t18.5 -51.5q0 -34 -18.5 -53.5t-50.5 -19.5zM1122 1739q-31 0 -49 19.5t-18 53.5q0 31 18.5 51.5t48.5 20.5q32 0 51 -20.5t19 -51.5q0 -34 -19 -53.5t-51 -19.5zM895 -20q-168 0 -314.5 58
t-251 159t-165 244t-60.5 307q0 163 60.5 306t165.5 244t251.5 159.5t313.5 58.5t313.5 -58t251.5 -159t165.5 -244t60.5 -307q0 -165 -60.5 -308t-165 -244t-251 -158.5t-314.5 -57.5zM895 -2q149 0 281 51t231.5 145t158 237.5t58.5 316.5t-58.5 316.5t-158 237
t-231.5 144.5t-281 51t-281 -51t-231.5 -144.5t-158 -237t-58.5 -316.5t58.5 -316.5t158 -237.5t231.5 -145t281 -51z" />
    <glyph glyph-name="multiply" unicode="&#xd7;" 
d="M854 297l-342 342l-342 -342l-20 22l342 343l-342 339l22 21l340 -340l340 340l22 -21l-339 -339l339 -343z" />
    <glyph glyph-name="Oslash" unicode="&#xd8;" horiz-adv-x="1789" 
d="M895 -20q-166 0 -311 56t-252 159l-223 -215l-15 18l221 213q-101 103 -156 240.5t-55 296.5q0 163 60.5 306t165.5 244t251.5 159.5t313.5 58.5q164 0 308 -55t249 -156l225 215l17 -21l-224 -213q103 -103 159.5 -241t56.5 -297q0 -165 -60.5 -308t-165 -244
t-251 -158.5t-314.5 -57.5zM166 748q0 -307 176 -512l1085 1044q-99 105 -237 161t-295 56q-149 0 -281 -51t-231.5 -144.5t-158 -237t-58.5 -316.5zM895 -2q149 0 281 51t231.5 145t158 237.5t58.5 316.5q0 310 -178 514l-1088 -1043q101 -107 240.5 -164t296.5 -57z" />
    <glyph glyph-name="Ugrave" unicode="&#xd9;" horiz-adv-x="1394" 
d="M623 2048l129 -391h-11l-215 391h97zM1214 623q0 -343 -115 -493t-378 -150q-272 0 -406.5 137t-134.5 415v963h56v-965q0 -524 505 -524q241 0 347 138.5t106 453.5v897h20v-872z" />
    <glyph glyph-name="Uacute" unicode="&#xda;" horiz-adv-x="1394" 
d="M819 2048h96l-215 -391h-10zM1214 623q0 -343 -115 -493t-378 -150q-272 0 -406.5 137t-134.5 415v963h56v-965q0 -524 505 -524q241 0 347 138.5t106 453.5v897h20v-872z" />
    <glyph glyph-name="Ucircumflex" unicode="&#xdb;" horiz-adv-x="1394" 
d="M940 1657l-240 334l-239 -334h-10l200 391h99l200 -391h-10zM1214 623q0 -343 -115 -493t-378 -150q-272 0 -406.5 137t-134.5 415v963h56v-965q0 -524 505 -524q241 0 347 138.5t106 453.5v897h20v-872z" />
    <glyph glyph-name="Udieresis" unicode="&#xdc;" horiz-adv-x="1394" 
d="M475 1780q-31 0 -49 19.5t-18 53.5q0 31 18.5 51.5t48.5 20.5q32 0 51 -20.5t19 -51.5q0 -34 -19 -53.5t-51 -19.5zM928 1780q-31 0 -49.5 19.5t-18.5 53.5q0 31 19 51.5t49 20.5q32 0 50.5 -20.5t18.5 -51.5q0 -34 -18.5 -53.5t-50.5 -19.5zM1214 623q0 -343 -115 -493
t-378 -150q-272 0 -406.5 137t-134.5 415v963h56v-965q0 -524 505 -524q241 0 347 138.5t106 453.5v897h20v-872z" />
    <glyph glyph-name="Yacute" unicode="&#xdd;" horiz-adv-x="1138" 
d="M688 2048h96l-215 -391h-10zM618 0h-55v649l-540 846h67l516 -811l469 811h37l-494 -831v-664z" />
    <glyph glyph-name="Thorn" unicode="&#xde;" horiz-adv-x="1249" 
d="M256 0h-51v1497h51v-244h145q391 0 582 -113t191 -341q0 -249 -186 -363t-611 -114h-121v-322zM416 1233h-160v-891h160q120 0 219 11.5t192 41.5t156 78t101 125.5t38 179.5q0 103 -32.5 181.5t-91.5 130t-148.5 84t-194.5 46t-239 13.5z" />
    <glyph glyph-name="germandbls" unicode="&#xdf;" horiz-adv-x="1306" 
d="M915 -20q-60 0 -115.5 17.5t-105 52.5t-84.5 96t-47 141l31 6q7 -53 30.5 -103t62.5 -94.5t100.5 -72t136.5 -27.5q109 0 187.5 54.5t78.5 148.5q0 37 -6 64.5t-25.5 65t-64 79.5t-115.5 88l-166 108q-88 57 -140 118.5t-52 141.5q0 63 17 115t53.5 97t74.5 78.5
t100 78.5l133 98q-80 84 -180.5 126t-195.5 42q-177 0 -287.5 -116t-110.5 -302q0 -51 11 -120v-961h-41v1016q0 233 117.5 366.5t320.5 133.5q107 0 214.5 -51t180.5 -134l-156 -112q-213 -156 -213 -324q0 -142 195 -264l121 -76q81 -51 133.5 -96.5t77.5 -86.5t33 -73.5
t8 -73.5q0 -81 -44.5 -138t-113.5 -82t-154 -25z" />
    <glyph glyph-name="agrave" unicode="&#xe0;" horiz-adv-x="1081" 
d="M459 1536l129 -391h-10l-216 391h97zM504 4q43 0 89.5 13t92.5 39.5t82.5 63t59 88.5t22.5 111v113q-119 92 -344 92q-152 0 -246 -69.5t-94 -184.5q0 -127 89 -196.5t249 -69.5zM854 0v254q-39 -125 -141 -199.5t-246 -74.5q-160 0 -260.5 73t-100.5 193
q0 77 31.5 134.5t87.5 91.5t128 50.5t159 16.5q88 0 185 -25.5t153 -69.5v203q0 182 -75 261t-228 79q-127 0 -208.5 -63t-127.5 -207l-45 6q46 137 143.5 209t239.5 72q79 0 139.5 -19t110 -62.5t76 -122t26.5 -190.5v-610h-47z" />
    <glyph glyph-name="aacute" unicode="&#xe1;" horiz-adv-x="1081" 
d="M655 1536h97l-215 -391h-11zM504 4q43 0 89.5 13t92.5 39.5t82.5 63t59 88.5t22.5 111v113q-119 92 -344 92q-152 0 -246 -69.5t-94 -184.5q0 -127 89 -196.5t249 -69.5zM854 0v254q-39 -125 -141 -199.5t-246 -74.5q-160 0 -260.5 73t-100.5 193q0 77 31.5 134.5
t87.5 91.5t128 50.5t159 16.5q88 0 185 -25.5t153 -69.5v203q0 182 -75 261t-228 79q-127 0 -208.5 -63t-127.5 -207l-45 6q46 137 143.5 209t239.5 72q79 0 139.5 -19t110 -62.5t76 -122t26.5 -190.5v-610h-47z" />
    <glyph glyph-name="acircumflex" unicode="&#xe2;" horiz-adv-x="1081" 
d="M776 1145l-239 334l-240 -334h-10l200 391h99l200 -391h-10zM504 4q43 0 89.5 13t92.5 39.5t82.5 63t59 88.5t22.5 111v113q-119 92 -344 92q-152 0 -246 -69.5t-94 -184.5q0 -127 89 -196.5t249 -69.5zM854 0v254q-39 -125 -141 -199.5t-246 -74.5q-160 0 -260.5 73
t-100.5 193q0 77 31.5 134.5t87.5 91.5t128 50.5t159 16.5q88 0 185 -25.5t153 -69.5v203q0 182 -75 261t-228 79q-127 0 -208.5 -63t-127.5 -207l-45 6q46 137 143.5 209t239.5 72q79 0 139.5 -19t110 -62.5t76 -122t26.5 -190.5v-610h-47z" />
    <glyph glyph-name="atilde" unicode="&#xe3;" horiz-adv-x="1081" 
d="M162 1255l-15 5q32 98 82.5 141t135.5 43q59 0 180 -58.5t176 -58.5q74 0 117.5 33t72.5 117l15 -4q-32 -99 -82.5 -142t-134.5 -43q-59 0 -180.5 58.5t-176.5 58.5q-74 0 -117.5 -33t-72.5 -117zM504 4q43 0 89.5 13t92.5 39.5t82.5 63t59 88.5t22.5 111v113
q-119 92 -344 92q-152 0 -246 -69.5t-94 -184.5q0 -127 89 -196.5t249 -69.5zM854 0v254q-39 -125 -141 -199.5t-246 -74.5q-160 0 -260.5 73t-100.5 193q0 77 31.5 134.5t87.5 91.5t128 50.5t159 16.5q88 0 185 -25.5t153 -69.5v203q0 182 -75 261t-228 79
q-127 0 -208.5 -63t-127.5 -207l-45 6q46 137 143.5 209t239.5 72q79 0 139.5 -19t110 -62.5t76 -122t26.5 -190.5v-610h-47z" />
    <glyph glyph-name="adieresis" unicode="&#xe4;" horiz-adv-x="1081" 
d="M311 1268q-31 0 -49 19.5t-18 53.5q0 31 18.5 51.5t48.5 20.5q32 0 51 -20.5t19 -51.5q0 -34 -19 -53.5t-51 -19.5zM764 1268q-31 0 -49.5 19.5t-18.5 53.5q0 31 19 51.5t49 20.5q32 0 51 -20.5t19 -51.5q0 -34 -19 -53.5t-51 -19.5zM504 4q43 0 89.5 13t92.5 39.5
t82.5 63t59 88.5t22.5 111v113q-119 92 -344 92q-152 0 -246 -69.5t-94 -184.5q0 -127 89 -196.5t249 -69.5zM854 0v254q-39 -125 -141 -199.5t-246 -74.5q-160 0 -260.5 73t-100.5 193q0 77 31.5 134.5t87.5 91.5t128 50.5t159 16.5q88 0 185 -25.5t153 -69.5v203
q0 182 -75 261t-228 79q-127 0 -208.5 -63t-127.5 -207l-45 6q46 137 143.5 209t239.5 72q79 0 139.5 -19t110 -62.5t76 -122t26.5 -190.5v-610h-47z" />
    <glyph glyph-name="aring" unicode="&#xe5;" horiz-adv-x="1081" 
d="M539 1210q-95 0 -159.5 63t-64.5 159q0 95 64.5 156t159.5 61t158 -60.5t63 -156.5t-63.5 -159t-157.5 -63zM539 1227q85 0 141.5 58.5t56.5 146.5q0 87 -57 143.5t-141 56.5t-142.5 -56.5t-58.5 -143.5q0 -89 58 -147t143 -58zM504 4q43 0 89.5 13t92.5 39.5t82.5 63
t59 88.5t22.5 111v113q-119 92 -344 92q-152 0 -246 -69.5t-94 -184.5q0 -127 89 -196.5t249 -69.5zM854 0v254q-39 -125 -141 -199.5t-246 -74.5q-160 0 -260.5 73t-100.5 193q0 77 31.5 134.5t87.5 91.5t128 50.5t159 16.5q88 0 185 -25.5t153 -69.5v203q0 182 -75 261
t-228 79q-127 0 -208.5 -63t-127.5 -207l-45 6q46 137 143.5 209t239.5 72q79 0 139.5 -19t110 -62.5t76 -122t26.5 -190.5v-610h-47z" />
    <glyph glyph-name="ae" unicode="&#xe6;" horiz-adv-x="1882" 
d="M901 578v-31h803q-6 125 -53.5 223.5t-138 157.5t-209.5 59q-175 0 -288.5 -117.5t-113.5 -291.5zM1282 -20q-138 0 -251 79t-157 228q-42 -131 -152 -219t-255 -88q-160 0 -260.5 73t-100.5 193q0 77 31.5 134.5t87.5 91.5t128 50.5t159 16.5q88 0 185 -25.5t153 -69.5
v203q0 183 -76.5 261.5t-236.5 78.5q-120 0 -201.5 -63.5t-124.5 -206.5l-45 6q46 137 143.5 209t239.5 72q296 0 342 -273q56 129 164.5 201t255.5 72q198 0 320 -134t122 -338v-6h-852q0 -135 33 -236t93.5 -162t138 -90.5t173.5 -29.5q158 0 265 97t131 253l16 -2
q-70 -376 -469 -376zM504 4q43 0 89.5 13t92.5 39.5t82.5 63t59 88.5t22.5 111v113q-119 92 -344 92q-152 0 -246 -69.5t-94 -184.5q0 -127 89 -196.5t249 -69.5z" />
    <glyph glyph-name="ccedilla" unicode="&#xe7;" horiz-adv-x="1116" 
d="M631 -418q-69 0 -115 33t-55 82l33 8q8 -51 41.5 -83t95.5 -32q57 0 98 36t41 114q0 75 -38.5 109t-90.5 34q-50 0 -80.5 -22.5t-58.5 -67.5h-13l74 187q-193 5 -312.5 140.5t-119.5 383.5q0 119 36 215t98 157.5t143.5 94.5t175.5 33q53 0 102 -9t98.5 -31.5t88.5 -57
t68 -89.5t40 -125l-47 -14q-11 86 -45.5 148.5t-85.5 96.5t-107 49t-121 15q-176 0 -283.5 -123t-107.5 -344q0 -248 112.5 -379t317.5 -131q89 0 162 32.5t117.5 85t69 114t26.5 123.5l17 -3q-11 -171 -128 -276.5t-300 -105.5h-3l-59 -150q51 64 135 64q61 0 109.5 -38
t48.5 -108q0 -86 -54.5 -126t-123.5 -40z" />
    <glyph glyph-name="egrave" unicode="&#xe8;" horiz-adv-x="1157" 
d="M504 1536l129 -391h-10l-215 391h96zM1024 356q-70 -376 -449 -376q-86 0 -164 31t-142 90.5t-102 158.5t-38 225q0 235 130 377t345 142q193 0 307.5 -134t114.5 -338v-6h-844q3 -256 124 -387t327 -131q149 0 250 97t125 253zM596 987q-190 0 -302 -124.5t-112 -315.5
h795q-10 192 -108 316t-273 124z" />
    <glyph glyph-name="eacute" unicode="&#xe9;" horiz-adv-x="1157" 
d="M700 1536h97l-215 -391h-11zM1024 356q-70 -376 -449 -376q-86 0 -164 31t-142 90.5t-102 158.5t-38 225q0 235 130 377t345 142q193 0 307.5 -134t114.5 -338v-6h-844q3 -256 124 -387t327 -131q149 0 250 97t125 253zM596 987q-190 0 -302 -124.5t-112 -315.5h795
q-10 192 -108 316t-273 124z" />
    <glyph glyph-name="ecircumflex" unicode="&#xea;" horiz-adv-x="1157" 
d="M821 1145l-239 334l-240 -334h-10l200 391h99l200 -391h-10zM1024 356q-70 -376 -449 -376q-86 0 -164 31t-142 90.5t-102 158.5t-38 225q0 235 130 377t345 142q193 0 307.5 -134t114.5 -338v-6h-844q3 -256 124 -387t327 -131q149 0 250 97t125 253zM596 987
q-190 0 -302 -124.5t-112 -315.5h795q-10 192 -108 316t-273 124z" />
    <glyph glyph-name="edieresis" unicode="&#xeb;" horiz-adv-x="1157" 
d="M356 1268q-31 0 -49 19.5t-18 53.5q0 31 18.5 51.5t48.5 20.5q32 0 51 -20.5t19 -51.5q0 -34 -19 -53.5t-51 -19.5zM809 1268q-31 0 -49.5 19.5t-18.5 53.5q0 31 19 51.5t49 20.5q32 0 51 -20.5t19 -51.5q0 -34 -19 -53.5t-51 -19.5zM1024 356q-70 -376 -449 -376
q-86 0 -164 31t-142 90.5t-102 158.5t-38 225q0 235 130 377t345 142q193 0 307.5 -134t114.5 -338v-6h-844q3 -256 124 -387t327 -131q149 0 250 97t125 253zM596 987q-190 0 -302 -124.5t-112 -315.5h795q-10 192 -108 316t-273 124z" />
    <glyph glyph-name="igrave" unicode="&#xec;" horiz-adv-x="440" 
d="M94 1536l129 -391h-10l-215 391h96zM246 983v-983h-51v983h51z" />
    <glyph glyph-name="iacute" unicode="&#xed;" horiz-adv-x="440" 
d="M338 1536h96l-215 -391h-10zM246 983v-983h-51v983h51z" />
    <glyph glyph-name="icircumflex" unicode="&#xee;" horiz-adv-x="440" 
d="M459 1145l-240 334l-239 -334h-11l201 391h98l201 -391h-10zM246 983v-983h-51v983h51z" />
    <glyph glyph-name="idieresis" unicode="&#xef;" horiz-adv-x="440" 
d="M-6 1268q-31 0 -49.5 19.5t-18.5 53.5q0 31 19 51.5t49 20.5q32 0 50.5 -20.5t18.5 -51.5q0 -34 -18.5 -53.5t-50.5 -19.5zM446 1268q-31 0 -49 19.5t-18 53.5q0 31 18.5 51.5t48.5 20.5q32 0 51 -20.5t19 -51.5q0 -34 -19 -53.5t-51 -19.5zM246 983v-983h-51v983h51z
" />
    <glyph glyph-name="eth" unicode="&#xf0;" horiz-adv-x="1204" 
d="M584 -20q-67 0 -131.5 18t-125 58t-106 97.5t-73 143.5t-27.5 190q0 144 67 253t179 165t251 56q97 0 174 -31.5t152 -91.5q-86 211 -287 405l-374 -117l-7 21l363 113q-134 129 -348 276h53q169 -102 334 -264l366 114l9 -18l-357 -113q166 -166 268.5 -353.5
t102.5 -383.5q0 -241 -129.5 -389.5t-353.5 -148.5zM584 -4q136 0 235 65t147 173t48 245q0 176 -60 330q-135 129 -333 129t-320.5 -127.5t-122.5 -337.5q0 -91 23.5 -170t63.5 -134.5t92 -95t110 -58.5t117 -19z" />
    <glyph glyph-name="ntilde" unicode="&#xf1;" horiz-adv-x="1214" 
d="M238 1255l-15 5q32 99 82.5 141.5t134.5 42.5q59 0 180.5 -58.5t176.5 -58.5q74 0 117.5 33t72.5 117l14 -4q-32 -99 -82.5 -142t-134.5 -43q-59 0 -180 58.5t-176 58.5q-74 0 -117.5 -33t-72.5 -117zM246 528v-528h-51v983h51v-311q20 108 83 184.5t148.5 112
t184.5 35.5q174 0 274 -101.5t100 -304.5v-598h-51v575q0 199 -86 299.5t-244 100.5q-88 0 -160 -25t-129 -77t-88.5 -140t-31.5 -205z" />
    <glyph glyph-name="ograve" unicode="&#xf2;" horiz-adv-x="1249" 
d="M547 1536l129 -391h-10l-215 391h96zM625 1004q218 0 359.5 -140t141.5 -372t-141.5 -372t-359.5 -140t-360 140t-142 372t142 372t360 140zM625 -4q205 0 323.5 133.5t118.5 362.5t-118.5 362t-323.5 133t-324 -133t-119 -362t119 -362.5t324 -133.5z" />
    <glyph glyph-name="oacute" unicode="&#xf3;" horiz-adv-x="1249" 
d="M743 1536h97l-215 -391h-11zM625 1004q218 0 359.5 -140t141.5 -372t-141.5 -372t-359.5 -140t-360 140t-142 372t142 372t360 140zM625 -4q205 0 323.5 133.5t118.5 362.5t-118.5 362t-323.5 133t-324 -133t-119 -362t119 -362.5t324 -133.5z" />
    <glyph glyph-name="ocircumflex" unicode="&#xf4;" horiz-adv-x="1249" 
d="M864 1145l-239 334l-240 -334h-10l200 391h99l200 -391h-10zM625 1004q218 0 359.5 -140t141.5 -372t-141.5 -372t-359.5 -140t-360 140t-142 372t142 372t360 140zM625 -4q205 0 323.5 133.5t118.5 362.5t-118.5 362t-323.5 133t-324 -133t-119 -362t119 -362.5
t324 -133.5z" />
    <glyph glyph-name="otilde" unicode="&#xf5;" horiz-adv-x="1249" 
d="M250 1255l-14 5q32 99 82.5 141.5t134.5 42.5q59 0 180 -58.5t176 -58.5q74 0 117.5 33t72.5 117l15 -4q-32 -99 -82.5 -142t-134.5 -43q-59 0 -180.5 58.5t-176.5 58.5q-74 0 -117.5 -33t-72.5 -117zM625 1004q218 0 359.5 -140t141.5 -372t-141.5 -372t-359.5 -140
t-360 140t-142 372t142 372t360 140zM625 -4q205 0 323.5 133.5t118.5 362.5t-118.5 362t-323.5 133t-324 -133t-119 -362t119 -362.5t324 -133.5z" />
    <glyph glyph-name="odieresis" unicode="&#xf6;" horiz-adv-x="1249" 
d="M399 1268q-31 0 -49 19.5t-18 53.5q0 31 18.5 51.5t48.5 20.5q32 0 51 -20.5t19 -51.5q0 -34 -19 -53.5t-51 -19.5zM852 1268q-31 0 -49.5 19.5t-18.5 53.5q0 31 19 51.5t49 20.5q32 0 51 -20.5t19 -51.5q0 -34 -19 -53.5t-51 -19.5zM625 1004q218 0 359.5 -140
t141.5 -372t-141.5 -372t-359.5 -140t-360 140t-142 372t142 372t360 140zM625 -4q205 0 323.5 133.5t118.5 362.5t-118.5 362t-323.5 133t-324 -133t-119 -362t119 -362.5t324 -133.5z" />
    <glyph glyph-name="divide" unicode="&#xf7;" 
d="M512 897q-32 0 -56 24t-24 56q0 30 24 54t56 24q33 0 57.5 -24t24.5 -54q0 -32 -24 -56t-58 -24zM25 645v31h974v-31h-974zM512 287q-32 0 -56 24t-24 56q0 30 24 53.5t56 23.5q33 0 57.5 -23.5t24.5 -53.5q0 -32 -24 -56t-58 -24z" />
    <glyph glyph-name="oslash" unicode="&#xf8;" horiz-adv-x="1249" 
d="M182 492q0 -211 101 -340l671 694q-119 141 -329 141q-205 0 -324 -133t-119 -362zM625 -4q205 0 323.5 133.5t118.5 362.5q0 206 -98 337l-674 -694q117 -139 330 -139zM625 -20q-214 0 -353 133l-131 -136l-14 15l131 135q-135 141 -135 365q0 232 142 372t360 140
q214 0 354 -134l131 136l14 -17l-131 -135q133 -139 133 -362q0 -232 -141.5 -372t-359.5 -140z" />
    <glyph glyph-name="ugrave" unicode="&#xf9;" horiz-adv-x="1183" 
d="M514 1536l129 -391h-10l-215 391h96zM938 305q-15 -81 -59.5 -145t-106 -102.5t-128.5 -58t-134 -19.5q-332 0 -332 382v621h51v-598q0 -186 78 -281.5t232 -95.5q76 0 144.5 25t127 75t93 136.5t34.5 199.5v539h51v-983h-51v305z" />
    <glyph glyph-name="uacute" unicode="&#xfa;" horiz-adv-x="1183" 
d="M700 1536h97l-215 -391h-11zM938 305q-15 -81 -59.5 -145t-106 -102.5t-128.5 -58t-134 -19.5q-332 0 -332 382v621h51v-598q0 -186 78 -281.5t232 -95.5q76 0 144.5 25t127 75t93 136.5t34.5 199.5v539h51v-983h-51v305z" />
    <glyph glyph-name="ucircumflex" unicode="&#xfb;" horiz-adv-x="1183" 
d="M831 1145l-239 334l-240 -334h-10l201 391h98l201 -391h-11zM938 305q-15 -81 -59.5 -145t-106 -102.5t-128.5 -58t-134 -19.5q-332 0 -332 382v621h51v-598q0 -186 78 -281.5t232 -95.5q76 0 144.5 25t127 75t93 136.5t34.5 199.5v539h51v-983h-51v305z" />
    <glyph glyph-name="udieresis" unicode="&#xfc;" horiz-adv-x="1183" 
d="M367 1268q-31 0 -49.5 19.5t-18.5 53.5q0 31 19 51.5t49 20.5q32 0 50.5 -20.5t18.5 -51.5q0 -34 -18.5 -53.5t-50.5 -19.5zM819 1268q-31 0 -49 19.5t-18 53.5q0 31 18.5 51.5t48.5 20.5q32 0 51 -20.5t19 -51.5q0 -34 -19 -53.5t-51 -19.5zM938 305q-15 -81 -59.5 -145
t-106 -102.5t-128.5 -58t-134 -19.5q-332 0 -332 382v621h51v-598q0 -186 78 -281.5t232 -95.5q76 0 144.5 25t127 75t93 136.5t34.5 199.5v539h51v-983h-51v305z" />
    <glyph glyph-name="yacute" unicode="&#xfd;" horiz-adv-x="948" 
d="M592 1536h96l-215 -391h-10zM143 -420q-68 0 -129 37l33 64q50 -41 127 -41q102 0 170 86q66 80 143 274h-30l-406 983h55l386 -956l2 -9l366 965h37l-395 -983l-33 -82q-70 -180 -146.5 -259t-179.5 -79z" />
    <glyph glyph-name="thorn" unicode="&#xfe;" horiz-adv-x="1206" 
d="M606 2q82 0 153.5 28.5t130 86t92.5 154.5t34 223q0 230 -111.5 358.5t-304.5 128.5q-67 0 -130.5 -30t-116.5 -87.5t-85 -155t-32 -219.5q0 -217 103.5 -352t266.5 -135zM625 -20q-140 0 -240.5 83.5t-138.5 251.5v-725h-51v1905h51v-803q39 155 146 233.5t243 78.5
q196 0 318 -136t122 -356q0 -258 -123 -395t-327 -137z" />
    <glyph glyph-name="ydieresis" unicode="&#xff;" horiz-adv-x="948" 
d="M248 1268q-31 0 -49.5 19.5t-18.5 53.5q0 31 19 51.5t49 20.5q32 0 50.5 -20.5t18.5 -51.5q0 -34 -18.5 -53.5t-50.5 -19.5zM700 1268q-31 0 -49 19.5t-18 53.5q0 31 18.5 51.5t48.5 20.5q32 0 51 -20.5t19 -51.5q0 -34 -19 -53.5t-51 -19.5zM143 -420q-68 0 -129 37
l33 64q50 -41 127 -41q102 0 170 86q66 80 143 274h-30l-406 983h55l386 -956l2 -9l366 965h37l-395 -983l-33 -82q-70 -180 -146.5 -259t-179.5 -79z" />
    <glyph glyph-name="Amacron" unicode="&#x100;" horiz-adv-x="1402" 
d="M319 1767v27h766v-27h-766zM666 1479l-4 8l-377 -944h782zM1300 0l-223 522h-801l-208 -522h-33l620 1495h66l643 -1495h-64z" />
    <glyph glyph-name="amacron" unicode="&#x101;" horiz-adv-x="1081" 
d="M154 1296v27h766v-27h-766zM504 4q43 0 89.5 13t92.5 39.5t82.5 63t59 88.5t22.5 111v113q-119 92 -344 92q-152 0 -246 -69.5t-94 -184.5q0 -127 89 -196.5t249 -69.5zM854 0v254q-39 -125 -141 -199.5t-246 -74.5q-160 0 -260.5 73t-100.5 193q0 77 31.5 134.5
t87.5 91.5t128 50.5t159 16.5q88 0 185 -25.5t153 -69.5v203q0 182 -75 261t-228 79q-127 0 -208.5 -63t-127.5 -207l-45 6q46 137 143.5 209t239.5 72q79 0 139.5 -19t110 -62.5t76 -122t26.5 -190.5v-610h-47z" />
    <glyph glyph-name="Abreve" unicode="&#x102;" horiz-adv-x="1402" 
d="M922 1946h53q-11 -113 -88 -183.5t-199 -70.5t-199 70.5t-88 183.5h54q11 -129 74 -185.5t159 -56.5q213 0 234 242zM666 1479l-4 8l-377 -944h782zM1300 0l-223 522h-801l-208 -522h-33l620 1495h66l643 -1495h-64z" />
    <glyph glyph-name="abreve" unicode="&#x103;" horiz-adv-x="1081" 
d="M772 1475h53q-11 -113 -87.5 -183.5t-198.5 -70.5t-199 70.5t-88 183.5h53q11 -129 74.5 -185.5t159.5 -56.5q212 0 233 242zM504 4q43 0 89.5 13t92.5 39.5t82.5 63t59 88.5t22.5 111v113q-119 92 -344 92q-152 0 -246 -69.5t-94 -184.5q0 -127 89 -196.5t249 -69.5z
M854 0v254q-39 -125 -141 -199.5t-246 -74.5q-160 0 -260.5 73t-100.5 193q0 77 31.5 134.5t87.5 91.5t128 50.5t159 16.5q88 0 185 -25.5t153 -69.5v203q0 182 -75 261t-228 79q-127 0 -208.5 -63t-127.5 -207l-45 6q46 137 143.5 209t239.5 72q79 0 139.5 -19t110 -62.5
t76 -122t26.5 -190.5v-610h-47z" />
    <glyph glyph-name="Aogonek" unicode="&#x104;" horiz-adv-x="1402" 
d="M1362 -301q-94 -43 -178 -43q-76 0 -127 38t-51 101q0 90 81.5 149t208.5 64l-219 514h-801l-208 -522h-33l620 1495h66l643 -1495h-47q-127 -4 -208 -59.5t-81 -133.5q0 -57 45.5 -82.5t116.5 -25.5q87 0 172 45v-45zM666 1479l-4 8l-377 -944h782z" />
    <glyph glyph-name="aogonek" unicode="&#x105;" horiz-adv-x="1081" 
d="M899 -301q-94 -43 -178 -43q-76 0 -127 38t-51 101q0 93 87 153t220 60h4v246q-39 -125 -141 -199.5t-246 -74.5q-160 0 -260.5 73t-100.5 193q0 77 31.5 134.5t87.5 91.5t128 50.5t159 16.5q88 0 185 -25.5t153 -69.5v203q0 182 -75 261t-228 79q-127 0 -208.5 -63
t-127.5 -207l-45 6q46 137 143.5 209t239.5 72q79 0 139.5 -19t110 -62.5t76 -122t26.5 -190.5v-610h-47q-127 -4 -208 -59.5t-81 -133.5q0 -57 45.5 -82.5t116.5 -25.5q87 0 172 45v-45zM504 4q43 0 89.5 13t92.5 39.5t82.5 63t59 88.5t22.5 111v113q-119 92 -344 92
q-152 0 -246 -69.5t-94 -184.5q0 -127 89 -196.5t249 -69.5z" />
    <glyph glyph-name="Cacute" unicode="&#x106;" horiz-adv-x="1624" 
d="M918 2007h96l-215 -391h-11zM1505 1020l-59 -10q-16 147 -100.5 259t-214.5 170t-287 58q-143 0 -267 -51.5t-213.5 -144t-140.5 -228.5t-51 -297q0 -162 48.5 -302t137.5 -244t224.5 -163t300.5 -59q123 0 233.5 38.5t195 108.5t138 173.5t61.5 226.5h19
q-13 -172 -104 -304t-234 -201.5t-315 -69.5q-228 0 -403.5 100.5t-269 276t-93.5 397.5q0 171 56 314t154.5 241t235 152.5t295.5 54.5q165 0 303 -58t231.5 -171.5t118.5 -266.5z" />
    <glyph glyph-name="cacute" unicode="&#x107;" horiz-adv-x="1116" 
d="M676 1536h96l-215 -391h-10zM981 692l-47 -14q-11 86 -45.5 148.5t-85.5 96.5t-107 49t-121 15q-176 0 -283.5 -123t-107.5 -344q0 -248 112.5 -379t317.5 -131q89 0 162 32.5t117.5 85t69 114t26.5 123.5l17 -3q-11 -171 -128 -276.5t-300 -105.5q-97 0 -178 33.5
t-141.5 97.5t-94 164.5t-33.5 228.5q0 119 36 215t98 157.5t143.5 94.5t175.5 33q53 0 102 -9t98.5 -31.5t88.5 -57t68 -89.5t40 -125z" />
    <glyph glyph-name="Ccircumflex" unicode="&#x108;" horiz-adv-x="1624" 
d="M1092 1616l-240 334l-240 -334h-10l201 391h98l201 -391h-10zM1505 1020l-59 -10q-16 147 -100.5 259t-214.5 170t-287 58q-143 0 -267 -51.5t-213.5 -144t-140.5 -228.5t-51 -297q0 -162 48.5 -302t137.5 -244t224.5 -163t300.5 -59q123 0 233.5 38.5t195 108.5
t138 173.5t61.5 226.5h19q-13 -172 -104 -304t-234 -201.5t-315 -69.5q-228 0 -403.5 100.5t-269 276t-93.5 397.5q0 171 56 314t154.5 241t235 152.5t295.5 54.5q165 0 303 -58t231.5 -171.5t118.5 -266.5z" />
    <glyph glyph-name="ccircumflex" unicode="&#x109;" horiz-adv-x="1116" 
d="M797 1145l-240 334l-240 -334h-10l201 391h98l201 -391h-10zM981 692l-47 -14q-11 86 -45.5 148.5t-85.5 96.5t-107 49t-121 15q-176 0 -283.5 -123t-107.5 -344q0 -248 112.5 -379t317.5 -131q89 0 162 32.5t117.5 85t69 114t26.5 123.5l17 -3q-11 -171 -128 -276.5
t-300 -105.5q-97 0 -178 33.5t-141.5 97.5t-94 164.5t-33.5 228.5q0 119 36 215t98 157.5t143.5 94.5t175.5 33q53 0 102 -9t98.5 -31.5t88.5 -57t68 -89.5t40 -125z" />
    <glyph glyph-name="Cdotaccent" unicode="&#x10a;" horiz-adv-x="1624" 
d="M840 1786q-31 0 -49.5 20t-18.5 54q0 31 19 51t49 20q32 0 50.5 -20t18.5 -51q0 -34 -18.5 -54t-50.5 -20zM1505 1020l-59 -10q-16 147 -100.5 259t-214.5 170t-287 58q-143 0 -267 -51.5t-213.5 -144t-140.5 -228.5t-51 -297q0 -162 48.5 -302t137.5 -244t224.5 -163
t300.5 -59q123 0 233.5 38.5t195 108.5t138 173.5t61.5 226.5h19q-13 -172 -104 -304t-234 -201.5t-315 -69.5q-228 0 -403.5 100.5t-269 276t-93.5 397.5q0 171 56 314t154.5 241t235 152.5t295.5 54.5q165 0 303 -58t231.5 -171.5t118.5 -266.5z" />
    <glyph glyph-name="cdotaccent" unicode="&#x10b;" horiz-adv-x="1116" 
d="M557 1315q-31 0 -49.5 20t-18.5 54q0 31 19 51t49 20q32 0 51 -20t19 -51q0 -34 -19 -54t-51 -20zM981 692l-47 -14q-11 86 -45.5 148.5t-85.5 96.5t-107 49t-121 15q-176 0 -283.5 -123t-107.5 -344q0 -248 112.5 -379t317.5 -131q89 0 162 32.5t117.5 85t69 114
t26.5 123.5l17 -3q-11 -171 -128 -276.5t-300 -105.5q-97 0 -178 33.5t-141.5 97.5t-94 164.5t-33.5 228.5q0 119 36 215t98 157.5t143.5 94.5t175.5 33q53 0 102 -9t98.5 -31.5t88.5 -57t68 -89.5t40 -125z" />
    <glyph glyph-name="Ccaron" unicode="&#x10c;" horiz-adv-x="1624" 
d="M797 1616l-232 391h10l271 -334l270 334h10l-231 -391h-98zM1505 1020l-59 -10q-16 147 -100.5 259t-214.5 170t-287 58q-143 0 -267 -51.5t-213.5 -144t-140.5 -228.5t-51 -297q0 -162 48.5 -302t137.5 -244t224.5 -163t300.5 -59q123 0 233.5 38.5t195 108.5t138 173.5
t61.5 226.5h19q-13 -172 -104 -304t-234 -201.5t-315 -69.5q-228 0 -403.5 100.5t-269 276t-93.5 397.5q0 171 56 314t154.5 241t235 152.5t295.5 54.5q165 0 303 -58t231.5 -171.5t118.5 -266.5z" />
    <glyph glyph-name="ccaron" unicode="&#x10d;" horiz-adv-x="1116" 
d="M508 1145l-232 391h11l270 -334l270 334h11l-232 -391h-98zM981 692l-47 -14q-11 86 -45.5 148.5t-85.5 96.5t-107 49t-121 15q-176 0 -283.5 -123t-107.5 -344q0 -248 112.5 -379t317.5 -131q89 0 162 32.5t117.5 85t69 114t26.5 123.5l17 -3q-11 -171 -128 -276.5
t-300 -105.5q-97 0 -178 33.5t-141.5 97.5t-94 164.5t-33.5 228.5q0 119 36 215t98 157.5t143.5 94.5t175.5 33q53 0 102 -9t98.5 -31.5t88.5 -57t68 -89.5t40 -125z" />
    <glyph glyph-name="Dcaron" unicode="&#x10e;" horiz-adv-x="1519" 
d="M711 1616l-232 391h10l271 -334l270 334h10l-231 -391h-98zM205 0v1495h327q195 0 359.5 -46t291 -135.5t198 -234t71.5 -329.5q0 -149 -47 -272.5t-130.5 -211t-199.5 -148t-253 -89.5t-292 -29h-325zM1391 750q0 163 -50 293.5t-151 228t-265.5 150.5t-381.5 53h-283
v-1455h289q207 0 368.5 54.5t264.5 152.5t156 230.5t53 292.5z" />
    <glyph glyph-name="dcaron" unicode="&#x10f;" horiz-adv-x="1206" 
d="M1163 1495h101l-164 -307h-10zM606 2q53 0 104.5 18t99 57.5t83 96t57 139t21.5 181.5q0 217 -103.5 352t-267.5 135q-82 0 -153.5 -28t-130 -84t-92.5 -151t-34 -218q0 -235 111.5 -366.5t304.5 -131.5zM961 0v291q-26 -104 -87.5 -176t-138 -103.5t-164.5 -31.5
q-196 0 -318 138t-122 363q0 253 123.5 388t327.5 135q140 0 240.5 -84t138.5 -252v827h51v-1495h-51z" />
    <glyph glyph-name="Dcroat" unicode="&#x110;" horiz-adv-x="1554" 
d="M530 0h-325v754h-207v20h207v721h327q195 0 359.5 -46t291 -135.5t198 -234t71.5 -329.5q0 -149 -47 -272.5t-130.5 -211t-199.5 -148t-253 -89.5t-292 -29zM260 20h289q207 0 368.5 54.5t264.5 152.5t156 230.5t53 292.5q0 163 -50 293.5t-151 228t-265.5 150.5
t-381.5 53h-283v-701h643v-20h-643v-734z" />
    <glyph glyph-name="dcroat" unicode="&#x111;" horiz-adv-x="1206" 
d="M573 981q-82 0 -153.5 -28t-129.5 -84t-92 -151t-34 -218q0 -235 111.5 -366.5t304.5 -131.5q67 0 130.5 30t116.5 87.5t85 155t32 219.5q0 217 -103.5 352t-267.5 135zM934 0v291q-39 -155 -146 -233t-243 -78q-196 0 -318.5 138t-122.5 363q0 253 123.5 388t327.5 135
q140 0 240.5 -84t138.5 -252v628h-301v27h301v172h51v-172h135v-27h-135v-1296h-51z" />
    <glyph glyph-name="Emacron" unicode="&#x112;" horiz-adv-x="1159" 
d="M270 1808v27h766v-27h-766zM205 0v1495h903v-31l-848 21v-701l797 13v-33l-797 8v-762l848 21v-31h-903z" />
    <glyph glyph-name="emacron" unicode="&#x113;" horiz-adv-x="1157" 
d="M199 1296v27h766v-27h-766zM1024 356q-70 -376 -449 -376q-86 0 -164 31t-142 90.5t-102 158.5t-38 225q0 235 130 377t345 142q193 0 307.5 -134t114.5 -338v-6h-844q3 -256 124 -387t327 -131q149 0 250 97t125 253zM596 987q-190 0 -302 -124.5t-112 -315.5h795
q-10 192 -108 316t-273 124z" />
    <glyph glyph-name="Ebreve" unicode="&#x114;" horiz-adv-x="1159" 
d="M897 1987h53q-11 -113 -87.5 -183.5t-198.5 -70.5t-199 70.5t-88 183.5h53q11 -129 74.5 -185.5t159.5 -56.5q212 0 233 242zM205 0v1495h903v-31l-848 21v-701l797 13v-33l-797 8v-762l848 21v-31h-903z" />
    <glyph glyph-name="ebreve" unicode="&#x115;" horiz-adv-x="1157" 
d="M817 1475h53q-11 -113 -87.5 -183.5t-198.5 -70.5t-199 70.5t-88 183.5h53q11 -129 74.5 -185.5t159.5 -56.5q212 0 233 242zM1024 356q-70 -376 -449 -376q-86 0 -164 31t-142 90.5t-102 158.5t-38 225q0 235 130 377t345 142q193 0 307.5 -134t114.5 -338v-6h-844
q3 -256 124 -387t327 -131q149 0 250 97t125 253zM596 987q-190 0 -302 -124.5t-112 -315.5h795q-10 192 -108 316t-273 124z" />
    <glyph glyph-name="Edotaccent" unicode="&#x116;" horiz-adv-x="1159" 
d="M662 1827q-31 0 -49.5 20t-18.5 54q0 31 19 51t49 20q32 0 50.5 -20t18.5 -51q0 -34 -18.5 -54t-50.5 -20zM205 0v1495h903v-31l-848 21v-701l797 13v-33l-797 8v-762l848 21v-31h-903z" />
    <glyph glyph-name="edotaccent" unicode="&#x117;" horiz-adv-x="1157" 
d="M582 1315q-31 0 -49.5 20t-18.5 54q0 31 19 51t49 20q32 0 50.5 -20t18.5 -51q0 -34 -18.5 -54t-50.5 -20zM1024 356q-70 -376 -449 -376q-86 0 -164 31t-142 90.5t-102 158.5t-38 225q0 235 130 377t345 142q193 0 307.5 -134t114.5 -338v-6h-844q3 -256 124 -387
t327 -131q149 0 250 97t125 253zM596 987q-190 0 -302 -124.5t-112 -315.5h795q-10 192 -108 316t-273 124z" />
    <glyph glyph-name="Eogonek" unicode="&#x118;" horiz-adv-x="1159" 
d="M1106 -301q-94 -43 -178 -43q-76 0 -127 38t-51 101q0 76 59.5 131t157.5 74h-762v1495h903v-31l-848 21v-701l797 13v-33l-797 8v-762l848 21v-31h-47q-127 -4 -208 -59.5t-81 -133.5q0 -57 45.5 -82.5t116.5 -25.5q87 0 172 45v-45z" />
    <glyph glyph-name="eogonek" unicode="&#x119;" horiz-adv-x="1157" 
d="M823 -303q-87 -41 -178 -41q-76 0 -127 38t-51 101q0 62 40 110t111 75h-43q-86 0 -164 31t-142 90.5t-102 158.5t-38 225q0 235 130 377t345 142q193 0 307.5 -134t114.5 -338v-6h-844q3 -256 124 -387t327 -131q149 0 250 97t125 253l16 -2q-59 -311 -328 -366
q-94 -19 -150.5 -69t-56.5 -114q0 -52 45 -75t117 -23q84 0 172 43v-55zM596 987q-190 0 -302 -124.5t-112 -315.5h795q-10 192 -108 316t-273 124z" />
    <glyph glyph-name="Ecaron" unicode="&#x11a;" horiz-adv-x="1159" 
d="M598 1657l-231 391h10l270 -334l271 334h10l-232 -391h-98zM205 0v1495h903v-31l-848 21v-701l797 13v-33l-797 8v-762l848 21v-31h-903z" />
    <glyph glyph-name="ecaron" unicode="&#x11b;" horiz-adv-x="1157" 
d="M532 1145l-231 391h10l271 -334l270 334h10l-231 -391h-99zM1024 356q-70 -376 -449 -376q-86 0 -164 31t-142 90.5t-102 158.5t-38 225q0 235 130 377t345 142q193 0 307.5 -134t114.5 -338v-6h-844q3 -256 124 -387t327 -131q149 0 250 97t125 253zM596 987
q-190 0 -302 -124.5t-112 -315.5h795q-10 192 -108 316t-273 124z" />
    <glyph glyph-name="Gcircumflex" unicode="&#x11c;" horiz-adv-x="1652" 
d="M1069 1657l-240 334l-239 -334h-10l200 391h99l200 -391h-10zM1450 0v420q-51 -214 -220 -327t-405 -113q-161 0 -296 60.5t-226 164.5t-141.5 246t-50.5 303q0 223 90 396t258 269.5t389 96.5q257 0 437.5 -129.5t219.5 -366.5l-59 -10q-16 150 -102.5 262t-217 168.5
t-286.5 56.5q-205 0 -357.5 -93.5t-231.5 -256t-79 -371.5q0 -218 82 -391t242.5 -275t375.5 -102q160 0 287.5 62.5t206 188t84.5 296.5v45h-438v21h493v-621h-55z" />
    <glyph glyph-name="gcircumflex" unicode="&#x11d;" horiz-adv-x="1153" 
d="M819 1145l-239 334l-240 -334h-10l200 391h99l200 -391h-10zM555 307q164 0 256 87t92 253q0 167 -91 253.5t-257 86.5q-161 0 -254.5 -87.5t-93.5 -252.5q0 -166 92 -253t256 -87zM551 -430q-133 0 -238 28.5t-171 90.5t-66 151q0 119 81 189.5t218 93.5
q-83 -10 -105 -10q-47 0 -77.5 22.5t-30.5 57.5q0 116 305 104q-146 22 -231.5 112.5t-85.5 237.5q0 165 117 261t288 96q83 0 154 -21h413v-47l-374 33q100 -39 156.5 -121.5t56.5 -200.5q0 -168 -110.5 -262t-287.5 -94h-6q-187 0 -272.5 -25.5t-85.5 -79.5q0 -59 102 -59
q57 0 162 12v-8q-330 -54 -330 -274q0 -69 33 -122t91.5 -85t133.5 -48t164 -16q403 0 403 305q0 101 -71 195l2 6h61q51 -53 51 -160q0 -177 -121.5 -269.5t-328.5 -92.5z" />
    <glyph glyph-name="Gbreve" unicode="&#x11e;" horiz-adv-x="1652" 
d="M1073 1987h53q-11 -113 -87.5 -183.5t-198.5 -70.5t-199 70.5t-88 183.5h53q11 -129 74.5 -185.5t159.5 -56.5q212 0 233 242zM1450 0v420q-51 -214 -220 -327t-405 -113q-161 0 -296 60.5t-226 164.5t-141.5 246t-50.5 303q0 223 90 396t258 269.5t389 96.5
q257 0 437.5 -129.5t219.5 -366.5l-59 -10q-16 150 -102.5 262t-217 168.5t-286.5 56.5q-205 0 -357.5 -93.5t-231.5 -256t-79 -371.5q0 -218 82 -391t242.5 -275t375.5 -102q160 0 287.5 62.5t206 188t84.5 296.5v45h-438v21h493v-621h-55z" />
    <glyph glyph-name="gbreve" unicode="&#x11f;" horiz-adv-x="1153" 
d="M776 1475h53q-11 -113 -87.5 -183.5t-198.5 -70.5t-199 70.5t-88 183.5h53q11 -129 74.5 -185.5t159.5 -56.5q212 0 233 242zM555 307q164 0 256 87t92 253q0 167 -91 253.5t-257 86.5q-161 0 -254.5 -87.5t-93.5 -252.5q0 -166 92 -253t256 -87zM551 -430
q-133 0 -238 28.5t-171 90.5t-66 151q0 119 81 189.5t218 93.5q-83 -10 -105 -10q-47 0 -77.5 22.5t-30.5 57.5q0 116 305 104q-146 22 -231.5 112.5t-85.5 237.5q0 165 117 261t288 96q83 0 154 -21h413v-47l-374 33q100 -39 156.5 -121.5t56.5 -200.5q0 -168 -110.5 -262
t-287.5 -94h-6q-187 0 -272.5 -25.5t-85.5 -79.5q0 -59 102 -59q57 0 162 12v-8q-330 -54 -330 -274q0 -69 33 -122t91.5 -85t133.5 -48t164 -16q403 0 403 305q0 101 -71 195l2 6h61q51 -53 51 -160q0 -177 -121.5 -269.5t-328.5 -92.5z" />
    <glyph glyph-name="Gdotaccent" unicode="&#x120;" horiz-adv-x="1652" 
d="M846 1827q-31 0 -49.5 20t-18.5 54q0 31 19 51t49 20q32 0 50.5 -20t18.5 -51q0 -34 -18.5 -54t-50.5 -20zM1450 0v420q-51 -214 -220 -327t-405 -113q-161 0 -296 60.5t-226 164.5t-141.5 246t-50.5 303q0 223 90 396t258 269.5t389 96.5q257 0 437.5 -129.5
t219.5 -366.5l-59 -10q-16 150 -102.5 262t-217 168.5t-286.5 56.5q-205 0 -357.5 -93.5t-231.5 -256t-79 -371.5q0 -218 82 -391t242.5 -275t375.5 -102q160 0 287.5 62.5t206 188t84.5 296.5v45h-438v21h493v-621h-55z" />
    <glyph glyph-name="gdotaccent" unicode="&#x121;" horiz-adv-x="1153" 
d="M549 1315q-31 0 -49.5 20t-18.5 54q0 31 19 51t49 20q32 0 50.5 -20t18.5 -51q0 -34 -18.5 -54t-50.5 -20zM555 307q164 0 256 87t92 253q0 167 -91 253.5t-257 86.5q-161 0 -254.5 -87.5t-93.5 -252.5q0 -166 92 -253t256 -87zM551 -430q-133 0 -238 28.5t-171 90.5
t-66 151q0 119 81 189.5t218 93.5q-83 -10 -105 -10q-47 0 -77.5 22.5t-30.5 57.5q0 116 305 104q-146 22 -231.5 112.5t-85.5 237.5q0 165 117 261t288 96q83 0 154 -21h413v-47l-374 33q100 -39 156.5 -121.5t56.5 -200.5q0 -168 -110.5 -262t-287.5 -94h-6
q-187 0 -272.5 -25.5t-85.5 -79.5q0 -59 102 -59q57 0 162 12v-8q-330 -54 -330 -274q0 -69 33 -122t91.5 -85t133.5 -48t164 -16q403 0 403 305q0 101 -71 195l2 6h61q51 -53 51 -160q0 -177 -121.5 -269.5t-328.5 -92.5z" />
    <glyph glyph-name="Gcommaaccent" unicode="&#x122;" horiz-adv-x="1652" 
d="M1450 0v420q-51 -214 -220 -327t-405 -113q-161 0 -296 60.5t-226 164.5t-141.5 246t-50.5 303q0 223 90 396t258 269.5t389 96.5q257 0 437.5 -129.5t219.5 -366.5l-59 -10q-16 150 -102.5 262t-217 168.5t-286.5 56.5q-205 0 -357.5 -93.5t-231.5 -256t-79 -371.5
q0 -218 82 -391t242.5 -275t375.5 -102q160 0 287.5 62.5t206 188t84.5 296.5v45h-438v21h493v-621h-55zM791 -131h106l-174 -279h-10z" />
    <glyph glyph-name="gcommaaccent" unicode="&#x123;" horiz-adv-x="1153" 
d="M610 1145h-118l180 278h10zM555 307q164 0 256 87t92 253q0 167 -91 253.5t-257 86.5q-161 0 -254.5 -87.5t-93.5 -252.5q0 -166 92 -253t256 -87zM551 -430q-133 0 -238 28.5t-171 90.5t-66 151q0 119 81 189.5t218 93.5q-83 -10 -105 -10q-47 0 -77.5 22.5t-30.5 57.5
q0 116 305 104q-146 22 -231.5 112.5t-85.5 237.5q0 165 117 261t288 96q83 0 154 -21h413v-47l-374 33q100 -39 156.5 -121.5t56.5 -200.5q0 -168 -110.5 -262t-287.5 -94h-6q-187 0 -272.5 -25.5t-85.5 -79.5q0 -59 102 -59q57 0 162 12v-8q-330 -54 -330 -274
q0 -69 33 -122t91.5 -85t133.5 -48t164 -16q403 0 403 305q0 101 -71 195l2 6h61q51 -53 51 -160q0 -177 -121.5 -269.5t-328.5 -92.5z" />
    <glyph glyph-name="Hcircumflex" unicode="&#x124;" horiz-adv-x="1538" 
d="M1010 1657l-240 334l-240 -334h-10l201 391h98l201 -391h-10zM1278 0v756h-1018v-756h-55v1495h55v-719h1018v719h55v-1495h-55z" />
    <glyph glyph-name="hcircumflex" unicode="&#x125;" horiz-adv-x="1214" 
d="M690 1606l-239 333l-240 -333h-10l200 391h99l200 -391h-10zM246 528v-528h-51v1536h51v-864q20 108 83 184.5t148.5 112t184.5 35.5q174 0 274 -101.5t100 -304.5v-598h-51v575q0 199 -86 299.5t-244 100.5q-88 0 -160 -25t-129 -77t-88.5 -140t-31.5 -205z" />
    <glyph glyph-name="Hbar" unicode="&#x126;" horiz-adv-x="1538" 
d="M1278 776v432h-1018v-432h1018zM1278 0v756h-1018v-756h-55v1208h-154v21h154v266h55v-266h1018v266h55v-266h154v-21h-154v-1208h-55z" />
    <glyph glyph-name="hbar" unicode="&#x127;" horiz-adv-x="1214" 
d="M246 528v-528h-51v1296h-193v27h193v213h51v-213h522v-27h-522v-624q20 108 83 184.5t148.5 112t184.5 35.5q174 0 274 -101.5t100 -304.5v-598h-51v575q0 199 -86 299.5t-244 100.5q-88 0 -160 -25t-129 -77t-88.5 -140t-31.5 -205z" />
    <glyph glyph-name="Itilde" unicode="&#x128;" horiz-adv-x="462" 
d="M-143 1767l-15 5q32 99 82.5 141.5t134.5 42.5q59 0 180.5 -58.5t176.5 -58.5q74 0 117.5 33t72.5 117l15 -4q-32 -99 -83 -142t-135 -43q-59 0 -180 58.5t-176 58.5q-74 0 -117.5 -33t-72.5 -117zM260 1495v-1495h-55v1495h55z" />
    <glyph glyph-name="itilde" unicode="&#x129;" horiz-adv-x="440" 
d="M-156 1255l-14 5q32 99 82.5 141.5t134.5 42.5q59 0 180 -58.5t176 -58.5q74 0 118.5 33t72.5 117l14 -4q-32 -99 -82.5 -142t-134.5 -43q-59 0 -180 58.5t-176 58.5q-74 0 -118.5 -33t-72.5 -117zM246 983v-983h-51v983h51z" />
    <glyph glyph-name="Imacron" unicode="&#x12a;" horiz-adv-x="460" 
d="M-152 1808v27h766v-27h-766zM260 1495v-1495h-55v1495h55z" />
    <glyph glyph-name="imacron" unicode="&#x12b;" horiz-adv-x="440" 
d="M-164 1296v27h766v-27h-766zM246 983v-983h-51v983h51z" />
    <glyph glyph-name="Ibreve" unicode="&#x12c;" horiz-adv-x="466" 
d="M467 1987h53q-11 -113 -88 -183.5t-199 -70.5t-198.5 70.5t-87.5 183.5h53q11 -129 74 -185.5t159 -56.5q213 0 234 242zM260 1495v-1495h-55v1495h55z" />
    <glyph glyph-name="ibreve" unicode="&#x12d;" horiz-adv-x="440" 
d="M453 1475h53q-11 -113 -88 -183.5t-199 -70.5t-199 70.5t-88 183.5h54q11 -129 74 -185.5t159 -56.5q213 0 234 242zM246 983v-983h-51v983h51z" />
    <glyph glyph-name="Iogonek" unicode="&#x12e;" horiz-adv-x="471" 
d="M264 -301q-94 -43 -178 -43q-76 0 -127 38t-51 101q0 93 86.5 153t216.5 60v1487h55v-1495h-47q-127 -4 -208 -59.5t-81 -133.5q0 -57 45.5 -82.5t116.5 -25.5q87 0 172 45v-45z" />
    <glyph glyph-name="iogonek" unicode="&#x12f;" horiz-adv-x="440" 
d="M221 1241q-29 0 -46 19t-17 51q0 30 17 48.5t46 18.5q30 0 48 -18.5t18 -48.5q0 -32 -17.5 -51t-48.5 -19zM244 -301q-94 -43 -178 -43q-76 0 -127.5 38t-51.5 101q0 93 87.5 153t220.5 60v975h51v-983h-47q-127 -4 -208 -59.5t-81 -133.5q0 -57 45.5 -82.5t116.5 -25.5
q87 0 172 45v-45z" />
    <glyph glyph-name="Idotaccent" unicode="&#x130;" horiz-adv-x="468" 
d="M233 1827q-31 0 -49 20t-18 54q0 31 18.5 51t48.5 20q32 0 51 -20t19 -51q0 -34 -19 -54t-51 -20zM260 1495v-1495h-55v1495h55z" />
    <glyph glyph-name="dotlessi" unicode="&#x131;" horiz-adv-x="440" 
d="M246 983v-983h-51v983h51z" />
    <glyph glyph-name="IJ" unicode="&#x132;" horiz-adv-x="1699" 
d="M260 1495v-1495h-55v1495h55zM1065 -20q-93 0 -170.5 29t-139 88.5t-95 162.5t-29.5 240l41 10q-3 -91 8 -165.5t31.5 -127t52.5 -92.5t67 -64t79.5 -39t86 -20.5t90.5 -5.5q58 0 110 13t100 45t82.5 80.5t55.5 125t21 172.5v1051l-694 -19v31h749v-1046
q0 -242 -113.5 -355.5t-332.5 -113.5z" />
    <glyph glyph-name="ij" unicode="&#x133;" horiz-adv-x="778" 
d="M557 1241q-29 0 -46 19t-17 51q0 30 17 48.5t46 18.5q30 0 48 -18.5t18 -48.5q0 -32 -17.5 -51t-48.5 -19zM221 1241q-29 0 -46 19t-17 51q0 30 17 48.5t46 18.5q30 0 48 -18.5t18 -48.5q0 -32 -17.5 -51t-48.5 -19zM246 983v-983h-51v983h51zM410 -414q-36 0 -72.5 16
t-58.5 40l38 51q46 -66 127 -66q53 0 86 34t33 101q0 40 -31 119v1102h52v-1155q0 -54 -7.5 -94.5t-26 -75.5t-54 -53.5t-86.5 -18.5z" />
    <glyph glyph-name="Jcircumflex" unicode="&#x134;" horiz-adv-x="1134" 
d="M809 1616l-240 334l-239 -334h-11l201 391h98l201 -391h-10zM500 -20q-93 0 -170.5 29t-139 88.5t-95 162.5t-29.5 240l40 10q-3 -126 19.5 -220.5t60.5 -149.5t95.5 -88.5t114 -44.5t126.5 -11q58 0 110 13t100 45t82.5 80.5t55.5 125t21 172.5v1051l-694 -19v31h749
v-1046q0 -242 -113.5 -355.5t-332.5 -113.5z" />
    <glyph glyph-name="jcircumflex" unicode="&#x135;" horiz-adv-x="401" 
d="M459 1145l-240 334l-239 -334h-11l201 391h98l201 -391h-10zM72 -414q-36 0 -72.5 16t-58.5 40l39 51q46 -66 126 -66q53 0 86 34t33 101q0 42 -30 119v1102h51v-1155q0 -54 -7.5 -94.5t-26 -75.5t-54 -53.5t-86.5 -18.5z" />
    <glyph glyph-name="Kcommaaccent" unicode="&#x136;" horiz-adv-x="1300" 
d="M1210 0l-706 819l-244 -239v-580h-55v1495h55v-893l885 893h49l-659 -647l739 -848h-64zM766 -131h106l-174 -279h-10z" />
    <glyph glyph-name="kcommaaccent" unicode="&#x137;" horiz-adv-x="1009" 
d="M246 422v-422h-51v1495h51v-1055l583 543h41l-401 -360l500 -623h-54l-477 594zM457 -131h106l-174 -279h-10z" />
    <glyph glyph-name="Lacute" unicode="&#x139;" horiz-adv-x="1126" 
d="M322 2007h96l-215 -391h-10zM205 0v1495h55v-1485l848 21v-31h-903z" />
    <glyph glyph-name="lacute" unicode="&#x13a;" horiz-adv-x="440" 
d="M338 1968h96l-215 -391h-10zM246 1495v-1495h-51v1495h51z" />
    <glyph glyph-name="Lcommaaccent" unicode="&#x13b;" horiz-adv-x="1126" 
d="M205 0v1495h55v-1485l848 21v-31h-903zM555 -131h107l-175 -279h-10z" />
    <glyph glyph-name="lcommaaccent" unicode="&#x13c;" horiz-adv-x="440" 
d="M246 1495v-1495h-51v1495h51zM168 -131h106l-174 -279h-10z" />
    <glyph glyph-name="Lcaron" unicode="&#x13d;" horiz-adv-x="1126" 
d="M580 1495h100l-164 -307h-10zM205 0v1495h55v-1485l848 21v-31h-903z" />
    <glyph glyph-name="lcaron" unicode="&#x13e;" horiz-adv-x="440" 
d="M416 1495h100l-164 -307h-10zM246 1495v-1495h-51v1495h51z" />
    <glyph glyph-name="Ldot" unicode="&#x13f;" horiz-adv-x="1126" 
d="M205 0v1495h55v-1485l848 21v-31h-903zM748 702q-31 0 -49.5 20t-18.5 54q0 31 19 51.5t49 20.5q32 0 50.5 -20.5t18.5 -51.5q0 -34 -18.5 -54t-50.5 -20z" />
    <glyph glyph-name="ldot" unicode="&#x140;" horiz-adv-x="440" 
d="M246 1495v-1495h-51v1495h51zM438 702q-31 0 -49 20t-18 54q0 31 18.5 51.5t48.5 20.5q32 0 51 -20.5t19 -51.5q0 -34 -19 -54t-51 -20z" />
    <glyph glyph-name="Lslash" unicode="&#x141;" horiz-adv-x="1243" 
d="M1225 0h-903v758l-273 -131l-8 24l281 133v711h55v-680l307 146l8 -21l-315 -149v-781l848 21v-31z" />
    <glyph glyph-name="lslash" unicode="&#x142;" horiz-adv-x="528" 
d="M293 0h-51v815l-168 -80l-11 13l179 83v664h51v-645l162 80l12 -10l-174 -86v-834z" />
    <glyph glyph-name="Nacute" unicode="&#x143;" horiz-adv-x="1605" 
d="M926 2007h96l-215 -391h-10zM1380 0l-1155 1425v-1425h-20v1495h39l1136 -1409v1409h21v-1495h-21z" />
    <glyph glyph-name="nacute" unicode="&#x144;" horiz-adv-x="1214" 
d="M731 1536h96l-215 -391h-10zM246 528v-528h-51v983h51v-311q20 108 83 184.5t148.5 112t184.5 35.5q174 0 274 -101.5t100 -304.5v-598h-51v575q0 199 -86 299.5t-244 100.5q-88 0 -160 -25t-129 -77t-88.5 -140t-31.5 -205z" />
    <glyph glyph-name="Ncommaaccent" unicode="&#x145;" horiz-adv-x="1605" 
d="M1380 0l-1155 1425v-1425h-20v1495h39l1136 -1409v1409h21v-1495h-21zM780 -131h107l-174 -279h-11z" />
    <glyph glyph-name="ncommaaccent" unicode="&#x146;" horiz-adv-x="1214" 
d="M246 528v-528h-51v983h51v-311q20 108 83 184.5t148.5 112t184.5 35.5q174 0 274 -101.5t100 -304.5v-598h-51v575q0 199 -86 299.5t-244 100.5q-88 0 -160 -25t-129 -77t-88.5 -140t-31.5 -205zM594 -131h106l-174 -279h-10z" />
    <glyph glyph-name="Ncaron" unicode="&#x147;" horiz-adv-x="1605" 
d="M758 1616l-232 391h11l270 -334l270 334h10l-231 -391h-98zM1380 0l-1155 1425v-1425h-20v1495h39l1136 -1409v1409h21v-1495h-21z" />
    <glyph glyph-name="ncaron" unicode="&#x148;" horiz-adv-x="1214" 
d="M563 1145l-231 391h10l270 -334l271 334h10l-231 -391h-99zM246 528v-528h-51v983h51v-311q20 108 83 184.5t148.5 112t184.5 35.5q174 0 274 -101.5t100 -304.5v-598h-51v575q0 199 -86 299.5t-244 100.5q-88 0 -160 -25t-129 -77t-88.5 -140t-31.5 -205z" />
    <glyph glyph-name="Omacron" unicode="&#x14c;" horiz-adv-x="1789" 
d="M512 1767v27h766v-27h-766zM895 -20q-168 0 -314.5 58t-251 159t-165 244t-60.5 307q0 163 60.5 306t165.5 244t251.5 159.5t313.5 58.5t313.5 -58t251.5 -159t165.5 -244t60.5 -307q0 -165 -60.5 -308t-165 -244t-251 -158.5t-314.5 -57.5zM895 -2q149 0 281 51
t231.5 145t158 237.5t58.5 316.5t-58.5 316.5t-158 237t-231.5 144.5t-281 51t-281 -51t-231.5 -144.5t-158 -237t-58.5 -316.5t58.5 -316.5t158 -237.5t231.5 -145t281 -51z" />
    <glyph glyph-name="omacron" unicode="&#x14d;" horiz-adv-x="1249" 
d="M242 1296v27h766v-27h-766zM625 1004q218 0 359.5 -140t141.5 -372t-141.5 -372t-359.5 -140t-360 140t-142 372t142 372t360 140zM625 -4q205 0 323.5 133.5t118.5 362.5t-118.5 362t-323.5 133t-324 -133t-119 -362t119 -362.5t324 -133.5z" />
    <glyph glyph-name="Obreve" unicode="&#x14e;" horiz-adv-x="1789" 
d="M1130 1946h54q-11 -113 -88 -183.5t-199 -70.5t-199 70.5t-88 183.5h54q11 -129 74 -185.5t159 -56.5q212 0 233 242zM895 -20q-168 0 -314.5 58t-251 159t-165 244t-60.5 307q0 163 60.5 306t165.5 244t251.5 159.5t313.5 58.5t313.5 -58t251.5 -159t165.5 -244
t60.5 -307q0 -165 -60.5 -308t-165 -244t-251 -158.5t-314.5 -57.5zM895 -2q149 0 281 51t231.5 145t158 237.5t58.5 316.5t-58.5 316.5t-158 237t-231.5 144.5t-281 51t-281 -51t-231.5 -144.5t-158 -237t-58.5 -316.5t58.5 -316.5t158 -237.5t231.5 -145t281 -51z" />
    <glyph glyph-name="obreve" unicode="&#x14f;" horiz-adv-x="1249" 
d="M860 1475h53q-11 -113 -87.5 -183.5t-198.5 -70.5t-199 70.5t-88 183.5h53q11 -129 74.5 -185.5t159.5 -56.5q212 0 233 242zM625 1004q218 0 359.5 -140t141.5 -372t-141.5 -372t-359.5 -140t-360 140t-142 372t142 372t360 140zM625 -4q205 0 323.5 133.5t118.5 362.5
t-118.5 362t-323.5 133t-324 -133t-119 -362t119 -362.5t324 -133.5z" />
    <glyph glyph-name="Ohungarumlaut" unicode="&#x150;" horiz-adv-x="1789" 
d="M1137 2007h106l-205 -391h-10zM829 2007h107l-205 -391h-10zM895 -20q-168 0 -314.5 58t-251 159t-165 244t-60.5 307q0 163 60.5 306t165.5 244t251.5 159.5t313.5 58.5t313.5 -58t251.5 -159t165.5 -244t60.5 -307q0 -165 -60.5 -308t-165 -244t-251 -158.5
t-314.5 -57.5zM895 -2q149 0 281 51t231.5 145t158 237.5t58.5 316.5t-58.5 316.5t-158 237t-231.5 144.5t-281 51t-281 -51t-231.5 -144.5t-158 -237t-58.5 -316.5t58.5 -316.5t158 -237.5t231.5 -145t281 -51z" />
    <glyph glyph-name="ohungarumlaut" unicode="&#x151;" horiz-adv-x="1249" 
d="M866 1536h107l-205 -391h-10zM559 1536h107l-205 -391h-10zM625 1004q218 0 359.5 -140t141.5 -372t-141.5 -372t-359.5 -140t-360 140t-142 372t142 372t360 140zM625 -4q205 0 323.5 133.5t118.5 362.5t-118.5 362t-323.5 133t-324 -133t-119 -362t119 -362.5
t324 -133.5z" />
    <glyph glyph-name="OE" unicode="&#x152;" horiz-adv-x="2172" 
d="M164 745q0 -163 50.5 -293.5t155 -228t276 -150.5t401.5 -53h200v1455h-207q-219 0 -388 -54.5t-275 -153t-159.5 -230t-53.5 -292.5zM1022 0q-195 0 -359.5 46t-291 135.5t-198 234t-71.5 329.5q0 149 47 272.5t130.5 211t199.5 148t253 89.5t292 29h1098v-31l-824 21
v-701l773 13v-33l-773 8v-762l824 21v-31h-1100z" />
    <glyph glyph-name="oe" unicode="&#x153;" horiz-adv-x="2095" 
d="M1513 -20q-91 0 -172 32.5t-148 104.5t-99 176q-54 -147 -179 -230t-290 -83q-218 0 -360 140t-142 372t142 372t360 140q167 0 293 -85t178 -235q48 150 164.5 235t281.5 85q193 0 307.5 -134t114.5 -338v-6h-838v-34q0 -34 -2 -48q23 -217 140.5 -326.5t306.5 -109.5
q149 0 250 97t125 253l16 -2q-70 -376 -449 -376zM1534 987q-183 0 -294 -116t-120 -296q1 -4 2 -13.5t2 -14.5h791q-10 192 -108 316t-273 124zM625 -4q205 0 323.5 133.5t118.5 362.5t-118.5 362t-323.5 133t-324 -133t-119 -362t119 -362.5t324 -133.5z" />
    <glyph glyph-name="Racute" unicode="&#x154;" horiz-adv-x="1329" 
d="M743 2048h97l-215 -391h-11zM608 1477h-350v-732h320q540 0 540 373q0 120 -47.5 197.5t-161.5 119.5t-301 42zM258 729v-729h-53v1495h416q273 0 410.5 -88t137.5 -279q0 -109 -62 -196t-159 -134.5t-213 -56.5q182 -3 287 -99t125 -253l47 -389h-49l-35 309
q-11 97 -28.5 161t-50 117t-85.5 82t-130.5 44.5t-188.5 15.5h-369z" />
    <glyph glyph-name="racute" unicode="&#x155;" horiz-adv-x="763" 
d="M520 1536h96l-215 -391h-10zM246 0h-51v983h47v-297q44 318 301 318q115 0 190 -64l-22 -43q-80 74 -191 74q-62 0 -111.5 -24t-79 -61t-49 -86t-27 -94t-7.5 -90v-616z" />
    <glyph glyph-name="Rcommaaccent" unicode="&#x156;" horiz-adv-x="1329" 
d="M608 1477h-350v-732h320q540 0 540 373q0 120 -47.5 197.5t-161.5 119.5t-301 42zM258 729v-729h-53v1495h416q273 0 410.5 -88t137.5 -279q0 -109 -62 -196t-159 -134.5t-213 -56.5q182 -3 287 -99t125 -253l47 -389h-49l-35 309q-11 97 -28.5 161t-50 117t-85.5 82
t-130.5 44.5t-188.5 15.5h-369zM721 -131h106l-174 -279h-10z" />
    <glyph glyph-name="rcommaaccent" unicode="&#x157;" horiz-adv-x="763" 
d="M246 0h-51v983h47v-297q44 318 301 318q115 0 190 -64l-22 -43q-80 74 -191 74q-62 0 -111.5 -24t-79 -61t-49 -86t-27 -94t-7.5 -90v-616zM166 -131h106l-174 -279h-10z" />
    <glyph glyph-name="Rcaron" unicode="&#x158;" horiz-adv-x="1329" 
d="M575 1657l-231 391h10l271 -334l270 334h10l-231 -391h-99zM608 1477h-350v-732h320q540 0 540 373q0 120 -47.5 197.5t-161.5 119.5t-301 42zM258 729v-729h-53v1495h416q273 0 410.5 -88t137.5 -279q0 -109 -62 -196t-159 -134.5t-213 -56.5q182 -3 287 -99t125 -253
l47 -389h-49l-35 309q-11 97 -28.5 161t-50 117t-85.5 82t-130.5 44.5t-188.5 15.5h-369z" />
    <glyph glyph-name="rcaron" unicode="&#x159;" horiz-adv-x="763" 
d="M383 1145l-231 391h10l270 -334l270 334h11l-232 -391h-98zM246 0h-51v983h47v-297q44 318 301 318q115 0 190 -64l-22 -43q-80 74 -191 74q-62 0 -111.5 -24t-79 -61t-49 -86t-27 -94t-7.5 -90v-616z" />
    <glyph glyph-name="Sacute" unicode="&#x15a;" horiz-adv-x="1234" 
d="M717 2048h96l-215 -391h-10zM649 -23q-76 0 -148.5 15.5t-141.5 50.5t-123 86t-92.5 126t-51.5 167l64 16q5 -127 80.5 -230t189 -157.5t236.5 -54.5q188 0 305.5 86t117.5 256q0 77 -31.5 139t-85 104t-122.5 77t-145.5 63t-153.5 56t-146 63t-122.5 76.5t-85 103
t-31.5 137.5q0 169 118 264t300 95q70 0 133.5 -11.5t126.5 -39.5t112 -71.5t87 -112t55 -155.5l-62 -16q-13 100 -55 176.5t-105 121.5t-137.5 67t-159.5 22q-105 0 -189.5 -32.5t-137.5 -103t-53 -169.5q0 -74 31.5 -133.5t85.5 -100.5t123.5 -75t146.5 -62t153.5 -56.5
t146 -63t123.5 -77t85.5 -104t31.5 -137.5q0 -84 -25 -152.5t-68.5 -115.5t-103.5 -78.5t-129 -45.5t-147 -14z" />
    <glyph glyph-name="sacute" unicode="&#x15b;" horiz-adv-x="999" 
d="M612 1536h97l-215 -391h-11zM549 -4q129 0 213 68.5t84 166.5q0 104 -64.5 159t-177.5 81l-205 47q-56 13 -98 29.5t-78.5 43.5t-56 68.5t-19.5 96.5q0 45 19 87.5t58 79.5t108.5 59t159.5 22q146 0 239.5 -61t124.5 -175l-47 -10q-30 109 -115.5 169t-201.5 60
q-85 0 -148 -21.5t-95 -57t-46.5 -73.5t-14.5 -79q0 -60 32 -102t78.5 -63t115.5 -36l196 -43q62 -14 107.5 -32.5t86 -49.5t62 -78.5t21.5 -111.5q0 -112 -99.5 -186t-238.5 -74q-371 0 -447 284l56 10q27 -135 134.5 -206.5t256.5 -71.5z" />
    <glyph glyph-name="Scircumflex" unicode="&#x15c;" horiz-adv-x="1234" 
d="M838 1657l-240 334l-240 -334h-10l201 391h98l201 -391h-10zM649 -23q-76 0 -148.5 15.5t-141.5 50.5t-123 86t-92.5 126t-51.5 167l64 16q5 -127 80.5 -230t189 -157.5t236.5 -54.5q188 0 305.5 86t117.5 256q0 77 -31.5 139t-85 104t-122.5 77t-145.5 63t-153.5 56
t-146 63t-122.5 76.5t-85 103t-31.5 137.5q0 169 118 264t300 95q70 0 133.5 -11.5t126.5 -39.5t112 -71.5t87 -112t55 -155.5l-62 -16q-13 100 -55 176.5t-105 121.5t-137.5 67t-159.5 22q-105 0 -189.5 -32.5t-137.5 -103t-53 -169.5q0 -74 31.5 -133.5t85.5 -100.5
t123.5 -75t146.5 -62t153.5 -56.5t146 -63t123.5 -77t85.5 -104t31.5 -137.5q0 -84 -25 -152.5t-68.5 -115.5t-103.5 -78.5t-129 -45.5t-147 -14z" />
    <glyph glyph-name="scircumflex" unicode="&#x15d;" horiz-adv-x="999" 
d="M733 1145l-239 334l-240 -334h-10l200 391h99l200 -391h-10zM549 -4q129 0 213 68.5t84 166.5q0 104 -64.5 159t-177.5 81l-205 47q-56 13 -98 29.5t-78.5 43.5t-56 68.5t-19.5 96.5q0 45 19 87.5t58 79.5t108.5 59t159.5 22q146 0 239.5 -61t124.5 -175l-47 -10
q-30 109 -115.5 169t-201.5 60q-85 0 -148 -21.5t-95 -57t-46.5 -73.5t-14.5 -79q0 -60 32 -102t78.5 -63t115.5 -36l196 -43q62 -14 107.5 -32.5t86 -49.5t62 -78.5t21.5 -111.5q0 -112 -99.5 -186t-238.5 -74q-371 0 -447 284l56 10q27 -135 134.5 -206.5t256.5 -71.5z
" />
    <glyph glyph-name="Scedilla" unicode="&#x15e;" horiz-adv-x="1234" 
d="M735 -418q-69 0 -115 33t-55 82l33 8q8 -51 41.5 -83t95.5 -32q57 0 98 36t41 114q0 75 -38.5 109t-90.5 34q-50 0 -80.5 -22.5t-58.5 -67.5h-12l74 184h-19q-76 0 -148.5 15.5t-141.5 50.5t-123 86t-92.5 126t-51.5 167l64 16q5 -127 80.5 -230t189 -157.5t236.5 -54.5
q188 0 305.5 86t117.5 256q0 69 -25.5 126.5t-69 97.5t-102 75t-123.5 59.5t-134.5 52.5t-134.5 52.5t-123.5 59t-102 74t-69 96.5t-25.5 126q0 92 32.5 162.5t91 112.5t132.5 63t162 21q70 0 133.5 -11.5t126.5 -39.5t112 -71.5t87 -112t55 -155.5l-61 -16
q-13 100 -55 176.5t-105 121.5t-137.5 67t-159.5 22q-176 0 -278.5 -79.5t-102.5 -225.5q0 -74 31 -133.5t84 -100.5t121.5 -75t144.5 -62t151.5 -56.5t144 -63t121.5 -77t84 -104t31 -137.5q0 -100 -35 -178t-96.5 -125.5t-139.5 -73t-171 -29.5l-59 -147q51 64 135 64
q61 0 109 -38t48 -108q0 -86 -54.5 -126t-123.5 -40z" />
    <glyph glyph-name="scedilla" unicode="&#x15f;" horiz-adv-x="999" 
d="M580 -418q-69 0 -115 33t-55 82l32 8q8 -50 42 -82.5t96 -32.5q57 0 98 36t41 114q0 75 -38.5 109t-90.5 34q-50 0 -80.5 -22.5t-58.5 -67.5h-13l74 187q-339 14 -410 284l54 10q56 -278 393 -278q129 0 213 68.5t84 166.5q0 104 -64.5 159t-177.5 81l-205 47
q-56 13 -98 29.5t-78.5 43.5t-56 68.5t-19.5 96.5q0 45 19 87.5t58 79.5t108.5 59t159.5 22q146 0 239.5 -61t124.5 -175l-45 -10q-63 229 -319 229q-85 0 -148 -21.5t-95 -57t-46.5 -73.5t-14.5 -79q0 -60 32 -102t78.5 -63t115.5 -36l196 -43q62 -14 107.5 -32.5t86 -49.5
t62 -78.5t21.5 -111.5q0 -112 -99.5 -186t-238.5 -74h-25l-59 -150q51 64 135 64q61 0 109.5 -38t48.5 -108q0 -86 -54.5 -126t-123.5 -40z" />
    <glyph glyph-name="Scaron" unicode="&#x160;" horiz-adv-x="1234" 
d="M549 1657l-232 391h11l270 -334l270 334h11l-232 -391h-98zM649 -23q-76 0 -148.5 15.5t-141.5 50.5t-123 86t-92.5 126t-51.5 167l64 16q5 -127 80.5 -230t189 -157.5t236.5 -54.5q188 0 305.5 86t117.5 256q0 77 -31.5 139t-85 104t-122.5 77t-145.5 63t-153.5 56
t-146 63t-122.5 76.5t-85 103t-31.5 137.5q0 169 118 264t300 95q70 0 133.5 -11.5t126.5 -39.5t112 -71.5t87 -112t55 -155.5l-62 -16q-13 100 -55 176.5t-105 121.5t-137.5 67t-159.5 22q-105 0 -189.5 -32.5t-137.5 -103t-53 -169.5q0 -74 31.5 -133.5t85.5 -100.5
t123.5 -75t146.5 -62t153.5 -56.5t146 -63t123.5 -77t85.5 -104t31.5 -137.5q0 -84 -25 -152.5t-68.5 -115.5t-103.5 -78.5t-129 -45.5t-147 -14z" />
    <glyph glyph-name="scaron" unicode="&#x161;" horiz-adv-x="999" 
d="M444 1145l-231 391h10l271 -334l270 334h10l-231 -391h-99zM549 -4q129 0 213 68.5t84 166.5q0 104 -64.5 159t-177.5 81l-205 47q-56 13 -98 29.5t-78.5 43.5t-56 68.5t-19.5 96.5q0 45 19 87.5t58 79.5t108.5 59t159.5 22q146 0 239.5 -61t124.5 -175l-47 -10
q-30 109 -115.5 169t-201.5 60q-85 0 -148 -21.5t-95 -57t-46.5 -73.5t-14.5 -79q0 -60 32 -102t78.5 -63t115.5 -36l196 -43q62 -14 107.5 -32.5t86 -49.5t62 -78.5t21.5 -111.5q0 -112 -99.5 -186t-238.5 -74q-371 0 -447 284l56 10q27 -135 134.5 -206.5t256.5 -71.5z
" />
    <glyph glyph-name="uni0162" unicode="&#x162;" horiz-adv-x="1226" 
d="M1225 1464l-549 23v-1487h-55v1487l-590 -23v31h1194v-31zM582 -131h106l-174 -279h-10z" />
    <glyph glyph-name="uni0163" unicode="&#x163;" horiz-adv-x="835" 
d="M760 246q-12 -121 -81 -193.5t-183 -72.5q-140 0 -197 77.5t-57 227.5v676l-236 4v10l236 4v281l41 38h10v-321l448 8v-31l-448 9v-682q0 -144 52 -211.5t177 -67.5q100 0 158.5 69t67.5 179zM432 -131h107l-174 -279h-11z" />
    <glyph glyph-name="Tcaron" unicode="&#x164;" horiz-adv-x="1226" 
d="M565 1657l-231 391h10l270 -334l271 334h10l-231 -391h-99zM1225 1464l-549 23v-1487h-55v1487l-590 -23v31h1194v-31z" />
    <glyph glyph-name="tcaron" unicode="&#x165;" horiz-adv-x="835" 
d="M516 1432h100l-163 -308h-11zM760 246q-12 -121 -81 -193.5t-183 -72.5q-140 0 -197 77.5t-57 227.5v676l-236 4v10l236 4v281l41 38h10v-321l448 8v-31l-448 9v-682q0 -144 52 -211.5t177 -67.5q100 0 158.5 69t67.5 179z" />
    <glyph glyph-name="Tbar" unicode="&#x166;" horiz-adv-x="1226" 
d="M1137 872h-475v-872h-56v872h-475v21h475v594l-590 -23v31h1194v-31l-548 23v-594h475v-21z" />
    <glyph glyph-name="tbar" unicode="&#x167;" horiz-adv-x="835" 
d="M760 246q-12 -121 -81 -193.5t-183 -72.5q-140 0 -197 77.5t-57 227.5v366h-219v23h219v287l-236 4v10l236 4v281l41 38h10v-321l448 8v-31l-448 9v-289h375v-23h-375v-370q0 -144 52 -211.5t177 -67.5q100 0 158.5 69t67.5 179z" />
    <glyph glyph-name="Utilde" unicode="&#x168;" horiz-adv-x="1394" 
d="M344 1726l-14 5q32 99 82.5 141.5t134.5 42.5q59 0 180 -58.5t176 -58.5q74 0 118.5 33t72.5 117l14 -4q-32 -99 -82.5 -142t-134.5 -43q-59 0 -180 58.5t-176 58.5q-74 0 -118.5 -33t-72.5 -117zM1214 623q0 -343 -115 -493t-378 -150q-272 0 -406.5 137t-134.5 415v963
h56v-965q0 -524 505 -524q241 0 347 138.5t106 453.5v897h20v-872z" />
    <glyph glyph-name="utilde" unicode="&#x169;" horiz-adv-x="1183" 
d="M217 1255l-14 5q32 99 82.5 141.5t134.5 42.5q59 0 180 -58.5t176 -58.5q74 0 118.5 33t72.5 117l14 -4q-32 -99 -82.5 -142t-134.5 -43q-59 0 -180 58.5t-176 58.5q-74 0 -118.5 -33t-72.5 -117zM938 305q-15 -81 -59.5 -145t-106 -102.5t-128.5 -58t-134 -19.5
q-332 0 -332 382v621h51v-598q0 -186 78 -281.5t232 -95.5q76 0 144.5 25t127 75t93 136.5t34.5 199.5v539h51v-983h-51v305z" />
    <glyph glyph-name="Umacron" unicode="&#x16a;" horiz-adv-x="1394" 
d="M317 1808v27h766v-27h-766zM1214 623q0 -343 -115 -493t-378 -150q-272 0 -406.5 137t-134.5 415v963h56v-965q0 -524 505 -524q241 0 347 138.5t106 453.5v897h20v-872z" />
    <glyph glyph-name="umacron" unicode="&#x16b;" horiz-adv-x="1183" 
d="M209 1296v27h766v-27h-766zM938 305q-15 -81 -59.5 -145t-106 -102.5t-128.5 -58t-134 -19.5q-332 0 -332 382v621h51v-598q0 -186 78 -281.5t232 -95.5q76 0 144.5 25t127 75t93 136.5t34.5 199.5v539h51v-983h-51v305z" />
    <glyph glyph-name="Ubreve" unicode="&#x16c;" horiz-adv-x="1394" 
d="M936 1987h53q-11 -113 -88 -183.5t-199 -70.5t-198.5 70.5t-87.5 183.5h53q11 -129 74 -185.5t159 -56.5q213 0 234 242zM1214 623q0 -343 -115 -493t-378 -150q-272 0 -406.5 137t-134.5 415v963h56v-965q0 -524 505 -524q241 0 347 138.5t106 453.5v897h20v-872z" />
    <glyph glyph-name="ubreve" unicode="&#x16d;" horiz-adv-x="1183" 
d="M827 1475h54q-11 -113 -88 -183.5t-199 -70.5t-199 70.5t-88 183.5h53q11 -129 74.5 -185.5t159.5 -56.5q212 0 233 242zM938 305q-15 -81 -59.5 -145t-106 -102.5t-128.5 -58t-134 -19.5q-332 0 -332 382v621h51v-598q0 -186 78 -281.5t232 -95.5q76 0 144.5 25t127 75
t93 136.5t34.5 199.5v539h51v-983h-51v305z" />
    <glyph glyph-name="Uring" unicode="&#x16e;" horiz-adv-x="1394" 
d="M786 1681q-95 0 -159 63t-64 159q0 95 64 156t159 61t158.5 -60.5t63.5 -156.5t-64 -159t-158 -63zM786 1698q85 0 142 58.5t57 146.5q0 87 -57.5 143.5t-141.5 56.5t-142 -56.5t-58 -143.5q0 -89 57.5 -147t142.5 -58zM1214 623q0 -343 -115 -493t-378 -150
q-272 0 -406.5 137t-134.5 415v963h56v-965q0 -524 505 -524q241 0 347 138.5t106 453.5v897h20v-872z" />
    <glyph glyph-name="uring" unicode="&#x16f;" horiz-adv-x="1183" 
d="M594 1210q-95 0 -159 63t-64 159q0 95 64 156t159 61t158 -60.5t63 -156.5t-63.5 -159t-157.5 -63zM594 1227q85 0 142 58.5t57 146.5q0 87 -57.5 143.5t-141.5 56.5t-142.5 -56.5t-58.5 -143.5q0 -89 58 -147t143 -58zM938 305q-15 -81 -59.5 -145t-106 -102.5
t-128.5 -58t-134 -19.5q-332 0 -332 382v621h51v-598q0 -186 78 -281.5t232 -95.5q76 0 144.5 25t127 75t93 136.5t34.5 199.5v539h51v-983h-51v305z" />
    <glyph glyph-name="Uhungarumlaut" unicode="&#x170;" horiz-adv-x="1394" 
d="M942 2048h107l-205 -391h-10zM635 2048h106l-204 -391h-11zM1214 623q0 -343 -115 -493t-378 -150q-272 0 -406.5 137t-134.5 415v963h56v-965q0 -524 505 -524q241 0 347 138.5t106 453.5v897h20v-872z" />
    <glyph glyph-name="uhungarumlaut" unicode="&#x171;" horiz-adv-x="1183" 
d="M834 1536h106l-205 -391h-10zM526 1536h107l-205 -391h-10zM938 305q-15 -81 -59.5 -145t-106 -102.5t-128.5 -58t-134 -19.5q-332 0 -332 382v621h51v-598q0 -186 78 -281.5t232 -95.5q76 0 144.5 25t127 75t93 136.5t34.5 199.5v539h51v-983h-51v305z" />
    <glyph glyph-name="Uogonek" unicode="&#x172;" horiz-adv-x="1394" 
d="M803 -344q-76 0 -127 38t-51 101q0 64 42 113t115 74q-18 -2 -61 -2q-272 0 -406.5 137t-134.5 415v963h56v-965q0 -524 505 -524q241 0 347 138.5t106 453.5v897h20v-872q0 -293 -83.5 -443.5t-268.5 -187.5q-98 -19 -156.5 -69.5t-58.5 -115.5q0 -57 45.5 -82.5
t116.5 -25.5q87 0 172 45v-45q-94 -43 -178 -43z" />
    <glyph glyph-name="uogonek" unicode="&#x173;" horiz-adv-x="1183" 
d="M987 -301q-94 -43 -178 -43q-76 0 -127 38t-51 101q0 93 87 153t220 60v297q-15 -81 -59.5 -145t-106 -102.5t-128.5 -58t-134 -19.5q-332 0 -332 382v621h51v-598q0 -186 78 -281.5t232 -95.5q76 0 144.5 25t127 75t93 136.5t34.5 199.5v539h51v-983h-47
q-127 -4 -208 -59.5t-81 -133.5q0 -57 45.5 -82.5t116.5 -25.5q87 0 172 45v-45z" />
    <glyph glyph-name="Wcircumflex" unicode="&#x174;" horiz-adv-x="2068" 
d="M1274 1657l-240 334l-239 -334h-11l201 391h98l201 -391h-10zM555 -10l-510 1505h59l490 -1472l426 1314l-53 158h59l490 -1472l477 1472h32l-505 -1505h-43l-443 1302l-436 -1302h-43z" />
    <glyph glyph-name="wcircumflex" unicode="&#x175;" horiz-adv-x="1556" 
d="M1018 1145l-240 334l-239 -334h-11l201 391h98l201 -391h-10zM451 0l-7 14l5 -14h-43l-345 983h56l323 -956l2 -9l320 947l-6 18h55l324 -956l2 -9l325 965h37l-354 -983l-6 14l4 -14h-43l-320 913z" />
    <glyph glyph-name="Ycircumflex" unicode="&#x176;" horiz-adv-x="1138" 
d="M809 1657l-240 334l-239 -334h-11l201 391h98l201 -391h-10zM618 0h-55v649l-540 846h67l516 -811l469 811h37l-494 -831v-664z" />
    <glyph glyph-name="ycircumflex" unicode="&#x177;" horiz-adv-x="948" 
d="M713 1145l-240 334l-240 -334h-10l201 391h98l201 -391h-10zM143 -420q-68 0 -129 37l33 64q50 -41 127 -41q102 0 170 86q66 80 143 274h-30l-406 983h55l386 -956l2 -9l366 965h37l-395 -983l-33 -82q-70 -180 -146.5 -259t-179.5 -79z" />
    <glyph glyph-name="Ydieresis" unicode="&#x178;" horiz-adv-x="1138" 
d="M344 1780q-31 0 -49.5 19.5t-18.5 53.5q0 31 19 51.5t49 20.5q32 0 51 -20.5t19 -51.5q0 -34 -19 -53.5t-51 -19.5zM797 1780q-31 0 -49.5 19.5t-18.5 53.5q0 31 19 51.5t49 20.5q32 0 50.5 -20.5t18.5 -51.5q0 -34 -18.5 -53.5t-50.5 -19.5zM618 0h-55v649l-540 846h67
l516 -811l469 811h37l-494 -831v-664z" />
    <glyph glyph-name="Zacute" unicode="&#x179;" horiz-adv-x="1187" 
d="M715 2048h96l-215 -391h-10zM57 0v4l1000 1481l-971 -21v31h1040v-4l-999 -1481l1036 21v-31h-1106z" />
    <glyph glyph-name="zacute" unicode="&#x17a;" horiz-adv-x="911" 
d="M573 1536h97l-215 -391h-11zM43 0v25l766 948l-680 -21v31h731v-25l-768 -946l748 19v-31h-797z" />
    <glyph glyph-name="Zdotaccent" unicode="&#x17b;" horiz-adv-x="1187" 
d="M596 1827q-31 0 -49.5 20t-18.5 54q0 31 19 51t49 20q32 0 51 -20t19 -51q0 -34 -19 -54t-51 -20zM57 0v4l1000 1481l-971 -21v31h1040v-4l-999 -1481l1036 21v-31h-1106z" />
    <glyph glyph-name="zdotaccent" unicode="&#x17c;" horiz-adv-x="911" 
d="M526 1315q-31 0 -49 20t-18 54q0 31 18.5 51t48.5 20q32 0 51 -20t19 -51q0 -34 -19 -54t-51 -20zM43 0v25l766 948l-680 -21v31h731v-25l-768 -946l748 19v-31h-797z" />
    <glyph glyph-name="Zcaron" unicode="&#x17d;" horiz-adv-x="1187" 
d="M547 1657l-232 391h11l270 -334l270 334h11l-232 -391h-98zM57 0v4l1000 1481l-971 -21v31h1040v-4l-999 -1481l1036 21v-31h-1106z" />
    <glyph glyph-name="zcaron" unicode="&#x17e;" horiz-adv-x="911" 
d="M406 1145l-232 391h10l271 -334l270 334h10l-231 -391h-98zM43 0v25l766 948l-680 -21v31h731v-25l-768 -946l748 19v-31h-797z" />
    <glyph glyph-name="florin" unicode="&#x192;" horiz-adv-x="665" 
d="M-2 -272q-46 0 -93 9.5t-65 18.5l15 58q85 -56 165 -56q107 0 167.5 63t60.5 171q0 80 -21 166l39 622l-205 4v11l205 4l25 381q21 327 276 327q46 0 93 -9.5t65 -18.5l-14 -58q-85 56 -166 56q-107 0 -167.5 -63t-60.5 -171q0 -80 21 -166l-16 -280l258 8v-31l-261 8
l-45 -727q-21 -327 -276 -327z" />
    <glyph glyph-name="uni0218" unicode="&#x218;" horiz-adv-x="1234" 
d="M649 -23q-76 0 -148.5 15.5t-141.5 50.5t-123 86t-92.5 126t-51.5 167l64 16q5 -127 80.5 -230t189 -157.5t236.5 -54.5q188 0 305.5 86t117.5 256q0 77 -31.5 139t-85 104t-122.5 77t-145.5 63t-153.5 56t-146 63t-122.5 76.5t-85 103t-31.5 137.5q0 169 118 264t300 95
q70 0 133.5 -11.5t126.5 -39.5t112 -71.5t87 -112t55 -155.5l-62 -16q-13 100 -55 176.5t-105 121.5t-137.5 67t-159.5 22q-105 0 -189.5 -32.5t-137.5 -103t-53 -169.5q0 -74 31.5 -133.5t85.5 -100.5t123.5 -75t146.5 -62t153.5 -56.5t146 -63t123.5 -77t85.5 -104
t31.5 -137.5q0 -84 -25 -152.5t-68.5 -115.5t-103.5 -78.5t-129 -45.5t-147 -14zM694 -131h107l-174 -279h-11z" />
    <glyph glyph-name="uni0219" unicode="&#x219;" horiz-adv-x="999" 
d="M549 -4q129 0 213 68.5t84 166.5q0 104 -64.5 159t-177.5 81l-205 47q-56 13 -98 29.5t-78.5 43.5t-56 68.5t-19.5 96.5q0 45 19 87.5t58 79.5t108.5 59t159.5 22q146 0 239.5 -61t124.5 -175l-47 -10q-30 109 -115.5 169t-201.5 60q-85 0 -148 -21.5t-95 -57
t-46.5 -73.5t-14.5 -79q0 -60 32 -102t78.5 -63t115.5 -36l196 -43q62 -14 107.5 -32.5t86 -49.5t62 -78.5t21.5 -111.5q0 -112 -99.5 -186t-238.5 -74q-371 0 -447 284l56 10q27 -135 134.5 -206.5t256.5 -71.5zM479 -131h107l-174 -279h-11z" />
    <glyph glyph-name="uni021A" unicode="&#x21a;" horiz-adv-x="1226" 
d="M1225 1464l-549 23v-1487h-55v1487l-590 -23v31h1194v-31zM582 -131h106l-174 -279h-10z" />
    <glyph glyph-name="uni021B" unicode="&#x21b;" horiz-adv-x="835" 
d="M760 246q-12 -121 -81 -193.5t-183 -72.5q-140 0 -197 77.5t-57 227.5v676l-236 4v10l236 4v281l41 38h10v-321l448 8v-31l-448 9v-682q0 -144 52 -211.5t177 -67.5q100 0 158.5 69t67.5 179zM432 -131h107l-174 -279h-11z" />
    <glyph glyph-name="dotlessj" unicode="&#x237;" horiz-adv-x="440" 
d="M72 -414q-36 0 -72.5 16t-58.5 40l39 51q46 -66 126 -66q53 0 86 34t33 101q0 42 -30 119v1102h51v-1155q0 -54 -7.5 -94.5t-26 -75.5t-54 -53.5t-86.5 -18.5z" />
    <glyph glyph-name="circumflex" unicode="&#x2c6;" 
d="M752 1145l-240 334l-240 -334h-10l201 391h98l201 -391h-10z" />
    <glyph glyph-name="caron" unicode="&#x2c7;" 
d="M463 1145l-232 391h11l270 -334l270 334h11l-232 -391h-98z" />
    <glyph glyph-name="breve" unicode="&#x2d8;" 
d="M748 1475h53q-11 -113 -88 -183.5t-199 -70.5t-199 70.5t-88 183.5h54q11 -129 74 -185.5t159 -56.5q213 0 234 242z" />
    <glyph glyph-name="dotaccent" unicode="&#x2d9;" 
d="M512 1315q-31 0 -49.5 20t-18.5 54q0 31 19 51t49 20q32 0 51 -20t19 -51q0 -34 -19 -54t-51 -20z" />
    <glyph glyph-name="ring" unicode="&#x2da;" 
d="M514 1210q-95 0 -159 63t-64 159q0 95 64 156t159 61t158 -60.5t63 -156.5t-63.5 -159t-157.5 -63zM514 1227q85 0 142 58.5t57 146.5q0 87 -57.5 143.5t-141.5 56.5t-142.5 -56.5t-58.5 -143.5q0 -89 58 -147t143 -58z" />
    <glyph glyph-name="ogonek" unicode="&#x2db;" 
d="M711 8l45 -8q-146 6 -241 -51t-95 -142q0 -57 45.5 -82.5t116.5 -25.5q87 0 172 45v-45q-94 -43 -179 -43q-76 0 -127 38t-51 101q0 93 87.5 153t220.5 60h6z" />
    <glyph glyph-name="tilde" unicode="&#x2dc;" 
d="M137 1255l-14 5q32 99 82.5 141.5t134.5 42.5q59 0 180 -58.5t176 -58.5q74 0 118.5 33t72.5 117l14 -4q-32 -99 -82.5 -142t-134.5 -43q-59 0 -180 58.5t-176 58.5q-74 0 -118.5 -33t-72.5 -117z" />
    <glyph glyph-name="hungarumlaut" unicode="&#x2dd;" 
d="M754 1536h106l-205 -391h-10zM446 1536h107l-205 -391h-10z" />
    <glyph glyph-name="uni0394" unicode="&#x394;" horiz-adv-x="1304" 
d="M10 0l600 1495h62l622 -1495h-1284zM621 1479l-5 8l-565 -1467h1176z" />
    <glyph glyph-name="uni03A9" unicode="&#x3a9;" horiz-adv-x="1810" 
d="M803 0h-701v20h553l111 -4q-279 78 -437.5 287t-158.5 500q0 142 53.5 272t147.5 227.5t233 155.5t301 58t301 -58t233 -155.5t147.5 -227.5t53.5 -272q0 -291 -158.5 -500t-437.5 -287l119 4h545v-20h-700v23q152 39 263.5 112.5t178 175t98 221.5t31.5 263
q0 106 -28.5 208t-85.5 191.5t-136.5 157t-189 106.5t-234.5 39t-234.5 -39t-189 -106.5t-136.5 -157t-85.5 -191.5t-28.5 -208q0 -143 31.5 -263t98.5 -221.5t178.5 -175t263.5 -112.5v-23z" />
    <glyph glyph-name="pi" unicode="&#x3c0;" horiz-adv-x="1409" 
d="M1176 43q-58 -63 -132 -63q-126 0 -126 159v824h-584v-963h-51v963h-185v20h1071v-20h-200v-811q0 -85 25.5 -112.5t74.5 -27.5q22 0 49 12.5t45 32.5z" />
    <glyph glyph-name="Wgrave" unicode="&#x1e80;" horiz-adv-x="2068" 
d="M956 2048l129 -391h-10l-215 391h96zM555 -10l-510 1505h59l490 -1472l426 1314l-53 158h59l490 -1472l477 1472h32l-505 -1505h-43l-443 1302l-436 -1302h-43z" />
    <glyph glyph-name="wgrave" unicode="&#x1e81;" horiz-adv-x="1556" 
d="M666 1536l129 -391h-11l-215 391h97zM451 0l-7 14l5 -14h-43l-345 983h56l323 -956l2 -9l320 947l-6 18h55l324 -956l2 -9l325 965h37l-354 -983l-6 14l4 -14h-43l-320 913z" />
    <glyph glyph-name="Wacute" unicode="&#x1e82;" horiz-adv-x="2068" 
d="M1153 2048h96l-215 -391h-10zM555 -10l-510 1505h59l490 -1472l426 1314l-53 158h59l490 -1472l477 1472h32l-505 -1505h-43l-443 1302l-436 -1302h-43z" />
    <glyph glyph-name="wacute" unicode="&#x1e83;" horiz-adv-x="1556" 
d="M915 1536h97l-215 -391h-11zM451 0l-7 14l5 -14h-43l-345 983h56l323 -956l2 -9l320 947l-6 18h55l324 -956l2 -9l325 965h37l-354 -983l-6 14l4 -14h-43l-320 913z" />
    <glyph glyph-name="Wdieresis" unicode="&#x1e84;" horiz-adv-x="2068" 
d="M809 1780q-31 0 -49.5 19.5t-18.5 53.5q0 31 19 51.5t49 20.5q32 0 51 -20.5t19 -51.5q0 -34 -19 -53.5t-51 -19.5zM1262 1780q-31 0 -49.5 19.5t-18.5 53.5q0 31 19 51.5t49 20.5q32 0 50.5 -20.5t18.5 -51.5q0 -34 -18.5 -53.5t-50.5 -19.5zM555 -10l-510 1505h59
l490 -1472l426 1314l-53 158h59l490 -1472l477 1472h32l-505 -1505h-43l-443 1302l-436 -1302h-43z" />
    <glyph glyph-name="wdieresis" unicode="&#x1e85;" horiz-adv-x="1556" 
d="M553 1268q-31 0 -49.5 19.5t-18.5 53.5q0 31 19 51.5t49 20.5q32 0 51 -20.5t19 -51.5q0 -34 -19 -53.5t-51 -19.5zM1006 1268q-31 0 -49.5 19.5t-18.5 53.5q0 31 19 51.5t49 20.5q32 0 50.5 -20.5t18.5 -51.5q0 -34 -18.5 -53.5t-50.5 -19.5zM451 0l-7 14l5 -14h-43
l-345 983h56l323 -956l2 -9l320 947l-6 18h55l324 -956l2 -9l325 965h37l-354 -983l-6 14l4 -14h-43l-320 913z" />
    <glyph glyph-name="Ygrave" unicode="&#x1ef2;" horiz-adv-x="1138" 
d="M492 2048l129 -391h-11l-215 391h97zM618 0h-55v649l-540 846h67l516 -811l469 811h37l-494 -831v-664z" />
    <glyph glyph-name="ygrave" unicode="&#x1ef3;" horiz-adv-x="948" 
d="M395 1536l129 -391h-10l-215 391h96zM143 -420q-68 0 -129 37l33 64q50 -41 127 -41q102 0 170 86q66 80 143 274h-30l-406 983h55l386 -956l2 -9l366 965h37l-395 -983l-33 -82q-70 -180 -146.5 -259t-179.5 -79z" />
    <glyph glyph-name="endash" unicode="&#x2013;" horiz-adv-x="1085" 
d="M31 612v29h1024v-29h-1024z" />
    <glyph glyph-name="emdash" unicode="&#x2014;" horiz-adv-x="2109" 
d="M2079 641v-29h-2048v29h2048z" />
    <glyph glyph-name="quoteleft" unicode="&#x2018;" horiz-adv-x="436" 
d="M313 1507l9 -16q-95 -56 -138 -139.5t-14 -157.5q40 35 80 35q32 0 53 -21t21 -55q0 -35 -23.5 -55.5t-60.5 -20.5q-56 0 -86.5 40.5t-30.5 101.5q0 172 190 288z" />
    <glyph glyph-name="quoteright" unicode="&#x2019;" horiz-adv-x="436" 
d="M143 1085l-8 17q95 56 138 139.5t14 157.5q-40 -35 -80 -35q-32 0 -53 21t-21 55q0 35 23.5 55.5t60.5 20.5q56 0 86.5 -41t30.5 -101q0 -172 -191 -289z" />
    <glyph glyph-name="quotesinglbase" unicode="&#x201a;" horiz-adv-x="395" 
d="M102 -297l-8 16q95 56 138 139.5t14 157.5q-38 -34 -80 -34q-32 0 -53 20.5t-21 54.5q0 35 23.5 55.5t60.5 20.5q56 0 86.5 -40.5t30.5 -100.5q0 -172 -191 -289z" />
    <glyph glyph-name="quotedblleft" unicode="&#x201c;" horiz-adv-x="679" 
d="M313 1518l9 -17q-95 -56 -138 -139.5t-14 -157.5q40 35 80 35q32 0 53 -21t21 -55q0 -35 -23.5 -55.5t-60.5 -20.5q-56 0 -86.5 40.5t-30.5 101.5q0 173 190 289zM557 1518l8 -17q-94 -56 -137 -139t-14 -158q40 35 80 35q32 0 52.5 -20.5t20.5 -55.5t-23.5 -55.5
t-60.5 -20.5q-56 0 -86 40.5t-30 101.5q0 173 190 289z" />
    <glyph glyph-name="quotedblright" unicode="&#x201d;" horiz-adv-x="679" 
d="M387 1075l-8 17q94 56 137 139t14 158q-40 -35 -79 -35q-32 0 -53 21t-21 55q0 35 23.5 55t60.5 20q56 0 86.5 -40.5t30.5 -100.5q0 -172 -191 -289zM143 1075l-8 17q95 56 138 139.5t14 157.5q-40 -35 -80 -35q-32 0 -53 21t-21 55q0 35 23.5 55t60.5 20
q56 0 86.5 -40.5t30.5 -100.5q0 -172 -191 -289z" />
    <glyph glyph-name="quotedblbase" unicode="&#x201e;" horiz-adv-x="638" 
d="M346 -299l-8 16q94 56 137 139t14 158q-38 -34 -79 -34q-32 0 -53 20.5t-21 54.5q0 35 23.5 55.5t60.5 20.5q56 0 86.5 -40.5t30.5 -100.5q0 -172 -191 -289zM102 -299l-8 16q95 56 138 139.5t14 157.5q-38 -34 -80 -34q-32 0 -53 20.5t-21 54.5q0 35 23.5 55.5
t60.5 20.5q56 0 86.5 -40.5t30.5 -100.5q0 -172 -191 -289z" />
    <glyph glyph-name="dagger" unicode="&#x2020;" horiz-adv-x="1095" 
d="M952 1055h-389l-10 -1331h-10l-11 1331h-389v20h389v420h31v-420h389v-20z" />
    <glyph glyph-name="daggerdbl" unicode="&#x2021;" horiz-adv-x="1095" 
d="M563 -279h-31v420h-389v21h389l11 446l-11 447h-389v20h389v420h31v-420h389v-20h-389l-10 -447l10 -446h389v-21h-389v-420z" />
    <glyph glyph-name="bullet" unicode="&#x2022;" 
d="M494 369q-120 0 -204.5 85t-84.5 205t84.5 204.5t204.5 84.5t204 -84.5t84 -204.5t-84 -205t-204 -85z" />
    <glyph glyph-name="ellipsis" unicode="&#x2026;" horiz-adv-x="1189" 
d="M184 -20q-33 0 -57.5 24t-24.5 59t24.5 58.5t57.5 23.5q34 0 59 -23.5t25 -58.5t-25 -59t-59 -24zM594 -20q-33 0 -57.5 24t-24.5 59t24.5 58.5t57.5 23.5q34 0 59 -23.5t25 -58.5t-25 -59t-59 -24zM1004 -20q-33 0 -57.5 24t-24.5 59t24.5 58.5t57.5 23.5
q34 0 58.5 -23.5t24.5 -58.5t-24.5 -59t-58.5 -24z" />
    <glyph glyph-name="perthousand" unicode="&#x2030;" horiz-adv-x="2480" 
d="M444 754q-155 0 -264.5 111.5t-109.5 271.5q0 158 108.5 264t265.5 106t265 -106t108 -264q0 -160 -109 -271.5t-264 -111.5zM1303 1495h20l-993 -1495h-31zM444 772q151 0 249 102t98 263q0 155 -98 254.5t-249 99.5q-148 0 -248 -100t-100 -254q0 -159 100 -262
t248 -103zM1178 -20q-156 0 -265.5 111.5t-109.5 270.5q0 158 109 264.5t266 106.5q156 0 264 -106t108 -265q0 -160 -108.5 -271t-263.5 -111zM2038 -20q-156 0 -265.5 111.5t-109.5 270.5q0 158 109 264.5t266 106.5q156 0 264 -106t108 -265q0 -160 -108.5 -271
t-263.5 -111zM1178 -2q151 0 248.5 101.5t97.5 262.5q0 155 -97.5 255t-248.5 100q-148 0 -248.5 -100.5t-100.5 -254.5q0 -159 100.5 -261.5t248.5 -102.5zM2038 -2q151 0 248.5 101.5t97.5 262.5q0 155 -97.5 255t-248.5 100q-148 0 -248 -100.5t-100 -254.5
q0 -159 100 -261.5t248 -102.5z" />
    <glyph glyph-name="guilsinglleft" unicode="&#x2039;" horiz-adv-x="765" 
d="M664 1001v-10l-490 -471l490 -471v-10l-603 471v20z" />
    <glyph glyph-name="guilsinglright" unicode="&#x203a;" horiz-adv-x="765" 
d="M102 1001l603 -471v-20l-603 -471v10l490 471l-490 471v10z" />
    <glyph glyph-name="fraction" unicode="&#x2044;" horiz-adv-x="708" 
d="M786 1495h27l-870 -1495h-27z" />
    <glyph glyph-name="zerosuperior" unicode="&#x2070;" horiz-adv-x="868" 
d="M434 682q-153 0 -248.5 109.5t-95.5 306.5t95.5 306t248.5 109t248.5 -109t95.5 -306t-95.5 -306.5t-248.5 -109.5zM434 700q145 0 222 106.5t77 291.5t-77 291t-222 106t-222 -106t-77 -291t77 -291.5t222 -106.5z" />
    <glyph glyph-name="foursuperior" unicode="&#x2074;" horiz-adv-x="710" 
d="M686 872h-268v-200h-41v200h-334v9l268 614h45l-299 -614l320 6v284q25 18 41 54v-338l268 4v-19z" />
    <glyph glyph-name="Euro" unicode="&#x20ac;" horiz-adv-x="1597" 
d="M1655 555q-13 -172 -104 -304t-234.5 -201.5t-315.5 -69.5q-305 0 -507.5 172.5t-247.5 455.5h-205v21h203q-8 55 -8 125q0 46 2 69h-197v21h199q29 306 232.5 489t504.5 183q165 0 303 -58t231.5 -171.5t118.5 -266.5l-59 -10q-16 147 -100.5 259t-214.5 170t-287 58
q-277 0 -462.5 -178.5t-207.5 -474.5h647v-21h-647q-2 -14 -2 -47q0 -69 10 -147h639v-21h-635q46 -269 229.5 -434.5t467.5 -165.5q123 0 233.5 38.5t195 108.5t138 173.5t61.5 226.5h19z" />
    <glyph glyph-name="uni20B9" unicode="&#x20b9;" horiz-adv-x="1030" 
d="M762 0l-47 276q-17 98 -37.5 164t-58.5 125.5t-94.5 93t-142.5 53t-206 19.5h-119v14h117q561 0 561 375h-678v19h678q-2 115 -56 187t-185 111.5t-349 39.5h-86v18h938v-18h-559q170 -30 257.5 -112.5t90.5 -225.5h211v-19h-211q-2 -89 -41.5 -161.5t-105.5 -118
t-148 -71.5t-174 -30q93 -6 168.5 -39.5t126 -87.5t82.5 -119t47 -141l70 -352h-49z" />
    <glyph glyph-name="uni2113" unicode="&#x2113;" horiz-adv-x="1050" 
d="M565 -20q-56 0 -101.5 19t-87 63t-71 125t-45.5 196l-240 -170l-6 16l244 172q-12 105 -12 248v33q0 180 20.5 324.5t55 238t81.5 156t98 89t107 26.5q121 0 187.5 -82t66.5 -230q0 -190 -83.5 -331.5t-237.5 -266.5l-226 -182q11 -126 36 -211t63 -129.5t80 -62
t98 -17.5q122 0 201.5 140.5t83.5 383.5l18 -2q-7 -280 -93.5 -413t-236.5 -133zM307 645q0 -115 6 -203l217 179q151 123 216 263.5t65 305.5q0 153 -57 232t-148 79q-61 0 -113.5 -46t-95 -138.5t-66.5 -249t-24 -360.5v-62z" />
    <glyph glyph-name="trademark" unicode="&#x2122;" horiz-adv-x="1812" 
d="M711 1477l-334 10v-815h-31v815l-332 -10v18h697v-18zM1231 725l-377 715v-768h-16v823h28l394 -741l393 741h20v-823h-31v768l-378 -715h-33z" />
    <glyph glyph-name="Omega" unicode="&#x2126;" horiz-adv-x="1810" 
d="M803 0h-701v20h553l111 -4q-279 78 -437.5 287t-158.5 500q0 142 53.5 272t147.5 227.5t233 155.5t301 58t301 -58t233 -155.5t147.5 -227.5t53.5 -272q0 -291 -158.5 -500t-437.5 -287l119 4h545v-20h-700v23q152 39 263.5 112.5t178 175t98 221.5t31.5 263
q0 106 -28.5 208t-85.5 191.5t-136.5 157t-189 106.5t-234.5 39t-234.5 -39t-189 -106.5t-136.5 -157t-85.5 -191.5t-28.5 -208q0 -143 31.5 -263t98.5 -221.5t178.5 -175t263.5 -112.5v-23z" />
    <glyph glyph-name="estimated" unicode="&#x212e;" horiz-adv-x="1249" 
d="M1198 561h-893l-10 -8v-379q0 -21 16 -37q111 -123 316 -123q207 0 381 199h51q-194 -233 -434 -233q-155 0 -286.5 80t-208.5 218.5t-77 301.5q0 122 45.5 232.5t122 190.5t182.5 127.5t222 47.5q155 0 287 -80t209 -218t77 -300v-19zM954 604v385q0 20 -16 39
q-115 115 -311 115q-198 0 -316 -121q-16 -16 -16 -41v-377l10 -10h641z" />
    <glyph glyph-name="partialdiff" unicode="&#x2202;" horiz-adv-x="1124" 
d="M565 -20q-67 0 -131.5 18t-125 58t-106 97.5t-73 143.5t-27.5 190q0 144 67 253t179.5 165t251.5 56q177 0 326 -123q-43 104 -111 200t-158.5 182.5t-179 156.5t-205.5 151l7 8q91 -56 184.5 -126t202 -174t191 -212.5t137.5 -242.5t55 -263q0 -241 -130 -389.5
t-354 -148.5zM565 -4q136 0 235 65t147 173t48 245q0 181 -59 332q-139 127 -334 127q-197 0 -319.5 -127.5t-122.5 -337.5q0 -114 35.5 -207t94 -150.5t129.5 -88.5t146 -31z" />
    <glyph glyph-name="Delta" unicode="&#x2206;" horiz-adv-x="1304" 
d="M10 0l600 1495h62l622 -1495h-1284zM621 1479l-5 8l-565 -1467h1176z" />
    <glyph glyph-name="product" unicode="&#x220f;" horiz-adv-x="1460" 
d="M1044 -205v1680h-634v-1680h-52v1680h-256v20h1256v-20h-262v-1680h-52z" />
    <glyph glyph-name="summation" unicode="&#x2211;" horiz-adv-x="1093" 
d="M1032 -276h-1007v22l622 868l-588 852v29h938v-18h-893l580 -842v-12l-616 -863h964v-36z" />
    <glyph glyph-name="minus" unicode="&#x2212;" 
d="M25 645v31h974v-31h-974z" />
    <glyph glyph-name="uni2215" unicode="&#x2215;" horiz-adv-x="708" 
d="M786 1495h27l-870 -1495h-27z" />
    <glyph glyph-name="radical" unicode="&#x221a;" horiz-adv-x="899" 
d="M469 0l-6 14l4 -14h-43l-324 807h54l305 -780l2 -9l559 1477h37z" />
    <glyph glyph-name="infinity" unicode="&#x221e;" horiz-adv-x="1638" 
d="M1133 487q-61 0 -111 18t-84.5 46t-64.5 72.5t-48.5 85.5t-38.5 98q-21 -93 -63.5 -159.5t-96 -99.5t-103 -47t-101.5 -14q-151 0 -235.5 108.5t-84.5 272.5q0 161 96.5 268t252.5 107q76 0 134 -24t98 -71.5t65.5 -96t50.5 -119.5q21 90 62 154.5t92 97t99 46t99 13.5
q155 0 242.5 -107.5t87.5 -273.5q0 -161 -96 -268t-252 -107zM438 510q119 0 215 84t127 227q-6 19 -19 56q-17 51 -26 77t-27.5 70t-33 67.5t-39 54t-49.5 46t-60 26.5t-75 11q-140 0 -218.5 -103.5t-78.5 -257.5q0 -156 72.5 -257t211.5 -101zM1135 502q140 0 217.5 103
t77.5 257t-77.5 256.5t-217.5 102.5q-117 0 -208.5 -83.5t-121.5 -222.5q8 -22 20.5 -59.5l20 -60t20.5 -57t23.5 -55.5t26 -48.5t30.5 -44.5t36 -36t43 -29t50 -16.5t60 -6.5z" />
    <glyph glyph-name="integral" unicode="&#x222b;" horiz-adv-x="665" 
d="M-2 -272q-46 0 -93 9.5t-65 18.5l15 58q85 -56 165 -56q107 0 167.5 63t60.5 171q0 80 -21 166l64 1022q21 327 276 327q46 0 93 -9.5t65 -18.5l-14 -58q-85 56 -166 56q-107 0 -167.5 -63t-60.5 -171q0 -80 21 -166l-64 -1022q-21 -327 -276 -327z" />
    <glyph glyph-name="approxequal" unicode="&#x2248;" 
d="M61 766h-36q61 145 229 145q58 0 133 -24t136.5 -53.5t136.5 -53.5t133 -24q139 0 190 114h37q-22 -52 -62 -86t-81 -46.5t-86 -12.5q-62 0 -141 24.5t-141.5 53.5t-134.5 53.5t-122 24.5q-139 0 -191 -115zM61 459h-36q61 145 229 145q58 0 133 -24t136.5 -53.5
t136.5 -53.5t133 -24q139 0 190 114h37q-61 -145 -229 -145q-62 0 -141 24t-141.5 53.5t-134.5 53.5t-122 24q-140 0 -191 -114z" />
    <glyph glyph-name="notequal" unicode="&#x2260;" 
d="M999 481h-606l-223 -297h-29l224 297h-340v31h362l221 297h-583v31h606l223 297h29l-224 -297h340v-31h-362l-221 -297h583v-31z" />
    <glyph glyph-name="lessequal" unicode="&#x2264;" 
d="M924 397v-37l-850 314v43l852 313v-37l-822 -299zM72 266v31h854v-31h-854z" />
    <glyph glyph-name="greaterequal" unicode="&#x2265;" 
d="M100 397l820 297l-822 299v37l852 -313v-43l-850 -314v37zM952 266h-854v31h854v-31z" />
    <glyph glyph-name="lozenge" unicode="&#x25ca;" 
d="M25 690l467 692h43l466 -690l-466 -692h-43zM68 690l444 -663l449 665l-447 664z" />
    <glyph glyph-name="commaaccent" unicode="&#xf6c3;" 
d="M608 -131h107l-174 -279h-11z" />
    <glyph glyph-name="fi" unicode="&#xfb01;" horiz-adv-x="1126" 
d="M907 1241q-29 0 -46 19t-17 51q0 30 17 48.5t46 18.5q30 0 48 -18.5t18 -48.5q0 -32 -17.5 -51t-48.5 -19zM932 983v-983h-51v983h51zM647 954l-346 7v-961h-51v956l-219 5v10l219 4v149q0 185 95 284t273 99q76 0 113 -12l-18 -55q-67 37 -160 37q-127 0 -204 -87
t-77 -219q0 -86 29 -196l346 6v-27z" />
    <glyph glyph-name="fl" unicode="&#xfb02;" horiz-adv-x="1064" 
d="M870 1495v-1495h-51v1495h51zM647 954l-346 7v-961h-51v956l-219 5v10l219 4v149q0 185 95 284t273 99q76 0 113 -12l-18 -55q-67 37 -160 37q-127 0 -204 -87t-77 -219q0 -86 29 -196l346 6v-27z" />
    <glyph glyph-name="f.calt" horiz-adv-x="669" 
d="M647 954l-346 7v-961h-51v956l-219 5v10l219 4v149q0 185 95 284t273 99q76 0 113 -12l-18 -55q-67 37 -160 37q-127 0 -204 -87t-77 -219q0 -86 29 -196l346 6v-27z" />
    <glyph glyph-name="g.alt" horiz-adv-x="1173" 
d="M219 668q0 -161 96 -240.5t252 -79.5t252 79.5t96 240.5q0 82 -27.5 144.5t-76 100t-110 56t-134.5 18.5t-134.5 -18.5t-110 -56t-76 -100t-27.5 -144.5zM524 -432q-212 0 -320 52.5t-108 146.5q0 126 180 190l7 -14q-129 -52 -129 -176q0 -87 92.5 -135t277.5 -48
q223 0 356.5 81.5t133.5 199.5q0 80 -51.5 119t-184.5 39h-401q-128 0 -186 38t-58 113q0 150 324 168q-131 28 -213 113t-82 213q0 155 117.5 245.5t287.5 90.5q79 0 150 -21h448v-47l-420 37q104 -37 166 -115.5t62 -189.5q0 -104 -57 -181.5t-148.5 -116t-200.5 -38.5
q-389 0 -389 -148q0 -58 48.5 -88t164.5 -30h420q79 0 133 -16t80.5 -44.5t36.5 -58t10 -66.5q0 -141 -151.5 -227t-395.5 -86z" />
    <glyph glyph-name="gbreve.alt" horiz-adv-x="1173" 
d="M803 1475h53q-11 -113 -88 -183.5t-199 -70.5t-198.5 70.5t-87.5 183.5h53q11 -129 74 -185.5t159 -56.5q213 0 234 242zM219 668q0 -161 96 -240.5t252 -79.5t252 79.5t96 240.5q0 82 -27.5 144.5t-76 100t-110 56t-134.5 18.5t-134.5 -18.5t-110 -56t-76 -100
t-27.5 -144.5zM524 -432q-212 0 -320 52.5t-108 146.5q0 126 180 190l7 -14q-129 -52 -129 -176q0 -87 92.5 -135t277.5 -48q223 0 356.5 81.5t133.5 199.5q0 80 -51.5 119t-184.5 39h-401q-128 0 -186 38t-58 113q0 150 324 168q-131 28 -213 113t-82 213
q0 155 117.5 245.5t287.5 90.5q79 0 150 -21h448v-47l-420 37q104 -37 166 -115.5t62 -189.5q0 -104 -57 -181.5t-148.5 -116t-200.5 -38.5q-389 0 -389 -148q0 -58 48.5 -88t164.5 -30h420q79 0 133 -16t80.5 -44.5t36.5 -58t10 -66.5q0 -141 -151.5 -227t-395.5 -86z" />
    <glyph glyph-name="gcircumflex.alt" horiz-adv-x="1173" 
d="M842 1145l-240 334l-240 -334h-10l201 391h98l201 -391h-10zM219 668q0 -161 96 -240.5t252 -79.5t252 79.5t96 240.5q0 82 -27.5 144.5t-76 100t-110 56t-134.5 18.5t-134.5 -18.5t-110 -56t-76 -100t-27.5 -144.5zM524 -432q-212 0 -320 52.5t-108 146.5q0 126 180 190
l7 -14q-129 -52 -129 -176q0 -87 92.5 -135t277.5 -48q223 0 356.5 81.5t133.5 199.5q0 80 -51.5 119t-184.5 39h-401q-128 0 -186 38t-58 113q0 150 324 168q-131 28 -213 113t-82 213q0 155 117.5 245.5t287.5 90.5q79 0 150 -21h448v-47l-420 37q104 -37 166 -115.5
t62 -189.5q0 -104 -57 -181.5t-148.5 -116t-200.5 -38.5q-389 0 -389 -148q0 -58 48.5 -88t164.5 -30h420q79 0 133 -16t80.5 -44.5t36.5 -58t10 -66.5q0 -141 -151.5 -227t-395.5 -86z" />
    <glyph glyph-name="gcommaaccent.alt" horiz-adv-x="1173" 
d="M643 1208h-119l181 279h10zM219 668q0 -161 96 -240.5t252 -79.5t252 79.5t96 240.5q0 82 -27.5 144.5t-76 100t-110 56t-134.5 18.5t-134.5 -18.5t-110 -56t-76 -100t-27.5 -144.5zM524 -432q-212 0 -320 52.5t-108 146.5q0 126 180 190l7 -14q-129 -52 -129 -176
q0 -87 92.5 -135t277.5 -48q223 0 356.5 81.5t133.5 199.5q0 80 -51.5 119t-184.5 39h-401q-128 0 -186 38t-58 113q0 150 324 168q-131 28 -213 113t-82 213q0 155 117.5 245.5t287.5 90.5q79 0 150 -21h448v-47l-420 37q104 -37 166 -115.5t62 -189.5q0 -104 -57 -181.5
t-148.5 -116t-200.5 -38.5q-389 0 -389 -148q0 -58 48.5 -88t164.5 -30h420q79 0 133 -16t80.5 -44.5t36.5 -58t10 -66.5q0 -141 -151.5 -227t-395.5 -86z" />
    <glyph glyph-name="gdotaccent.alt" horiz-adv-x="1173" 
d="M655 1315q-31 0 -49 20t-18 54q0 31 18.5 51t48.5 20q32 0 51 -20t19 -51q0 -34 -19 -54t-51 -20zM301 668q0 -161 96 -240.5t252 -79.5t252 79.5t96 240.5q0 82 -27.5 144.5t-76 100t-110 56t-134.5 18.5t-134.5 -18.5t-110 -56t-76 -100t-27.5 -144.5zM606 -432
q-212 0 -320 52.5t-108 146.5q0 126 180 190l7 -14q-129 -52 -129 -176q0 -87 92.5 -135t277.5 -48q223 0 356.5 81.5t133.5 199.5q0 80 -51.5 119t-184.5 39h-401q-128 0 -186 38t-58 113q0 150 324 168q-131 28 -213 113t-82 213q0 155 117.5 245.5t287.5 90.5
q79 0 150 -21h448v-47l-420 37q104 -37 166 -115.5t62 -189.5q0 -104 -57 -181.5t-148.5 -116t-200.5 -38.5q-389 0 -389 -148q0 -58 48.5 -88t164.5 -30h420q79 0 133 -16t80.5 -44.5t36.5 -58t10 -66.5q0 -141 -151.5 -227t-395.5 -86z" />
    <glyph glyph-name="i.dot" horiz-adv-x="440" 
d="M221 1241q-29 0 -46 19t-17 51q0 30 17 48.5t46 18.5q30 0 48 -18.5t18 -48.5q0 -32 -17.5 -51t-48.5 -19zM246 983v-983h-51v983h51z" />
    <glyph glyph-name="caron.alt" 
d="M387 1495h100l-163 -307h-11z" />
    <glyph glyph-name="revcommaaccent" 
d="M580 1145h-119l180 278h10z" />
    </font>
</defs>
</svg>
